<?xml version="1.0" encoding="UTF-8" standalone="no"?>
<!-- Created with Inkscape (http://www.inkscape.org/) -->

<svg
   width="256"
   height="256"
   viewBox="0 0 67.733331 67.733333"
   version="1.1"
   id="svg1"
   inkscape:version="1.3 (0e150ed6c4, 2023-07-21)"
   sodipodi:docname="2.svg"
   xml:space="preserve"
   inkscape:export-filename="png/2.png"
   inkscape:export-xdpi="720"
   inkscape:export-ydpi="720"
   xmlns:inkscape="http://www.inkscape.org/namespaces/inkscape"
   xmlns:sodipodi="http://sodipodi.sourceforge.net/DTD/sodipodi-0.dtd"
   xmlns:xlink="http://www.w3.org/1999/xlink"
   xmlns="http://www.w3.org/2000/svg"
   xmlns:svg="http://www.w3.org/2000/svg"
   xmlns:rdf="http://www.w3.org/1999/02/22-rdf-syntax-ns#"
   xmlns:cc="http://creativecommons.org/ns#"><sodipodi:namedview
     id="namedview1"
     pagecolor="#ffffff"
     bordercolor="#666666"
     borderopacity="1.0"
     inkscape:showpageshadow="2"
     inkscape:pageopacity="0.0"
     inkscape:pagecheckerboard="0"
     inkscape:deskcolor="#d1d1d1"
     inkscape:document-units="px"
     inkscape:zoom="8.1941061"
     inkscape:cx="143.82289"
     inkscape:cy="139.06337"
     inkscape:window-width="1920"
     inkscape:window-height="1002"
     inkscape:window-x="1920"
     inkscape:window-y="1080"
     inkscape:window-maximized="1"
     inkscape:current-layer="g476"
     showgrid="false" /><defs
     id="defs1"><inkscape:path-effect
       effect="perspective-envelope"
       up_left_point="39.879629,54.545897"
       up_right_point="46.539887,52.034366"
       down_left_point="39.833967,57.651065"
       down_right_point="46.517056,54.979709"
       id="path-effect482"
       is_visible="true"
       lpeversion="1"
       deform_type="perspective"
       horizontal_mirror="false"
       vertical_mirror="false"
       overflow_perspective="false" /><inkscape:path-effect
       effect="envelope"
       id="path-effect481"
       is_visible="true"
       lpeversion="1"
       yy="true"
       xx="true"
       bendpath1="m 38.760857,52.194191 h 7.733366"
       bendpath2="m 46.494223,52.194191 v 2.968175"
       bendpath3="m 38.760857,55.162366 h 7.733366"
       bendpath4="m 38.760857,52.194191 v 2.968175" /><mask
       maskUnits="userSpaceOnUse"
       id="mask6"><path
         id="path6"
         style="display:inline;fill:#ffffff;stroke-width:1.15568;stroke-linecap:square;stroke-miterlimit:1.5;paint-order:fill markers stroke"
         inkscape:label="eye white right"
         d="m 36.46105,34.770922 c -0.462998,0.06312 -0.79927,0.391093 -0.752596,0.804782 0.04666,0.413688 0.300686,0.553637 0.839059,0.527729 0.538368,-0.02592 0.991681,-0.51382 0.973946,-0.816185 -0.01772,-0.302379 -0.597413,-0.579435 -1.060409,-0.516326 z"
         sodipodi:nodetypes="zzzzz" /></mask><mask
       maskUnits="userSpaceOnUse"
       id="mask5"><path
         id="path5-7"
         style="display:inline;fill:#ffffff;stroke-width:1.10381;stroke-linecap:square;stroke-miterlimit:1.5;paint-order:fill markers stroke"
         inkscape:label="eye white left"
         d="m 36.508123,34.724338 c 0.643486,-0.05309 0.889505,0.318799 0.897943,0.651333 0.0085,0.332549 -0.335804,0.643639 -0.812355,0.658536 -0.476549,0.0149 -0.925943,-0.35338 -0.928027,-0.620848 -0.0021,-0.267445 0.300006,-0.643305 0.84244,-0.689081 0.542412,-0.04578 -0.643492,0.05316 -2e-6,6.7e-5 z"
         sodipodi:nodetypes="zzzzzz" /></mask><linearGradient
       inkscape:collect="always"
       xlink:href="#linearGradient9310-2"
       id="linearGradient9312-1"
       x1="37.706081"
       y1="27.519878"
       x2="35.70652"
       y2="51.578678"
       gradientUnits="userSpaceOnUse" /><linearGradient
       inkscape:collect="always"
       id="linearGradient9310-2"><stop
         style="stop-color:#f4eb68;stop-opacity:1;"
         offset="0.46573558"
         id="stop9306-7" /><stop
         style="stop-color:#cfc56d;stop-opacity:1;"
         offset="1"
         id="stop9308-0" /></linearGradient><radialGradient
       inkscape:collect="always"
       xlink:href="#linearGradient1-1"
       id="radialGradient1"
       cx="25.560093"
       cy="37.00964"
       fx="25.560093"
       fy="37.00964"
       r="10.526212"
       gradientTransform="matrix(0.88553205,0.67457482,-0.20444377,0.2683787,10.80529,7.4509333)"
       gradientUnits="userSpaceOnUse" /><linearGradient
       id="linearGradient1-1"
       inkscape:collect="always"><stop
         style="stop-color:#c3c3c3;stop-opacity:1;"
         offset="0.46519694"
         id="stop1-2" /><stop
         style="stop-color:#dddddd;stop-opacity:1;"
         offset="1"
         id="stop2-7" /></linearGradient></defs><g
     inkscape:label="Layer 1"
     inkscape:groupmode="layer"
     id="layer1"><g
       id="g76467"
       inkscape:label="integrelle"
       transform="matrix(0.74511072,0.04852125,-0.04852125,0.74511072,30.814651,17.566304)"
       style="display:inline"><g
         id="g481"
         inkscape:label="switch"
         transform="matrix(1.4140506,-0.1785005,0.1785005,1.4140506,-43.269635,-25.844974)"><path
           id="rect479"
           d="m 40.702044,54.009474 4.792569,-1.715311 0.172463,0.06933 -0.0257,2.966237 -4.852442,1.939612 z"
           style="fill:#393939;fill-opacity:1;stroke-width:1.32292;stroke-linecap:round;stroke-linejoin:round"
           sodipodi:nodetypes="cccccc" /><path
           id="rect481"
           d="m 39.835518,54.685729 c 0.008,-0.462927 0.866526,-0.676255 0.866526,-0.676255 l 0.154843,0.08627 -0.06796,3.173606 c 0,0 -0.938672,0.027 -0.954964,-0.304028 -0.01629,-0.331032 -0.0065,-1.81666 0.0016,-2.279588 z"
           style="fill:#f7484f;fill-opacity:1;stroke-width:1.62699;stroke-linecap:round;stroke-linejoin:round"
           sodipodi:nodetypes="zccczzz" /></g><g
         id="g476"
         inkscape:label="body"
         style="display:inline"
         transform="matrix(1.3606296,-0.11731137,0.11731137,1.3606296,-33.68367,-8.4052567)"><path
           id="rect19720-6"
           style="display:none;fill:#f0e769;stroke-width:0.157476;stroke-linecap:round;stroke-linejoin:round;stroke-miterlimit:1.5;paint-order:fill markers stroke"
           d="m 33.873473,36.862099 c -0.07418,-0.757993 8.853561,-1.466371 9.020709,-1.052767 0.167144,0.413603 -0.531426,2.262649 -1.054528,2.542223 -0.523101,0.279577 -2.425975,-0.501923 -3.319756,-0.378868 -0.893779,0.123063 -2.796777,1.401928 -3.163175,1.368536 -0.366398,-0.03339 -1.409074,-1.721132 -1.48325,-2.479124 z"
           sodipodi:nodetypes="zzzzzz" /><path
           id="rect476"
           style="fill:#fdb88c;stroke-width:1.38065;stroke-linecap:round;stroke-linejoin:round"
           d="M 33.127123,39.583309 30.251606,35.162282 28.014044,33.070858 23.06114,30.019807 c 0,0 -4.343942,-2.729048 -4.680676,-3.225175 -0.336734,-0.496127 -2.241422,-3.816605 -2.450622,-4.054653 -0.2092,-0.238049 -2.312354,-1.225888 -2.595435,-1.484059 -0.283081,-0.25817 3.709048,-1.58926 4.076612,-1.459616 0.367565,0.129644 2.860762,4.331464 3.111651,4.634352 0.250889,0.302888 4.781229,1.709539 4.781229,1.709539 l 1.429195,-2.488528 2.053987,1.734165 6.021396,2.997531 5.617514,4.028429 c 0,0 3.940559,3.412476 4.334308,4.128956 0.393749,0.71648 1.052259,2.497047 1.166036,3.282481 0.113777,0.785434 0.07458,1.086299 -0.0685,1.276521 -0.143085,0.190222 -1.018418,0.661772 -1.018418,0.661772 l -0.280913,-1.764731 c 0,0 -0.975158,-1.865631 -1.418456,-2.469777 -0.443298,-0.604146 -2.243384,-1.382462 -2.243384,-1.382462 l -5.696424,2.265171 c 0,0 0.369975,0.974223 0.681395,1.675054 0.31142,0.700831 1.859003,2.085531 2.118483,2.138027 0.25948,0.0525 0.437192,-0.06074 0.74944,0.03612 0.312248,0.09685 0.416652,0.400084 0.456845,0.782433 0.04019,0.382348 0.02151,1.097773 -0.254671,1.365371 -0.276182,0.267599 -0.577176,0.279417 -0.869404,0.24884 -0.292228,-0.03058 -0.416063,-0.111111 -0.631116,-0.274839 -0.215053,-0.163728 -2.893579,-2.034502 -3.329942,-2.810318 -0.436363,-0.775816 -0.994147,-1.987099 -0.994147,-1.987099 z"
           sodipodi:nodetypes="cccczzzzzccccczzzcczcczzzzzzzzcc"
           inkscape:transform-center-x="7.8271482"
           inkscape:transform-center-y="-6.2783342"
           inkscape:label="meat" /><path
           d="m 25.303899,26.140195 c 0,0 -3.29273,-2.349494 -3.486409,-2.630571 -0.193678,-0.281076 -2.464295,-4.038862 -2.686332,-4.401391 -0.222037,-0.362529 -2.467946,-0.686677 -2.555354,-0.937627 -0.09067,-0.260311 4.06455,-1.309527 4.437258,-1.103949 0.372708,0.205586 2.944145,4.894256 3.182283,5.349577 0.23814,0.455321 2.537749,1.235433 2.537749,1.235433"
           style="display:inline;fill:#fdad7a;fill-opacity:1;stroke-width:1.4079;stroke-linecap:round;stroke-linejoin:round"
           id="path1-5"
           sodipodi:nodetypes="cszsssc" /><path
           id="rect480"
           d="m 45.486709,52.296992 c 0,0 1.002382,-0.05599 1.014201,0.327399 0.01182,0.383389 0.0099,1.650891 -0.01241,2.041069 -0.02233,0.390179 -0.847141,0.664275 -0.847141,0.664275 l 0.02572,-2.966242 z"
           style="fill:#87d2eb;fill-opacity:1;stroke-width:1.34878;stroke-linecap:round;stroke-linejoin:round"
           sodipodi:nodetypes="czzccc"
           transform="matrix(1.042821,-0.04127922,0.04127922,1.042821,-5.8963162,-13.325759)" /><path
           id="rect1"
           style="display:inline;fill:#fdb88c;stroke-width:1.38065;stroke-linecap:round;stroke-linejoin:round"
           transform="rotate(-2.2668225)"
           d="m 42.471961,41.998235 c 0.142464,-0.359877 0.693516,-0.625988 0.693516,-0.625988 l 0.11056,1.185077 -0.123512,0.94506 c 0,0 -0.265182,0.233437 -0.510203,0.01736 -0.245021,-0.216082 -0.312825,-1.161628 -0.170361,-1.521505 z"
           sodipodi:nodetypes="zccczz" /><path
           id="rect477"
           style="display:inline;fill:#0c0c0c;stroke-width:1.38065;stroke-linecap:round;stroke-linejoin:round"
           inkscape:label="pants"
           d="m 19.668948,28.019881 c -0.136669,-0.290099 0.306532,-1.383714 0.846872,-1.856863 0.540339,-0.473148 1.939436,-1.277205 2.195079,-1.232521 0.255642,0.04469 2.164909,1.091293 2.218927,1.001398 0.05402,-0.0899 -1.428378,-0.853768 -1.556043,-0.976057 -0.127665,-0.122289 0.401614,-0.706714 0.979188,-1.061664 0.577574,-0.35495 1.569991,-0.743158 1.830442,-0.693713 0.260451,0.04944 1.680983,0.983425 2.478209,1.407769 0.797226,0.424344 1.485897,1.303489 1.485897,1.303489 l -2.464233,3.087966 -4.397333,1.424766 c 0,0 -3.480336,-2.114471 -3.617005,-2.40457 z"
           sodipodi:nodetypes="zzzzzzzzcccz"
           inkscape:transform-center-x="12.723334"
           inkscape:transform-center-y="-10.19661" /><path
           id="rect478-9"
           style="display:inline;fill:url(#radialGradient1);stroke-width:1.38065;stroke-linecap:round;stroke-linejoin:round"
           d="m 23.236636,30.319526 c 0.01925,-0.404766 2.455426,-3.284669 3.997132,-4.236878 1.541707,-0.95221 1.828813,-1.034718 2.517873,-0.792193 0.689061,0.242525 4.107191,1.865212 5.564403,3.164652 1.457213,1.299441 3.378848,2.859655 4.668974,4.178972 1.290126,1.319317 3.711402,2.299599 4.102939,3.174432 0.391537,0.874833 0.147511,0.524367 -0.190829,0.823476 -0.33834,0.29911 -1.273671,0.489781 -1.48846,0.411722 -0.214789,-0.07806 -2.039204,-1.78292 -4.14985,-0.583126 -2.110646,1.199794 -2.959522,2.429258 -2.624298,2.978968 0.335225,0.549711 -0.317164,1.114192 -0.820215,1.246254 -0.50305,0.132062 -1.146306,-0.0062 -1.397312,-0.42948 -0.251007,-0.423308 -1.557144,-3.202214 -2.583971,-4.398819 -1.026827,-1.196604 -1.459716,-1.465139 -2.544444,-2.376553 -1.084728,-0.911414 -5.071188,-2.756661 -5.051942,-3.161427 z"
           sodipodi:nodetypes="zzzzzzzzzzzzzzz"
           inkscape:transform-center-x="5.2908118"
           inkscape:transform-center-y="-4.6548173" /></g><g
         id="g12898-2-3"
         inkscape:label="head"
         transform="matrix(1.3606296,-0.11731137,0.11731137,1.3606296,-33.68367,-8.4052568)"
         style="display:inline"><path
           id="path12850-2-0"
           style="fill:#fdc8a5;fill-opacity:1;stroke-width:1.04891;stroke-linecap:square;stroke-linejoin:round;stroke-miterlimit:1.5;paint-order:stroke fill markers"
           d="m 42.451293,29.354181 c 0.531778,0.482343 0.709685,1.042215 0.777972,1.620885 0.06829,0.57867 0.02695,1.176138 0.120256,1.733676 0.0933,0.557538 0.253714,1.129972 0.339775,1.688601 0.08606,0.55863 -0.238143,0.771419 -0.442254,1.273744 -0.20411,0.502325 -0.379338,1.001937 -0.789581,1.399435 -0.372871,0.361287 -0.715651,0.642098 -1.25518,0.906361 -0.539529,0.264264 -1.228785,0.500782 -1.94262,0.659949 -0.713835,0.159166 -1.452248,0.240981 -2.090088,0.195841 -0.63784,-0.04514 -1.254995,-0.170161 -1.828042,-0.375288 -0.573047,-0.205128 -1.101988,-0.490365 -1.563401,-0.855943 -0.461412,-0.365577 -0.887486,-0.800648 -1.229504,-1.28454 -0.342018,-0.48389 -0.599979,-1.016601 -0.725168,-1.577456 -0.125188,-0.560854 -0.05263,-1.152266 0.07529,-1.718923 0.127931,-0.566657 0.311239,-1.10856 0.407559,-1.5704 0.09632,-0.461839 0.0347,-0.83551 0.05656,-1.188791 0.02186,-0.35328 0.127216,-0.686172 0.557491,-1.066451 0.430275,-0.380279 1.147991,-0.461159 1.957215,-0.444664 0.809223,0.01649 1.709953,0.130367 2.506255,0.139592 0.796303,0.0092 1.797279,-0.115853 2.732124,-0.122651 0.934844,-0.0068 1.803559,0.104678 2.335337,0.587023 z"
           sodipodi:nodetypes="ssssssssssssssssssssss"
           inkscape:label="face" /><path
           id="path12852-8-6"
           style="display:inline;fill:#fda46b;stroke-width:1.32003;stroke-linecap:square;stroke-linejoin:round;stroke-miterlimit:1.5;paint-order:stroke fill markers"
           inkscape:label="ear right"
           inkscape:transform-center-x="0.41864673"
           inkscape:transform-center-y="-0.22819594"
           d="m 28.854082,36.221451 c -0.09917,-0.464889 2.490524,-2.453594 3.098143,-2.19646 0.607621,0.257134 0.820478,2.983848 0.568841,3.186398 -0.251679,0.202556 -3.567767,-0.525058 -3.666941,-0.989945 z"
           sodipodi:nodetypes="zzzz" /><path
           id="path12854-9-2"
           style="display:inline;fill:#fda46b;fill-opacity:1;stroke-width:1.32003;stroke-linecap:square;stroke-linejoin:round;stroke-miterlimit:1.5;paint-order:stroke fill markers"
           inkscape:label="ear left"
           inkscape:transform-center-x="-0.52729322"
           inkscape:transform-center-y="0.087316979"
           d="m 46.384594,34.003881 c -0.05745,-0.329001 -2.200791,-1.712564 -2.881302,-1.109713 -0.680511,0.602852 -0.488742,2.563104 0.285281,2.927651 0.774065,0.364542 2.653422,-1.488933 2.595979,-1.817934 z"
           sodipodi:nodetypes="zzzzz" /><g
           id="g12888-7-6"
           inkscape:label="face feat"
           transform="matrix(0.94193359,-0.06513881,0.06669976,0.96450533,0.10975875,3.5627932)"><path
             id="path12860-1-1"
             style="display:inline;fill:#fcaa73;stroke-width:1.56215;stroke-linecap:square;stroke-linejoin:round;stroke-miterlimit:1.5;paint-order:stroke fill markers"
             inkscape:label="nose"
             d="m 39.42798,35.822999 c -0.01929,0.09325 -0.84834,0.220813 -0.917281,0.127392 -0.06898,-0.09343 0.257428,-0.846032 0.348484,-0.858054 0.09105,-0.01203 0.588095,0.637447 0.568801,0.730691 z"
             sodipodi:nodetypes="zzzz" /><g
             id="g12880-2-8"
             inkscape:label="eye"
             transform="matrix(-4.9521582,-0.4684516,-0.47028909,5.4508748,230.04832,-113.52244)"
             style="display:inline"><path
               id="path12862-9-7"
               style="display:inline;stroke-width:0.490309;stroke-linecap:square;stroke-miterlimit:1.5;paint-order:fill markers stroke"
               inkscape:label="eye patch"
               d="m 35.272306,29.952175 c 0.205565,0.02951 0.402952,0.199176 0.484282,0.209088 0.08133,0.0099 0.455105,-0.08934 0.60734,-0.06607 0.152236,0.02327 0.282901,0.138924 0.280248,0.285612 -0.0027,0.146693 -0.170797,0.21277 -0.328784,0.206866 -0.157987,-0.0058 -0.322124,-0.1004 -0.380523,-0.184038 -0.0584,-0.08364 -0.117278,-0.124418 -0.205623,-0.139698 -0.08834,-0.01528 -0.134065,0.06611 -0.213478,0.10707 -0.07941,0.04096 -0.182544,0.09845 -0.316091,0.07342 -0.133547,-0.02503 -0.341277,-0.09447 -0.301468,-0.261032 0.03981,-0.166553 0.168532,-0.260738 0.374097,-0.231227 z"
               sodipodi:nodetypes="zzzzzzzzzzzz" /><path
               id="path12864-3"
               style="display:inline;fill:#ffffff;stroke-width:0.366379;stroke-linecap:square;stroke-miterlimit:1.5;paint-order:fill markers stroke"
               inkscape:label="eye white right"
               d="m 36.32773,30.139557 c 0.154676,0.02739 0.262897,0.131434 0.241173,0.253958 -0.02172,0.122524 -0.109132,0.159566 -0.289682,0.141879 -0.180548,-0.01769 -0.325768,-0.171598 -0.315394,-0.261454 0.01037,-0.08986 0.209228,-0.161771 0.363903,-0.134383 z"
               sodipodi:nodetypes="zzzzz" /><path
               id="path28885"
               style="display:inline;fill:#ffffff;stroke-width:0.349936;stroke-linecap:square;stroke-miterlimit:1.5;paint-order:fill markers stroke"
               inkscape:label="eye white left"
               d="m 35.272679,30.008081 c -0.215478,-0.02774 -0.303585,0.07863 -0.311275,0.177656 -0.0077,0.09903 0.103456,0.198185 0.26339,0.211444 0.159934,0.01326 0.316335,-0.08827 0.32094,-0.168007 0.0046,-0.07973 -0.09143,-0.197423 -0.273055,-0.221111 -0.181617,-0.02369 0.215479,0.02776 0,1.8e-5 z"
               sodipodi:nodetypes="zzzzzz" /><g
               id="g28892"
               inkscape:label="pupil"
               transform="matrix(-0.33606453,-0.01849949,-0.01459795,0.2982614,49.08858,20.443244)"
               style="display:inline"
               mask="url(#mask6)"><path
                 id="path1-9"
                 style="display:inline;fill:#d99dd9;stroke-width:0.0279042;stroke-linecap:round;stroke-linejoin:round"
                 transform="matrix(0.70852193,0.10092118,-0.09878251,0.72419272,6.2058914,10.397265)"
                 d="m 48.152506,28.310038 c 0,0.50963 -0.422422,0.922766 -0.943505,0.922766 -0.521083,0 -0.943505,-0.413136 -0.943505,-0.922766 0,-0.50963 0.422422,-0.922766 0.943505,-0.922766 0.521083,0 0.943505,0.413136 0.943505,0.922766 z"
                 sodipodi:nodetypes="sssss" /><path
                 id="path2-3"
                 style="display:inline;fill:#333333;stroke-width:0.0304409;stroke-linecap:round;stroke-linejoin:round"
                 transform="matrix(0.70852193,0.10092118,-0.09878251,0.72419272,6.2058914,10.397265)"
                 d="m 47.828818,28.330243 c -10e-7,0.334793 -0.277504,0.606196 -0.619821,0.606196 -0.342318,0 -0.619821,-0.271403 -0.619821,-0.606196 0,-0.334793 0.277503,-0.606197 0.619821,-0.606197 0.342318,0 0.619821,0.271404 0.619821,0.606197 z"
                 sodipodi:nodetypes="sssss" /></g><g
               id="g3"
               inkscape:label="pupil"
               transform="matrix(-0.33606453,-0.01849949,-0.01459795,0.2982614,48.048668,20.326533)"
               style="display:inline"
               mask="url(#mask5)"><path
                 id="ellipse2"
                 style="display:inline;fill:#d99dd9;stroke-width:0.0279042;stroke-linecap:round;stroke-linejoin:round"
                 transform="matrix(0.70852193,0.10092118,-0.09878251,0.72419272,6.2058914,10.397265)"
                 d="m 47.569142,28.379931 c 0,0.509629 -0.422421,0.922766 -0.943505,0.922766 -0.521083,0 -0.943505,-0.413137 -0.943505,-0.922766 0,-0.50963 0.422422,-0.922766 0.943505,-0.922766 0.521084,0 0.943505,0.413136 0.943505,0.922766 z"
                 sodipodi:nodetypes="sssss" /><path
                 id="ellipse3"
                 style="display:inline;fill:#333333;stroke-width:0.0304409;stroke-linecap:round;stroke-linejoin:round"
                 transform="matrix(0.70852193,0.10092118,-0.09878251,0.72419272,6.2058914,10.397265)"
                 d="m 47.245454,28.400136 c 0,0.334793 -0.277503,0.606196 -0.619821,0.606196 -0.342317,0 -0.61982,-0.271403 -0.619821,-0.606196 0,-0.334794 0.277504,-0.606197 0.619821,-0.606197 0.342318,0 0.619821,0.271403 0.619821,0.606197 z"
                 sodipodi:nodetypes="sssss" /></g></g><g
             id="g12886-0-9"
             inkscape:label="lashes"
             transform="matrix(-5.0305463,-0.26398607,-0.26398607,5.0305463,228.31768,-108.24101)"
             style="display:inline"><path
               id="path12882-3-2"
               style="display:inline;fill:#feed3e;fill-opacity:1;stroke-width:0.520694;stroke-linecap:square;stroke-miterlimit:1.5;paint-order:fill markers stroke"
               inkscape:label="right"
               d="m 35.924759,29.945387 c -0.06574,0.100491 -0.582405,-0.128636 -0.560747,-0.158715 0.02166,-0.03008 0.626482,0.05822 0.560747,0.158715 z"
               sodipodi:nodetypes="zzz" /><path
               id="path12884-6-0"
               style="display:inline;fill:#ffed3d;fill-opacity:1;stroke-width:0.529;stroke-linecap:square;stroke-miterlimit:1.5;paint-order:fill markers stroke"
               inkscape:label="left"
               d="m 36.293086,29.976202 c 0.04155,0.09627 0.62739,-0.03284 0.616737,-0.07095 -0.01065,-0.03811 -0.658285,-0.02532 -0.616737,0.07095 z"
               sodipodi:nodetypes="zzz" /></g><path
             id="rect25600"
             style="display:inline;fill:#fcaa73;stroke:#fcaa73;stroke-width:0.224032;stroke-linecap:round;stroke-linejoin:round;stroke-miterlimit:1.5;stroke-dasharray:none;stroke-opacity:1;paint-order:fill markers stroke"
             d="m 40.07206,37.059654 -1.16825,0.28035 -1.119085,-0.152566 1.119085,0.152566 z"
             sodipodi:nodetypes="ccccc" /></g><g
           id="g38214"
           inkscape:label="glasses"
           style="display:none"><ellipse
             style="fill:#a5cbfd;fill-opacity:0.396457;stroke:#dbcb5c;stroke-width:0.310816;stroke-linecap:round;stroke-linejoin:round;stroke-miterlimit:1.5;stroke-dasharray:none;stroke-opacity:1;paint-order:fill markers stroke"
             id="path30574"
             cx="33.447121"
             cy="37.057514"
             transform="rotate(-3.4333428)"
             rx="1.706933"
             ry="1.402472" /><ellipse
             style="fill:#a5cbfd;fill-opacity:0.396457;stroke:#dbcb5c;stroke-width:0.304999;stroke-linecap:round;stroke-linejoin:round;stroke-miterlimit:1.5;stroke-dasharray:none;stroke-opacity:1;paint-order:fill markers stroke"
             id="circle38103"
             cx="38.157993"
             cy="37.055664"
             transform="rotate(-3.4333429)"
             rx="1.6774617"
             ry="1.3742049" /><rect
             style="fill:#dbcb5c;fill-opacity:1;stroke:none;stroke-width:0.503201;stroke-linecap:round;stroke-linejoin:round;stroke-miterlimit:1.5;stroke-dasharray:none;stroke-opacity:1;paint-order:fill markers stroke"
             id="rect38209"
             width="1.2078683"
             height="0.34225339"
             x="35.211533"
             y="36.790253"
             transform="rotate(-3.4333471)" /><rect
             style="display:inline;fill:#dbcb5c;fill-opacity:1;stroke:none;stroke-width:0.31462;stroke-linecap:round;stroke-linejoin:round;stroke-miterlimit:1.5;stroke-dasharray:none;stroke-opacity:1;paint-order:fill markers stroke"
             id="rect38220"
             width="0.96636587"
             height="0.45471883"
             x="43.712536"
             y="19.52725"
             transform="rotate(22.162951)" /><rect
             style="display:inline;fill:#dbcb5c;fill-opacity:1;stroke:none;stroke-width:0.31462;stroke-linecap:round;stroke-linejoin:round;stroke-miterlimit:1.5;stroke-dasharray:none;stroke-opacity:1;paint-order:fill markers stroke"
             id="rect38810"
             width="0.96636587"
             height="0.45471883"
             x="-20.80637"
             y="50.473671"
             transform="matrix(-0.87436885,0.4852619,0.4852619,0.87436885,0,0)" /></g><g
           id="g12896-1-2"
           inkscape:label="hair"><path
             id="path12890-0-3"
             style="fill:#aeaea3;stroke-width:1.05833;stroke-linecap:square;stroke-linejoin:round;stroke-miterlimit:1.5;paint-order:stroke fill markers"
             d="m 42.241165,29.43756 c 1.481382,0.454222 0.424379,0.221869 1.134674,1.21025 0.710295,0.988381 0.696231,3.441304 0.465099,4.700614 -0.231132,1.25931 -0.66343,2.20715 -0.715437,1.424302 -0.05201,-0.782847 0.04614,-1.4446 -0.07656,-2.429508 -0.122707,-0.984909 -0.402116,-2.76689 -0.741659,-3.009749 -0.339544,-0.242859 -6.722427,0.246863 -7.767415,1.048401 -1.044988,0.801534 -0.294256,3.686241 -0.941679,5.701545 -0.647424,2.015303 -3.367222,2.929927 -5.164513,2.842549 -1.797292,-0.08738 -2.638361,-0.167771 -4.283064,-0.673688 -1.644703,-0.505916 -1.290256,-0.991068 -1.965025,-1.970921 -0.674769,-0.979853 8.229008,1.294245 9.220929,0.291658 0.991921,-1.002586 0.759609,-6.557869 3.093747,-8.354373 2.334138,-1.796504 6.259525,-1.235302 7.740907,-0.78108 z"
             sodipodi:nodetypes="zzzzzzzzzzzzzz"
             inkscape:label="hair under" /><path
             id="path12892-6-7"
             style="fill:url(#linearGradient9312-1);fill-opacity:1;stroke-width:1.05833;stroke-linecap:square;stroke-linejoin:round;stroke-miterlimit:1.5;paint-order:stroke fill markers"
             d="m 36.87727,26.82137 c 4.094962,-0.450038 7.653818,3.046349 8.040068,5.203319 0.38625,2.15697 -0.114995,3.764598 -0.774862,4.574471 -0.659867,0.809873 -1.854971,0.779088 -1.309742,-0.02331 0.54523,-0.802395 0.652377,-2.379984 0.254211,-4.095783 -0.398167,-1.7158 -0.933774,-2.815879 -1.068635,-2.747967 -0.134861,0.06791 0.449771,1.245013 0.260099,1.327562 -0.189712,0.08255 -1.91182,0.133653 -2.128657,-0.01291 -0.216837,-0.146563 -0.224815,-1.531602 -0.42976,-1.498942 -0.204945,0.03266 0.122065,1.411576 -0.03525,1.56792 -0.157315,0.156344 -1.729143,0.358032 -1.949673,0.291731 -0.22053,-0.0663 0.132674,-1.337312 -0.08358,-1.295068 -0.216248,0.04224 -0.340688,1.068799 -0.430547,1.282883 -0.08986,0.214084 -1.915485,-0.04924 -2.899712,0.961335 -0.984227,1.010572 -0.391339,3.575647 -0.950131,5.225589 -0.558793,1.649942 -0.900895,2.003194 -2.235724,2.629261 -1.334829,0.626066 -3.029293,0.694612 -4.096419,0.255705 -1.067125,-0.438906 -4.367111,-1.657441 -4.853374,-2.185815 -0.486263,-0.528373 0.474104,-2.419678 2.478284,-2.418308 2.004181,0.0014 1.768495,1.021369 3.439944,1.682245 1.671449,0.660876 2.286874,0.868926 2.777765,-0.215616 0.49089,-1.084542 -0.569606,-1.921011 -0.302924,-4.601095 0.266681,-2.680084 2.203648,-5.457176 6.29861,-5.907214 z"
             sodipodi:nodetypes="zzzzzzzzzzzzzzzzzzzzzzzz"
             inkscape:label="hair" /><path
             id="path12894-3-5"
             style="display:none;fill:#333333;stroke-width:1.05833;stroke-linecap:square;stroke-linejoin:round;stroke-miterlimit:1.5;paint-order:stroke fill markers"
             d="m 44.313971,43.253044 c 0.2964,-0.105394 0.745236,-0.304611 1.184733,-0.02922 0.147129,0.09219 -0.297668,0.232115 -0.296695,0.405739 0.0011,0.19719 0.399261,0.349966 0.243014,0.470266 -0.353008,0.271797 -0.445929,0.343115 -0.878124,0.105565 -0.147106,-0.08085 0.272865,-0.365147 0.225572,-0.526208 -0.05143,-0.175164 -0.65287,-0.364143 -0.4785,-0.426144 z"
             sodipodi:nodetypes="sssssss"
             inkscape:label="hair tie" /></g></g></g></g><metadata
     id="metadata1"><rdf:RDF><cc:Work
         rdf:about=""><cc:license
           rdf:resource="http://creativecommons.org/licenses/by-nc/4.0/" /></cc:Work><cc:License
         rdf:about="http://creativecommons.org/licenses/by-nc/4.0/"><cc:permits
           rdf:resource="http://creativecommons.org/ns#Reproduction" /><cc:permits
           rdf:resource="http://creativecommons.org/ns#Distribution" /><cc:requires
           rdf:resource="http://creativecommons.org/ns#Notice" /><cc:requires
           rdf:resource="http://creativecommons.org/ns#Attribution" /><cc:prohibits
           rdf:resource="http://creativecommons.org/ns#CommercialUse" /><cc:permits
           rdf:resource="http://creativecommons.org/ns#DerivativeWorks" /></cc:License></rdf:RDF></metadata></svg>
