<?xml version="1.0" encoding="UTF-8" standalone="no"?>
<!-- Created with Inkscape (http://www.inkscape.org/) -->

<svg
   width="256"
   height="256"
   viewBox="0 0 67.733331 67.733333"
   version="1.1"
   id="svg1"
   inkscape:version="1.3 (0e150ed6c4, 2023-07-21)"
   sodipodi:docname="0.svg"
   xml:space="preserve"
   xmlns:inkscape="http://www.inkscape.org/namespaces/inkscape"
   xmlns:sodipodi="http://sodipodi.sourceforge.net/DTD/sodipodi-0.dtd"
   xmlns="http://www.w3.org/2000/svg"
   xmlns:svg="http://www.w3.org/2000/svg"
   xmlns:rdf="http://www.w3.org/1999/02/22-rdf-syntax-ns#"
   xmlns:cc="http://creativecommons.org/ns#"><sodipodi:namedview
     id="namedview1"
     pagecolor="#ffffff"
     bordercolor="#666666"
     borderopacity="1.0"
     inkscape:showpageshadow="2"
     inkscape:pageopacity="0.0"
     inkscape:pagecheckerboard="0"
     inkscape:deskcolor="#d1d1d1"
     inkscape:document-units="px"
     inkscape:zoom="16.388211"
     inkscape:cx="231.72145"
     inkscape:cy="165.63736"
     inkscape:window-width="1920"
     inkscape:window-height="1002"
     inkscape:window-x="1920"
     inkscape:window-y="1080"
     inkscape:window-maximized="1"
     inkscape:current-layer="g5"
     showgrid="false" /><defs
     id="defs1"><inkscape:path-effect
       effect="perspective-envelope"
       up_left_point="39.879629,54.545897"
       up_right_point="46.539887,52.034366"
       down_left_point="39.833967,57.651065"
       down_right_point="46.517056,54.979709"
       id="path-effect482"
       is_visible="true"
       lpeversion="1"
       deform_type="perspective"
       horizontal_mirror="false"
       vertical_mirror="false"
       overflow_perspective="false" /><inkscape:path-effect
       effect="envelope"
       id="path-effect481"
       is_visible="true"
       lpeversion="1"
       yy="true"
       xx="true"
       bendpath1="m 38.760857,52.194191 h 7.733366"
       bendpath2="m 46.494223,52.194191 v 2.968175"
       bendpath3="m 38.760857,55.162366 h 7.733366"
       bendpath4="m 38.760857,52.194191 v 2.968175" /><mask
       maskUnits="userSpaceOnUse"
       id="mask6"><path
         id="path6"
         style="display:inline;fill:#ffffff;stroke-width:1.15568;stroke-linecap:square;stroke-miterlimit:1.5;paint-order:fill markers stroke"
         inkscape:label="eye white right"
         d="m 36.46105,34.770922 c -0.462998,0.06312 -0.79927,0.391093 -0.752596,0.804782 0.04666,0.413688 0.300686,0.553637 0.839059,0.527729 0.538368,-0.02592 0.991681,-0.51382 0.973946,-0.816185 -0.01772,-0.302379 -0.597413,-0.579435 -1.060409,-0.516326 z"
         sodipodi:nodetypes="zzzzz" /></mask><mask
       maskUnits="userSpaceOnUse"
       id="mask5"><path
         id="path5-7"
         style="display:inline;fill:#ffffff;stroke-width:1.10381;stroke-linecap:square;stroke-miterlimit:1.5;paint-order:fill markers stroke"
         inkscape:label="eye white left"
         d="m 36.508123,34.724338 c 0.643486,-0.05309 0.889505,0.318799 0.897943,0.651333 0.0085,0.332549 -0.335804,0.643639 -0.812355,0.658536 -0.476549,0.0149 -0.925943,-0.35338 -0.928027,-0.620848 -0.0021,-0.267445 0.300006,-0.643305 0.84244,-0.689081 0.542412,-0.04578 -0.643492,0.05316 -2e-6,6.7e-5 z"
         sodipodi:nodetypes="zzzzzz" /></mask></defs><g
     inkscape:label="Layer 1"
     inkscape:groupmode="layer"
     id="layer1"><path
       sodipodi:type="star"
       style="fill:#a8473f;fill-opacity:1;stroke-width:1.32292;stroke-linecap:round;stroke-linejoin:round"
       id="path4"
       inkscape:flatsided="false"
       sodipodi:sides="30"
       sodipodi:cx="-7.8542433"
       sodipodi:cy="5.8450184"
       sodipodi:r1="95.419617"
       sodipodi:r2="95.419617"
       sodipodi:arg1="0.54764196"
       sodipodi:arg2="0.65236172"
       inkscape:rounded="0.5"
       inkscape:randomized="0.026"
       d="m 75.118904,57.199077 c -2.605764,4.202309 -3.994971,4.973949 -6.937136,8.937397 -2.942166,3.963448 -2.777924,1.572721 -6.257677,5.220979 -3.479753,3.648258 -2.60204,1.481062 -6.339816,4.857953 -3.737775,3.37689 -6.9861,4.324534 -11.032106,7.227032 -4.046006,2.902499 -2.300093,2.007511 -6.743035,4.21305 -4.442942,2.205539 -5.228529,4.765997 -9.836803,6.585366 -4.608274,1.819369 -5.85485,1.034534 -10.627273,2.284212 -4.772423,1.249677 -4.36628,3.848934 -9.213005,4.791014 -4.8467251,0.94207 -4.832487,1.60959 -9.7747057,2.02395 -4.9422182,0.41436 -2.6172677,-1.68298 -7.6554923,-1.92666 -5.038225,-0.24368 -6.586434,-1.564016 -11.566673,-2.169915 -4.980237,-0.605898 -2.726092,-1.370789 -7.628782,-2.572608 -4.90269,-1.20182 -7.50121,1.166712 -12.121383,-0.594438 -4.620172,-1.761149 -3.89061,-1.302672 -8.503082,-3.345359 -4.612472,-2.042687 -6.608736,-0.775246 -10.793789,-3.395374 -4.185052,-2.620127 -3.399394,-2.632637 -7.428302,-5.662961 -4.028907,-3.030324 -0.846434,-6.164582 -4.542276,-9.540315 -3.695842,-3.375733 -5.985812,-3.9844 -9.07635,-7.842246 -3.090539,-3.857846 -0.83332,-3.104657 -3.648017,-7.174205 -2.814696,-4.069548 -6.775526,-1.501112 -9.027155,-5.97288 -2.251628,-4.471769 1.328881,-7.837986 -0.593878,-12.389511 -1.922759,-4.551524 -3.164565,-0.80124 -4.67141,-5.502161 -1.506848,-4.700922 -0.828508,-5.928823 -1.555018,-10.874041 -0.72652,-4.945217 -2.0729,-6.162541 -2.43288,-11.121788 -0.35998,-4.9592464 0.59844,-4.3877541 0.64366,-9.3492199 0.0452,-4.9614654 -3.2292,-7.7395611 -2.55843,-12.67697 0.67077,-4.9374091 3.0692,-4.2389981 4.03699,-9.1485571 0.967792,-4.909558 0.74341,-0.848541 2.370365,-5.541256 1.626952,-4.692716 0.676738,-5.421874 2.880004,-9.97383 2.203266,-4.551955 3.294778,-6.617461 5.829053,-10.861639 2.534275,-4.244178 1.699653,-5.804124 4.785056,-9.720506 3.085402,-3.916383 2.598683,-1.258812 5.9084,-4.995215 3.309717,-3.736405 2.796823,-6.884108 6.689092,-10.045537 3.892268,-3.161429 3.871339,-1.423861 7.954798,-4.321692 4.08346,-2.897832 7.052887,-3.605793 11.437447,-5.953847 4.38456,-2.348053 3.339192,-2.487423 7.95229,-4.528886 4.613099,-2.041462 6.078544,-1.554628 10.812895,-2.989278 4.734351,-1.434651 6.266641,1.884491 11.179384,1.10959 4.912744,-0.774902 4.353428,-4.539906 9.26116,-5.050559 4.9077309,-0.510652 2.944871,3.086798 7.9228208,3.118062 4.97795012,0.03126 4.7035061,0.527411 9.5791019,1.325541 4.8755953,0.798129 8.0580423,-1.90716 12.8580113,-0.648415 4.799969,1.258744 4.504986,1.096204 9.20757,2.880287 4.702584,1.784083 3.931044,1.911641 8.503162,3.894756 4.572118,1.983115 4.453333,3.51339 8.745781,6.071343 4.292448,2.557953 3.464386,2.57798 7.428302,5.662962 3.963916,3.084981 2.84046,1.048418 6.508496,4.418482 3.668036,3.370064 3.493845,2.631723 6.842722,6.261462 3.348878,3.62974 2.801605,4.224116 5.695865,8.361263 2.89426,4.137146 4.664905,4.186778 6.979147,8.648849 2.314242,4.462073 2.814764,7.512987 4.815397,12.050435 2.000632,4.537447 -1.427433,4.911495 0.182562,9.611658 1.609996,4.700163 3.191772,4.870329 4.056139,9.7831966 0.864366,4.9128671 0.250063,2.6506181 0.548283,7.667051 0.29822,5.0164335 -0.688841,3.0999515 -0.905959,8.0370667 -0.217118,4.9371147 3.502185,7.1235677 2.73902,12.0926567 -0.763165,4.969089 -2.893368,5.038726 -4.22261,9.853624 -1.329243,4.814898 -0.654534,3.401495 -2.452151,8.057213 -1.797617,4.655718 1.418204,4.397682 -0.564588,9.038657 -1.982791,4.640974 -3.037429,7.602453 -5.643192,11.804761 z"
       inkscape:transform-center-x="-0.30063674"
       inkscape:transform-center-y="-0.23604494"
       transform="matrix(1,0,0,0.74465729,58.121044,38.025129)" /><path
       sodipodi:type="star"
       style="fill:#943a3d;fill-opacity:1;stroke-width:1.32292;stroke-linecap:round;stroke-linejoin:round"
       id="path3"
       inkscape:flatsided="false"
       sodipodi:sides="30"
       sodipodi:cx="6.5870519"
       sodipodi:cy="6.0704203"
       sodipodi:r1="45.065735"
       sodipodi:r2="45.065735"
       sodipodi:arg1="0.34803643"
       sodipodi:arg2="0.45275618"
       inkscape:rounded="0.5"
       inkscape:randomized="0.026"
       d="m 49.9843,21.317902 c -0.847102,2.215744 -1.005041,2.57702 -2.083817,4.697866 -1.078776,2.120846 -2.592119,1.937652 -3.795264,3.996169 -1.203145,2.058516 -1.616753,2.444103 -3.04751,4.327135 -1.430758,1.883033 -1.005549,2.135857 -2.583769,3.84725 -1.57822,1.711394 -0.268568,0.328675 -2.031829,1.905436 -1.763262,1.57676 -3.148799,1.47566 -5.156902,2.735215 -2.008103,1.259555 -1.298928,1.044417 -3.385052,2.202309 -2.086123,1.157892 -2.10179,0.870884 -4.294281,1.68646 -2.19249,0.815575 -2.47397,2.984046 -4.728512,3.586227 -2.254543,0.60218 -3.27815,-0.124124 -5.58887,0.319882 -2.31072,0.444005 -2.006265,0.979624 -4.3262549,1.234877 C 6.6422493,52.111982 8.017832,50.173733 5.6677147,50.057735 3.3175977,49.941737 3.6002909,50.326488 1.2621231,49.906195 -1.076045,49.485902 -2.925438,49.619427 -5.2086912,49.142573 c -2.2832531,-0.476854 -0.5841075,-0.880065 -2.8299009,-1.692844 -2.2457939,-0.812779 -2.8231409,1.32854 -4.9241059,0.254753 -2.100965,-1.073787 -2.603009,-1.970168 -4.581573,-3.258613 -1.978565,-1.288445 -2.732055,-0.347723 -4.655409,-1.725613 -1.923354,-1.37789 -0.275232,-3.462539 -2.037392,-5.041903 -1.76216,-1.579363 -2.819111,-0.934808 -4.372958,-2.747795 -1.553847,-1.812987 -0.274248,-2.247841 -1.59906,-4.209337 -1.324812,-1.961495 -1.281144,-1.333655 -2.424079,-3.418473 -1.142934,-2.084817 -0.707656,-1.98603 -1.52063,-4.169605 -0.812973,-2.183576 -1.069984,-2.374101 -1.779465,-4.62566 -0.70948,-2.251558 -2.660238,-1.297736 -2.978904,-3.647874 -0.318667,-2.350139 -0.354802,-2.160061 -0.508779,-4.538571 -0.153976,-2.3785098 1.816044,-4.3940133 1.854629,-6.7559756 0.03859,-2.3619625 -0.622355,-1.2156876 -0.365913,-3.55748615 0.256442,-2.34179835 0.841387,-3.62804305 1.364108,-5.91485635 0.522722,-2.2868135 -0.154947,-0.5811423 0.636923,-2.8319626 0.79187,-2.2508203 0.310533,-1.6372223 1.273851,-3.8125763 0.963317,-2.175354 1.255239,-2.734762 2.429183,-4.785641 1.173944,-2.050879 1.424215,-2.347564 2.88255,-4.22051 1.458336,-1.872946 0.938507,-2.170201 2.58377,-3.84725 1.645262,-1.677048 2.532899,-0.675991 4.372835,-2.107879 1.839936,-1.431888 1.344198,-1.999285 3.291903,-3.374937 1.947704,-1.375653 3.216159,-1.711323 5.291052,-2.807879 2.074893,-1.096556 2.199199,-2.086786 4.4206133,-2.948243 2.2214142,-0.861456 1.0329838,0.868467 3.2727565,0.186385 2.2397729,-0.682081 2.6529594,-1.798614 5.0099185,-2.16811 2.3569588,-0.369496 3.058457,0.215087 5.3836247,-0.02637 2.325168,-0.241458 2.1287094,-0.543047 4.4758523,-0.540671 2.3471427,0.0024 1.036793,0.839317 3.3505957,1.229421 2.313803,0.390104 2.634649,0.09637 4.939849,0.599725 2.3052,0.503354 2.827868,-0.422674 5.04695,0.351734 2.219082,0.774409 1.717716,1.920782 3.800605,2.988103 2.082889,1.06732 3.023101,0.985393 5.055169,2.214003 2.032067,1.22861 1.131486,0.361065 2.961895,1.870786 1.83041,1.509721 2.711094,1.013261 4.38081,2.698484 1.669716,1.685223 0.621394,1.832456 2.153461,3.626987 1.532066,1.794531 2.591171,3.408256 3.983479,5.307463 1.392309,1.899207 1.670717,0.81661 2.735164,2.942407 1.064448,2.125798 0.250821,2.802723 1.044623,5.011772 0.793802,2.2090496 1.148922,2.3328021 1.779465,4.6256593 0.630544,2.2928571 0.439246,0.7368853 0.797997,3.0793306 0.358751,2.34244557 0.172584,3.6631425 0.384858,6.0027972 0.212274,2.3396545 0.727567,1.2496271 0.617571,3.6126929 -0.109997,2.363066 0.671071,3.092994 0.363464,5.438986 -0.307608,2.345991 -0.759155,3.022384 -1.402661,5.278649 -0.643506,2.256264 0.0814,1.416082 -0.765704,3.631827 z"
       inkscape:transform-center-x="0.013328223"
       inkscape:transform-center-y="-0.3115669"
       transform="matrix(1.4503922,0,0,0.95988774,40.774813,36.348374)" /><path
       sodipodi:type="star"
       style="fill:#823238;fill-opacity:1;stroke-width:1.32292;stroke-linecap:round;stroke-linejoin:round"
       id="path2"
       inkscape:flatsided="false"
       sodipodi:sides="30"
       sodipodi:cx="9.557683"
       sodipodi:cy="22.085999"
       sodipodi:r1="31.681616"
       sodipodi:r2="31.681616"
       sodipodi:arg1="-0.048940481"
       sodipodi:arg2="0.055779274"
       inkscape:rounded="0.5"
       inkscape:randomized="0.026"
       d="m 41.13323,21.289478 c 0.06003,1.671317 0.618609,0.654644 0.576077,2.291121 -0.04253,1.636477 -0.490395,2.147789 -0.796807,3.763894 -0.306411,1.616104 -0.555539,1.146319 -0.992922,2.73275 -0.437383,1.586431 -0.531967,2.157972 -1.13661,3.68354 -0.604643,1.525567 -0.31078,0.719324 -1.070944,2.204569 -0.760164,1.485245 -0.9601,2.563181 -1.892737,3.947714 -0.932636,1.384532 0.08064,1.012266 -0.999558,2.275949 -1.080197,1.263683 -2.267889,1.829147 -3.404225,3.009747 -1.136336,1.180601 -1.098934,0.555309 -2.392339,1.579921 -1.293404,1.024611 -0.329456,1.621519 -1.6922,2.54604 -1.362744,0.924521 -1.513677,1.051889 -3.007609,1.783224 -1.493932,0.731335 -1.381964,0.0885 -2.948714,0.654078 -1.566751,0.565578 -2.6337,1.272399 -4.256859,1.657546 -1.62316,0.385147 -1.187468,-0.02564 -2.817575,0.197252 -1.630107,0.222894 -1.120074,-0.350398 -2.760985,-0.334955 C 9.8983125,53.297311 8.7934514,53.172083 7.1610951,53.044739 5.5287388,52.917396 6.3303487,53.82139 4.6676203,53.596703 3.004892,53.372016 2.8298329,52.592262 1.2200512,52.134532 -0.38973046,51.676803 -0.86166848,52.367619 -2.4112644,51.832677 -3.9608603,51.297735 -3.7175021,50.419351 -5.2091223,49.663411 -6.7007425,48.90747 -5.6271016,49.13853 -7.056551,48.268469 c -1.4294495,-0.870062 -2.3039375,-1.370206 -3.594571,-2.424375 -1.290634,-1.054169 -0.541299,-0.837471 -1.705332,-2.018017 -1.164033,-1.180546 -1.917807,-1.12778 -2.948476,-2.451813 -1.030669,-1.324033 -0.442853,-0.07503 -1.357073,-1.444037 -0.914221,-1.369005 -0.866158,-2.627379 -1.665067,-4.085256 -0.79891,-1.457877 -0.753585,-0.783568 -1.31804,-2.357776 -0.564455,-1.574208 -0.400684,-1.445089 -0.764923,-3.053141 -0.364239,-1.608052 -1.867069,-2.071627 -2.055963,-3.708993 -0.188894,-1.637366 0.738021,-1.104382 0.603496,-2.754722 -0.134524,-1.650341 -0.556,-1.539189 -0.487264,-3.178166 0.06874,-1.638978 0.64074,-1.353557 0.88562,-3.003495 0.244879,-1.649938 0.44072,-1.994229 0.842426,-3.623876 0.401706,-1.629647 0.543399,-2.006217 1.198294,-3.552813 0.654894,-1.5465955 0.258261,-0.7661912 1.070943,-2.2045689 0.812683,-1.4383778 0.866097,-1.5678961 1.80562,-2.9183497 0.939523,-1.3504536 -0.273276,-1.4247649 0.752038,-2.7132633 1.025315,-1.2884984 2.443112,-1.7152815 3.648354,-2.85707304 1.205243,-1.14179156 1.235679,-0.69139331 2.5699639,-1.70656556 1.3342847,-1.0151722 0.3071654,-2.2544365 1.6650716,-3.175713 1.3579062,-0.9212764 1.4187676,-0.043212 2.9204918,-0.7538594 1.5017241,-0.7106478 2.0547773,-1.6943163 3.5998778,-2.3145576 1.54510046,-0.6202414 1.01440238,0.4584977 2.6094149,-0.010101 1.5950125,-0.4685992 1.6189358,-1.3964142 3.2410241,-1.676347 1.6220883,-0.2799328 2.6649634,-0.3200131 4.3196163,-0.4254441 1.6546526,-0.105431 1.0718548,0.139906 2.7306846,0.2371286 1.658829,0.097222 1.604733,0.4003214 3.236868,0.6624529 1.632136,0.2621315 0.85131,-0.4186732 2.458351,-0.04724 1.607041,0.3714329 2.922996,1.4639943 4.449971,2.0889795 1.526975,0.6249853 1.312782,-0.3960009 2.796162,0.3795023 1.483381,0.7755033 0.479735,2.0794325 1.847429,3.0423861 1.367694,0.9629535 2.393011,-0.5031461 3.710513,0.5195588 1.317502,1.0227049 0.231025,1.3963367 1.370695,2.61006724 1.13967,1.21373052 2.579976,1.40787791 3.60303,2.72341746 1.023055,1.3155396 0.818495,1.453233 1.691764,2.8642569 0.873268,1.4110239 0.170758,1.5032589 0.925038,2.9730656 0.75428,1.4698066 0.849452,1.4241489 1.405157,2.975856 0.555704,1.551706 0.341758,2.234217 0.793747,3.825133 0.451989,1.590916 0.781007,1.577345 1.034249,3.208605 0.253243,1.63126 0.240545,1.698846 0.30058,3.370163 z"
       inkscape:transform-center-x="-0.24652724"
       inkscape:transform-center-y="0.14465199"
       transform="matrix(1.591442,0,0,0.95910924,37.584096,22.601484)" /><path
       sodipodi:type="star"
       style="display:inline;fill:#76272b;fill-opacity:1;stroke-width:1.32292;stroke-linecap:round;stroke-linejoin:round"
       id="path1"
       inkscape:flatsided="false"
       sodipodi:sides="30"
       sodipodi:cx="30.222942"
       sodipodi:cy="35.647572"
       sodipodi:r1="22.272902"
       sodipodi:r2="22.272902"
       sodipodi:arg1="0.2520109"
       sodipodi:arg2="0.35673066"
       inkscape:rounded="0.5"
       inkscape:randomized="0.026"
       d="m 51.646182,40.856037 c -0.244222,1.129115 -0.383232,1.853699 -0.779687,2.943853 -0.396455,1.090154 0.0359,0.601617 -0.448129,1.66267 -0.484031,1.061054 -0.667663,1.015336 -1.283441,2.005071 -0.615778,0.989735 -0.84442,1.389272 -1.591875,2.299879 -0.747454,0.910607 -0.354998,0.337392 -1.141476,1.199941 -0.786479,0.862549 -0.919434,1.623118 -1.828676,2.363148 -0.909242,0.740031 -1.295152,0.704629 -2.289129,1.319479 -0.993978,0.614849 -0.190741,-0.01502 -1.232062,0.514849 -1.04132,0.529874 -1.105853,0.517581 -2.190602,0.903453 -1.084748,0.385871 -0.963931,0.610575 -2.087789,0.927815 -1.123858,0.317241 -2.024908,0.35247 -3.164635,0.555356 -1.139728,0.202885 -1.215128,-0.137465 -2.368755,-0.0814 -1.153627,0.05606 -1.217075,0.187468 -2.39653,0.155772 -1.179456,-0.0317 -0.484948,-0.351614 -1.637047,-0.489973 -1.152099,-0.13836 -1.642233,-0.17271 -2.766951,-0.480756 -1.124717,-0.308046 -0.807834,0.554619 -1.882029,0.132951 -1.074196,-0.421668 -0.752977,-1.075691 -1.780972,-1.600847 -1.027994,-0.525157 -1.848733,-0.32587 -2.81896,-0.949563 -0.970228,-0.623694 -0.856768,0.144189 -1.750909,-0.615053 -0.894142,-0.759243 -0.583948,-1.655183 -1.432864,-2.432263 -0.848916,-0.77708 -0.58168,-0.251007 -1.351632,-1.141272 C 12.652079,49.158881 12.02917,48.917444 11.410095,47.916748 10.79102,46.916052 10.86135,47.094494 10.297006,46.06745 9.7326626,45.040406 9.5942289,44.753118 9.1849536,43.665924 8.7756782,42.57873 8.6400153,42.354091 8.3223064,41.242537 8.0045976,40.130984 8.9597692,40.834206 8.7891913,39.665995 8.6186133,38.497784 8.1944826,38.412411 8.0767022,37.241041 7.9589218,36.069671 7.6536564,35.27532 7.7104498,34.123066 c 0.056793,-1.152255 0.1663213,-0.906962 0.377256,-2.053084 0.2109346,-1.146122 0.1703578,-1.355759 0.4387397,-2.501179 0.2683819,-1.14542 0.3376132,-0.100081 0.7184231,-1.190236 0.3808099,-1.090154 0.019255,-1.200751 0.5093926,-2.258097 0.4901368,-1.057346 0.6283268,-1.040496 1.2834418,-2.00507 0.655115,-0.964574 0.993734,-1.552434 1.746814,-2.435111 0.753081,-0.882678 1.014168,-0.599537 1.840674,-1.419072 0.826507,-0.819536 0.09905,-1.313469 1.017885,-2.045122 0.918835,-0.731654 1.254533,-0.07559 2.226692,-0.695866 0.972159,-0.620275 1.369315,-0.738046 2.409325,-1.230366 1.040009,-0.49232 1.117251,-0.371636 2.191794,-0.803398 1.074543,-0.431763 0.911363,-1.247025 2.024159,-1.562448 1.112796,-0.315424 0.96961,-0.364906 2.132512,-0.544336 1.162901,-0.17943 1.30239,-0.278662 2.477945,-0.345844 1.175555,-0.06718 1.247359,-0.244349 2.396531,-0.155772 1.149171,0.08858 0.372796,0.707578 1.527856,0.917218 1.155059,0.209639 1.576246,-0.322477 2.703339,-0.02564 1.127094,0.296841 1.43211,0.980421 2.51879,1.429722 1.08668,0.449301 1.253525,-0.496517 2.302402,0.03817 1.048877,0.534691 0.632819,0.947158 1.641679,1.536839 1.00886,0.589682 1.549806,0.803581 2.450107,1.554114 0.9003,0.750532 0.774178,0.873219 1.606894,1.709754 0.832717,0.836535 -0.03861,0.904579 0.71368,1.794927 0.752287,0.890348 1.164673,0.716521 1.795733,1.704865 0.631061,0.988345 0.592127,0.679216 1.11307,1.721058 0.520943,1.041842 0.59607,0.924569 1.049634,1.995188 0.453565,1.07062 0.656625,0.778482 0.926277,1.899828 0.269651,1.121346 0.397989,2.106858 0.627676,3.258292 0.229688,1.151434 -0.564092,0.690536 -0.464792,1.854039 0.0993,1.163503 0.56227,0.838242 0.491145,1.998991 -0.07113,1.160748 0.38955,2.057943 0.197086,3.209418 -0.192464,1.151475 -0.812205,0.252065 -1.056428,1.381181 z"
       transform="matrix(1.4965993,0,0,0.77478379,10.381826,15.94847)" /><g
       id="g2"
       inkscape:label="compass"
       style="stroke:#62252a;stroke-opacity:1"
       transform="translate(9.235441e-5,-8.8402749e-5)"><path
         id="rect2"
         style="fill:#fdb88c;stroke:#62252a;stroke-width:0.79375;stroke-linecap:round;stroke-linejoin:round;stroke-dasharray:none;stroke-opacity:1"
         d="M 16.627453,35.856307 68.013434,67.979596 Z"
         sodipodi:nodetypes="ccc" /><path
         id="path7"
         style="fill:#fdb88c;stroke:#62252a;stroke-width:0.79375;stroke-linecap:round;stroke-linejoin:round;stroke-dasharray:none;stroke-opacity:1"
         d="M 59.268124,34.888141 16.977501,68.108236 Z"
         sodipodi:nodetypes="ccc" /><path
         id="path8"
         style="fill:#fdb88c;stroke:#62252a;stroke-width:0.79375;stroke-linecap:round;stroke-linejoin:round;stroke-dasharray:none;stroke-opacity:1"
         d="m 16.627453,35.856307 1.567976,3.126778 z"
         sodipodi:nodetypes="ccc" /><path
         id="path9"
         style="fill:#fdb88c;stroke:#62252a;stroke-width:0.79375;stroke-linecap:round;stroke-linejoin:round;stroke-dasharray:none;stroke-opacity:1"
         d="m 16.627453,35.856307 3.691362,-0.537775 z"
         sodipodi:nodetypes="ccc" /><path
         id="path10"
         style="fill:#fdb88c;stroke:#62252a;stroke-width:0.79375;stroke-linecap:round;stroke-linejoin:round;stroke-dasharray:none;stroke-opacity:1"
         d="M 16.878606,34.417885 13.126702,32.167702 Z"
         sodipodi:nodetypes="ccc" /><path
         id="path11"
         style="fill:#fdb88c;stroke:#62252a;stroke-width:0.79375;stroke-linecap:round;stroke-linejoin:round;stroke-dasharray:none;stroke-opacity:1"
         d="m 16.878606,34.417885 -6.331932,0.307013 z"
         sodipodi:nodetypes="ccc" /><path
         id="path12"
         style="fill:#fdb88c;stroke:#62252a;stroke-width:0.79375;stroke-linecap:round;stroke-linejoin:round;stroke-dasharray:none;stroke-opacity:1"
         d="M 14.618228,37.066409 10.546674,34.724898 Z"
         sodipodi:nodetypes="ccc" /></g><g
       id="g474"
       inkscape:label="trunk"><path
         id="rect4"
         style="fill:#cd8f2c;stroke-width:1.32292;stroke-linecap:round;stroke-linejoin:round"
         d="m 54.475974,-3.1441093 c -1.262563,-7.9369057 8.959541,-7.7414487 16.990426,0.554461 8.030885,8.2959095 -2.67402,42.1539603 -1.194154,48.3098013 1.479867,6.155842 -20.638293,1.171993 -23.32174,1.07179 -2.683448,-0.100203 0.70191,-0.926982 4.955292,-5.801885 4.253382,-4.874903 3.83274,-36.1972622 2.570176,-44.1341673 z"
         sodipodi:nodetypes="zzzzzz" /><path
         id="rect474"
         style="fill:#a2652b;stroke-width:1.32292;stroke-linecap:round;stroke-linejoin:round"
         d="m 60.946045,-1.2651553 h 4.429429 l -1.582578,44.9201363 -6.210332,0.821956 c 0,0 1.961379,-1.965124 -0.360196,-2.939091 -2.321575,-0.973967 -4.681843,1.382761 -4.681843,1.382761 l -1.954976,-0.407799 c 0,0 6.088766,-4.12023 7.617948,-9.410184 1.529182,-5.289953 2.742548,-34.3677793 2.742548,-34.3677793 z"
         sodipodi:nodetypes="cccczcczc" /><path
         id="rect475"
         style="fill:#78421e;stroke-width:1.38995;stroke-linecap:round;stroke-linejoin:round"
         d="m 62.756946,-0.27867107 5.799354,-0.04566 -0.379639,43.79665907 -4.840406,0.502307 C 64.034583,32.725829 63.217669,11.086036 62.756946,-0.27867107 Z"
         sodipodi:nodetypes="ccccc" /></g><g
       id="g5"
       inkscape:label="ground leaves"><circle
         style="fill:#76272b;fill-opacity:1;stroke-width:1.32292;stroke-linecap:round;stroke-linejoin:round"
         id="use59"
         cx="15.019526"
         cy="66.959251"
         r="1.6210793"
         transform="rotate(-33.347149)" /><circle
         style="fill:#76272b;fill-opacity:1;stroke-width:1.32292;stroke-linecap:round;stroke-linejoin:round"
         id="use60"
         cx="63.688347"
         cy="32.314301"
         r="1.6210793"
         transform="rotate(14.610309)" /><circle
         style="fill:#76272b;fill-opacity:1;stroke-width:1.32292;stroke-linecap:round;stroke-linejoin:round"
         id="use61"
         cx="47.90448"
         cy="52.795341"
         r="1.6210793"
         transform="rotate(-8.2296549)" /><circle
         style="fill:#76272b;fill-opacity:1;stroke-width:1.32292;stroke-linecap:round;stroke-linejoin:round"
         id="use62"
         cx="70.629768"
         cy="19.132719"
         r="1.6210793"
         transform="rotate(23.753755)" /><circle
         style="fill:#76272b;fill-opacity:1;stroke-width:1.32292;stroke-linecap:round;stroke-linejoin:round"
         id="use63"
         cx="69.130119"
         cy="29.547693"
         r="1.6210793"
         transform="rotate(16.494921)" /><circle
         style="fill:#76272b;fill-opacity:1;stroke-width:1.32292;stroke-linecap:round;stroke-linejoin:round"
         id="use64"
         cx="47.725903"
         cy="59.86821"
         r="1.6210793"
         transform="rotate(-12.801505)" /><circle
         style="fill:#76272b;fill-opacity:1;stroke-width:1.32292;stroke-linecap:round;stroke-linejoin:round"
         id="use65"
         cx="54.982056"
         cy="50.529125"
         r="1.6210793"
         transform="rotate(-4.802229)" /><circle
         style="fill:#76272b;fill-opacity:1;stroke-width:1.32292;stroke-linecap:round;stroke-linejoin:round"
         id="use66"
         cx="62.698315"
         cy="44.058846"
         r="1.6210793"
         transform="rotate(2.611562)" /><circle
         style="fill:#76272b;fill-opacity:1;stroke-width:1.32292;stroke-linecap:round;stroke-linejoin:round"
         id="use67"
         cx="44.61729"
         cy="62.577339"
         r="1.6210793"
         transform="rotate(-16.410042)" /><circle
         style="fill:#76272b;fill-opacity:1;stroke-width:1.32292;stroke-linecap:round;stroke-linejoin:round"
         id="use68"
         cx="74.623573"
         cy="14.159913"
         r="1.6210793"
         transform="rotate(26.058237)" /><circle
         style="fill:#76272b;fill-opacity:1;stroke-width:1.32292;stroke-linecap:round;stroke-linejoin:round"
         id="use69"
         cx="73.423279"
         cy="34.449875"
         r="1.6210793"
         transform="rotate(10.556939)" /><circle
         style="fill:#76272b;fill-opacity:1;stroke-width:1.32292;stroke-linecap:round;stroke-linejoin:round"
         id="use70"
         cx="47.916763"
         cy="64.780579"
         r="1.6210793"
         transform="rotate(-18.619575)" /><circle
         style="fill:#76272b;fill-opacity:1;stroke-width:1.32292;stroke-linecap:round;stroke-linejoin:round"
         id="use71"
         cx="77.977463"
         cy="34.519634"
         r="1.6210793"
         transform="rotate(11.295843)" /><circle
         style="fill:#76272b;fill-opacity:1;stroke-width:1.32292;stroke-linecap:round;stroke-linejoin:round"
         id="use72"
         cx="64.446304"
         cy="52.586956"
         r="1.6210793"
         transform="rotate(-5.0980465)" /><circle
         style="fill:#76272b;fill-opacity:1;stroke-width:1.32292;stroke-linecap:round;stroke-linejoin:round"
         id="use73"
         cx="75.103676"
         cy="39.552116"
         r="1.6210793"
         transform="rotate(5.6618805)" /><circle
         style="fill:#76272b;fill-opacity:1;stroke-width:1.32292;stroke-linecap:round;stroke-linejoin:round"
         id="use74"
         cx="50.992931"
         cy="66.629059"
         r="1.6210793"
         transform="rotate(-18.981037)" /><circle
         style="fill:#76272b;fill-opacity:1;stroke-width:1.32292;stroke-linecap:round;stroke-linejoin:round"
         id="use75"
         cx="59.492683"
         cy="49.58289"
         r="1.6210793"
         transform="rotate(-3.915275)" /><circle
         style="fill:#76272b;fill-opacity:1;stroke-width:1.32292;stroke-linecap:round;stroke-linejoin:round"
         id="use76"
         cx="24.086485"
         cy="75.293633"
         r="1.6210793"
         transform="rotate(-33.971902)" /><circle
         style="fill:#76272b;fill-opacity:1;stroke-width:1.32292;stroke-linecap:round;stroke-linejoin:round"
         id="use77"
         cx="47.641533"
         cy="58.677608"
         r="1.6210793"
         transform="rotate(-13.944923)" /><circle
         style="fill:#76272b;fill-opacity:1;stroke-width:1.32292;stroke-linecap:round;stroke-linejoin:round"
         id="use78"
         cx="51.08667"
         cy="54.457844"
         r="1.6210793"
         transform="rotate(-7.8797857)" /><circle
         style="fill:#76272b;fill-opacity:1;stroke-width:1.32292;stroke-linecap:round;stroke-linejoin:round"
         id="use79"
         cx="63.611618"
         cy="37.763027"
         r="1.6210793"
         transform="rotate(6.5224313)" /><circle
         style="fill:#76272b;fill-opacity:1;stroke-width:1.32292;stroke-linecap:round;stroke-linejoin:round"
         id="use80"
         cx="54.036823"
         cy="48.694141"
         r="1.6210793"
         transform="rotate(-1.4535761)" /><circle
         style="fill:#76272b;fill-opacity:1;stroke-width:1.32292;stroke-linecap:round;stroke-linejoin:round"
         id="use81"
         cx="15.96648"
         cy="64.980614"
         r="1.6210793"
         transform="rotate(-32.885506)" /><circle
         style="fill:#76272b;fill-opacity:1;stroke-width:1.32292;stroke-linecap:round;stroke-linejoin:round"
         id="use82"
         cx="58.408195"
         cy="39.714249"
         r="1.6210793"
         transform="rotate(7.6350298)" /><circle
         style="fill:#76272b;fill-opacity:1;stroke-width:1.32292;stroke-linecap:round;stroke-linejoin:round"
         id="use83"
         cx="38.458931"
         cy="56.66515"
         r="1.6210793"
         transform="rotate(-14.947945)" /><circle
         style="fill:#76272b;fill-opacity:1;stroke-width:1.32292;stroke-linecap:round;stroke-linejoin:round"
         id="use84"
         cx="53.009422"
         cy="42.429375"
         r="1.6210793"
         transform="rotate(3.2729399)" /><circle
         style="fill:#76272b;fill-opacity:1;stroke-width:1.32292;stroke-linecap:round;stroke-linejoin:round"
         id="use88"
         cx="66.712311"
         cy="22.552401"
         r="1.6210793"
         transform="rotate(21.927402)" /><circle
         style="fill:#76272b;fill-opacity:1;stroke-width:1.32292;stroke-linecap:round;stroke-linejoin:round"
         id="use89"
         cx="28.083839"
         cy="64.922516"
         r="1.6210793"
         transform="rotate(-27.127289)" /><circle
         style="fill:#76272b;fill-opacity:1;stroke-width:1.32292;stroke-linecap:round;stroke-linejoin:round"
         id="use90"
         cx="41.59745"
         cy="58.85154"
         r="1.6210793"
         transform="rotate(-16.580292)" /><circle
         style="fill:#76272b;fill-opacity:1;stroke-width:1.32292;stroke-linecap:round;stroke-linejoin:round"
         id="use91"
         cx="46.351036"
         cy="52.099174"
         r="1.6210793"
         transform="rotate(-6.9717333)" /><circle
         style="fill:#76272b;fill-opacity:1;stroke-width:1.32292;stroke-linecap:round;stroke-linejoin:round"
         id="use92"
         cx="17.589787"
         cy="66.969536"
         r="1.6210793"
         transform="rotate(-35.493361)" /><circle
         style="fill:#76272b;fill-opacity:1;stroke-width:1.32292;stroke-linecap:round;stroke-linejoin:round"
         id="use96"
         cx="16.066338"
         cy="64.591446"
         r="1.6210793"
         transform="rotate(-31.267449)" /><circle
         style="fill:#76272b;fill-opacity:1;stroke-width:1.32292;stroke-linecap:round;stroke-linejoin:round"
         id="use98"
         cx="65.831581"
         cy="13.001611"
         r="1.6210793"
         transform="rotate(31.267983)" /><circle
         style="fill:#76272b;fill-opacity:1;stroke-width:1.32292;stroke-linecap:round;stroke-linejoin:round"
         id="use103"
         cx="62.234406"
         cy="27.007057"
         r="1.6210793"
         transform="rotate(20.859995)" /><circle
         style="fill:#76272b;fill-opacity:1;stroke-width:1.32292;stroke-linecap:round;stroke-linejoin:round"
         id="use104"
         cx="54.778439"
         cy="43.201782"
         r="1.6210793"
         transform="rotate(4.2684849)" /><circle
         style="fill:#76272b;fill-opacity:1;stroke-width:1.32292;stroke-linecap:round;stroke-linejoin:round"
         id="use105"
         cx="21.512056"
         cy="67.437866"
         r="1.6210793"
         transform="rotate(-30.523038)" /><circle
         style="fill:#76272b;fill-opacity:1;stroke-width:1.32292;stroke-linecap:round;stroke-linejoin:round"
         id="use106"
         cx="57.229862"
         cy="52.96228"
         r="1.6210793"
         transform="rotate(-5.3813694)" /><circle
         style="fill:#76272b;fill-opacity:1;stroke-width:1.32292;stroke-linecap:round;stroke-linejoin:round"
         id="use107"
         cx="30.502039"
         cy="73.378952"
         r="1.6210793"
         transform="rotate(-30.872316)" /><circle
         style="fill:#76272b;fill-opacity:1;stroke-width:1.32292;stroke-linecap:round;stroke-linejoin:round"
         id="use108"
         cx="72.466248"
         cy="38.844688"
         r="1.6210793"
         transform="rotate(8.1153674)" /><circle
         style="fill:#76272b;fill-opacity:1;stroke-width:1.32292;stroke-linecap:round;stroke-linejoin:round"
         id="use109"
         cx="37.492958"
         cy="75.150238"
         r="1.6210793"
         transform="rotate(-26.895435)" /><circle
         style="fill:#76272b;fill-opacity:1;stroke-width:1.32292;stroke-linecap:round;stroke-linejoin:round"
         id="use110"
         cx="60.09481"
         cy="54.398155"
         r="1.6210793"
         transform="rotate(-6.3045414)" /><circle
         style="fill:#76272b;fill-opacity:1;stroke-width:1.32292;stroke-linecap:round;stroke-linejoin:round"
         id="use112"
         cx="38.163376"
         cy="55.54517"
         r="1.6210793"
         transform="rotate(-14.759015)" /><circle
         style="fill:#76272b;fill-opacity:1;stroke-width:1.32292;stroke-linecap:round;stroke-linejoin:round"
         id="use115"
         cx="63.212616"
         cy="23.648781"
         r="1.6210793"
         transform="rotate(19.532)" /><circle
         style="fill:#76272b;fill-opacity:1;stroke-width:1.32292;stroke-linecap:round;stroke-linejoin:round"
         id="use116"
         cx="66.724503"
         cy="7.7633629"
         r="1.6210793"
         transform="rotate(34.98705)" /><circle
         style="fill:#76272b;fill-opacity:1;stroke-width:1.32292;stroke-linecap:round;stroke-linejoin:round"
         id="use118"
         cx="50.38324"
         cy="49.513271"
         r="1.6210793"
         transform="rotate(-4.7926753)" /><circle
         style="fill:#76272b;fill-opacity:1;stroke-width:1.32292;stroke-linecap:round;stroke-linejoin:round"
         id="use119"
         cx="24.783998"
         cy="66.178185"
         r="1.6210793"
         transform="rotate(-30.647886)" /><circle
         style="fill:#76272b;fill-opacity:1;stroke-width:1.32292;stroke-linecap:round;stroke-linejoin:round"
         id="use120"
         cx="68.972626"
         cy="42.082108"
         r="1.6210793"
         transform="rotate(2.9965508)" /><circle
         style="fill:#76272b;fill-opacity:1;stroke-width:1.32292;stroke-linecap:round;stroke-linejoin:round"
         id="use121"
         cx="46.587772"
         cy="65.797218"
         r="1.6210793"
         transform="rotate(-20.42639)" /><circle
         style="fill:#76272b;fill-opacity:1;stroke-width:1.32292;stroke-linecap:round;stroke-linejoin:round"
         id="use122"
         cx="49.630627"
         cy="61.987816"
         r="1.6210793"
         transform="rotate(-15.345153)" /><circle
         style="fill:#76272b;fill-opacity:1;stroke-width:1.32292;stroke-linecap:round;stroke-linejoin:round"
         id="use123"
         cx="28.140049"
         cy="75.863045"
         r="1.6210793"
         transform="rotate(-33.441118)" /><circle
         style="fill:#76272b;fill-opacity:1;stroke-width:1.32292;stroke-linecap:round;stroke-linejoin:round"
         id="use124"
         cx="73.60556"
         cy="34.514549"
         r="1.6210793"
         transform="rotate(10.564134)" /><circle
         style="fill:#76272b;fill-opacity:1;stroke-width:1.32292;stroke-linecap:round;stroke-linejoin:round"
         id="use125"
         cx="74.45153"
         cy="35.74596"
         r="1.6210793"
         transform="rotate(9.3495242)" /><circle
         style="fill:#76272b;fill-opacity:1;stroke-width:1.32292;stroke-linecap:round;stroke-linejoin:round"
         id="use126"
         cx="59.415745"
         cy="56.438324"
         r="1.6210793"
         transform="rotate(-10.231429)" /><circle
         style="fill:#76272b;fill-opacity:1;stroke-width:1.32292;stroke-linecap:round;stroke-linejoin:round"
         id="use127"
         cx="76.31974"
         cy="32.256374"
         r="1.6210793"
         transform="rotate(10.341186)" /><circle
         style="fill:#76272b;fill-opacity:1;stroke-width:1.32292;stroke-linecap:round;stroke-linejoin:round"
         id="use128"
         cx="81.914589"
         cy="14.232778"
         r="1.6210793"
         transform="rotate(23.293491)" /><circle
         style="fill:#76272b;fill-opacity:1;stroke-width:1.32292;stroke-linecap:round;stroke-linejoin:round"
         id="use129"
         cx="81.758484"
         cy="6.1158481"
         r="1.6210793"
         transform="rotate(29.402744)" /><circle
         style="fill:#76272b;fill-opacity:1;stroke-width:1.32292;stroke-linecap:round;stroke-linejoin:round"
         id="use130"
         cx="72.093452"
         cy="19.229017"
         r="1.6210793"
         transform="rotate(21.722997)" /><circle
         style="fill:#76272b;fill-opacity:1;stroke-width:1.32292;stroke-linecap:round;stroke-linejoin:round"
         id="use131"
         cx="39.476448"
         cy="63.940193"
         r="1.6210793"
         transform="rotate(-21.821641)" /><circle
         style="fill:#76272b;fill-opacity:1;stroke-width:1.32292;stroke-linecap:round;stroke-linejoin:round"
         id="use132"
         cx="24.562241"
         cy="73.501938"
         r="1.6210793"
         transform="rotate(-34.249456)" /><circle
         style="fill:#76272b;fill-opacity:1;stroke-width:1.32292;stroke-linecap:round;stroke-linejoin:round"
         id="use133"
         cx="73.038078"
         cy="23.782335"
         r="1.6210793"
         transform="rotate(17.46148)" /><circle
         style="fill:#76272b;fill-opacity:1;stroke-width:1.32292;stroke-linecap:round;stroke-linejoin:round"
         id="use134"
         cx="49.270451"
         cy="61.082771"
         r="1.6210793"
         transform="rotate(-17.150112)" /><circle
         style="fill:#76272b;fill-opacity:1;stroke-width:1.32292;stroke-linecap:round;stroke-linejoin:round"
         id="use135"
         cx="69.807625"
         cy="38.242996"
         r="1.6210793"
         transform="rotate(4.790679)" /><circle
         style="fill:#76272b;fill-opacity:1;stroke-width:1.32292;stroke-linecap:round;stroke-linejoin:round"
         id="use136"
         cx="82.504517"
         cy="3.2928772"
         r="1.6210793"
         transform="rotate(29.103788)" /><circle
         style="fill:#76272b;fill-opacity:1;stroke-width:1.32292;stroke-linecap:round;stroke-linejoin:round"
         id="use137"
         cx="78.228607"
         cy="25.000208"
         r="1.6210793"
         transform="rotate(15.290258)" /></g></g><metadata
     id="metadata1"><rdf:RDF><cc:Work
         rdf:about=""><cc:license
           rdf:resource="http://creativecommons.org/licenses/by-nc/4.0/" /></cc:Work><cc:License
         rdf:about="http://creativecommons.org/licenses/by-nc/4.0/"><cc:permits
           rdf:resource="http://creativecommons.org/ns#Reproduction" /><cc:permits
           rdf:resource="http://creativecommons.org/ns#Distribution" /><cc:requires
           rdf:resource="http://creativecommons.org/ns#Notice" /><cc:requires
           rdf:resource="http://creativecommons.org/ns#Attribution" /><cc:prohibits
           rdf:resource="http://creativecommons.org/ns#CommercialUse" /><cc:permits
           rdf:resource="http://creativecommons.org/ns#DerivativeWorks" /></cc:License></rdf:RDF></metadata></svg>
