<?xml version="1.0" encoding="UTF-8" standalone="no"?>
<!-- Created with Inkscape (http://www.inkscape.org/) -->

<svg
   width="256"
   height="256"
   viewBox="0 0 67.733331 67.733333"
   version="1.1"
   id="svg1"
   inkscape:version="1.3 (0e150ed6c4, 2023-07-21)"
   sodipodi:docname="1.svg"
   xml:space="preserve"
   xmlns:inkscape="http://www.inkscape.org/namespaces/inkscape"
   xmlns:sodipodi="http://sodipodi.sourceforge.net/DTD/sodipodi-0.dtd"
   xmlns="http://www.w3.org/2000/svg"
   xmlns:svg="http://www.w3.org/2000/svg"
   xmlns:rdf="http://www.w3.org/1999/02/22-rdf-syntax-ns#"
   xmlns:cc="http://creativecommons.org/ns#"><sodipodi:namedview
     id="namedview1"
     pagecolor="#ffffff"
     bordercolor="#666666"
     borderopacity="1.0"
     inkscape:showpageshadow="2"
     inkscape:pageopacity="0.0"
     inkscape:pagecheckerboard="0"
     inkscape:deskcolor="#d1d1d1"
     inkscape:document-units="px"
     inkscape:zoom="23.17643"
     inkscape:cx="222.92044"
     inkscape:cy="156.25789"
     inkscape:window-width="1920"
     inkscape:window-height="1002"
     inkscape:window-x="1920"
     inkscape:window-y="1080"
     inkscape:window-maximized="1"
     inkscape:current-layer="g5"
     showgrid="false" /><defs
     id="defs1"><inkscape:path-effect
       effect="perspective-envelope"
       up_left_point="39.879629,54.545897"
       up_right_point="46.539887,52.034366"
       down_left_point="39.833967,57.651065"
       down_right_point="46.517056,54.979709"
       id="path-effect482"
       is_visible="true"
       lpeversion="1"
       deform_type="perspective"
       horizontal_mirror="false"
       vertical_mirror="false"
       overflow_perspective="false" /><inkscape:path-effect
       effect="envelope"
       id="path-effect481"
       is_visible="true"
       lpeversion="1"
       yy="true"
       xx="true"
       bendpath1="m 38.760857,52.194191 h 7.733366"
       bendpath2="m 46.494223,52.194191 v 2.968175"
       bendpath3="m 38.760857,55.162366 h 7.733366"
       bendpath4="m 38.760857,52.194191 v 2.968175" /><mask
       maskUnits="userSpaceOnUse"
       id="mask6"><path
         id="path6"
         style="display:inline;fill:#ffffff;stroke-width:1.15568;stroke-linecap:square;stroke-miterlimit:1.5;paint-order:fill markers stroke"
         inkscape:label="eye white right"
         d="m 36.46105,34.770922 c -0.462998,0.06312 -0.79927,0.391093 -0.752596,0.804782 0.04666,0.413688 0.300686,0.553637 0.839059,0.527729 0.538368,-0.02592 0.991681,-0.51382 0.973946,-0.816185 -0.01772,-0.302379 -0.597413,-0.579435 -1.060409,-0.516326 z"
         sodipodi:nodetypes="zzzzz" /></mask><mask
       maskUnits="userSpaceOnUse"
       id="mask5"><path
         id="path5-7"
         style="display:inline;fill:#ffffff;stroke-width:1.10381;stroke-linecap:square;stroke-miterlimit:1.5;paint-order:fill markers stroke"
         inkscape:label="eye white left"
         d="m 36.508123,34.724338 c 0.643486,-0.05309 0.889505,0.318799 0.897943,0.651333 0.0085,0.332549 -0.335804,0.643639 -0.812355,0.658536 -0.476549,0.0149 -0.925943,-0.35338 -0.928027,-0.620848 -0.0021,-0.267445 0.300006,-0.643305 0.84244,-0.689081 0.542412,-0.04578 -0.643492,0.05316 -2e-6,6.7e-5 z"
         sodipodi:nodetypes="zzzzzz" /></mask></defs><g
     inkscape:label="Layer 1"
     inkscape:groupmode="layer"
     id="layer1"><path
       sodipodi:type="star"
       style="fill:#a8473f;fill-opacity:1;stroke-width:1.32292;stroke-linecap:round;stroke-linejoin:round"
       id="path4"
       inkscape:flatsided="false"
       sodipodi:sides="30"
       sodipodi:cx="-7.8542433"
       sodipodi:cy="5.8450184"
       sodipodi:r1="95.419617"
       sodipodi:r2="95.419617"
       sodipodi:arg1="0.54764196"
       sodipodi:arg2="0.65236172"
       inkscape:rounded="0.5"
       inkscape:randomized="0.026"
       d="m 75.118904,57.199077 c -2.605764,4.202309 -3.994971,4.973949 -6.937136,8.937397 -2.942166,3.963448 -2.777924,1.572721 -6.257677,5.220979 -3.479753,3.648258 -2.60204,1.481062 -6.339816,4.857953 -3.737775,3.37689 -6.9861,4.324534 -11.032106,7.227032 -4.046006,2.902499 -2.300093,2.007511 -6.743035,4.21305 -4.442942,2.205539 -5.228529,4.765997 -9.836803,6.585366 -4.608274,1.819369 -5.85485,1.034534 -10.627273,2.284212 -4.772423,1.249677 -4.36628,3.848934 -9.213005,4.791014 -4.8467251,0.94207 -4.832487,1.60959 -9.7747057,2.02395 -4.9422182,0.41436 -2.6172677,-1.68298 -7.6554923,-1.92666 -5.038225,-0.24368 -6.586434,-1.564016 -11.566673,-2.169915 -4.980237,-0.605898 -2.726092,-1.370789 -7.628782,-2.572608 -4.90269,-1.20182 -7.50121,1.166712 -12.121383,-0.594438 -4.620172,-1.761149 -3.89061,-1.302672 -8.503082,-3.345359 -4.612472,-2.042687 -6.608736,-0.775246 -10.793789,-3.395374 -4.185052,-2.620127 -3.399394,-2.632637 -7.428302,-5.662961 -4.028907,-3.030324 -0.846434,-6.164582 -4.542276,-9.540315 -3.695842,-3.375733 -5.985812,-3.9844 -9.07635,-7.842246 -3.090539,-3.857846 -0.83332,-3.104657 -3.648017,-7.174205 -2.814696,-4.069548 -6.775526,-1.501112 -9.027155,-5.97288 -2.251628,-4.471769 1.328881,-7.837986 -0.593878,-12.389511 -1.922759,-4.551524 -3.164565,-0.80124 -4.67141,-5.502161 -1.506848,-4.700922 -0.828508,-5.928823 -1.555018,-10.874041 -0.72652,-4.945217 -2.0729,-6.162541 -2.43288,-11.121788 -0.35998,-4.9592464 0.59844,-4.3877541 0.64366,-9.3492199 0.0452,-4.9614654 -3.2292,-7.7395611 -2.55843,-12.67697 0.67077,-4.9374091 3.0692,-4.2389981 4.03699,-9.1485571 0.967792,-4.909558 0.74341,-0.848541 2.370365,-5.541256 1.626952,-4.692716 0.676738,-5.421874 2.880004,-9.97383 2.203266,-4.551955 3.294778,-6.617461 5.829053,-10.861639 2.534275,-4.244178 1.699653,-5.804124 4.785056,-9.720506 3.085402,-3.916383 2.598683,-1.258812 5.9084,-4.995215 3.309717,-3.736405 2.796823,-6.884108 6.689092,-10.045537 3.892268,-3.161429 3.871339,-1.423861 7.954798,-4.321692 4.08346,-2.897832 7.052887,-3.605793 11.437447,-5.953847 4.38456,-2.348053 3.339192,-2.487423 7.95229,-4.528886 4.613099,-2.041462 6.078544,-1.554628 10.812895,-2.989278 4.734351,-1.434651 6.266641,1.884491 11.179384,1.10959 4.912744,-0.774902 4.353428,-4.539906 9.26116,-5.050559 4.9077309,-0.510652 2.944871,3.086798 7.9228208,3.118062 4.97795012,0.03126 4.7035061,0.527411 9.5791019,1.325541 4.8755953,0.798129 8.0580423,-1.90716 12.8580113,-0.648415 4.799969,1.258744 4.504986,1.096204 9.20757,2.880287 4.702584,1.784083 3.931044,1.911641 8.503162,3.894756 4.572118,1.983115 4.453333,3.51339 8.745781,6.071343 4.292448,2.557953 3.464386,2.57798 7.428302,5.662962 3.963916,3.084981 2.84046,1.048418 6.508496,4.418482 3.668036,3.370064 3.493845,2.631723 6.842722,6.261462 3.348878,3.62974 2.801605,4.224116 5.695865,8.361263 2.89426,4.137146 4.664905,4.186778 6.979147,8.648849 2.314242,4.462073 2.814764,7.512987 4.815397,12.050435 2.000632,4.537447 -1.427433,4.911495 0.182562,9.611658 1.609996,4.700163 3.191772,4.870329 4.056139,9.7831966 0.864366,4.9128671 0.250063,2.6506181 0.548283,7.667051 0.29822,5.0164335 -0.688841,3.0999515 -0.905959,8.0370667 -0.217118,4.9371147 3.502185,7.1235677 2.73902,12.0926567 -0.763165,4.969089 -2.893368,5.038726 -4.22261,9.853624 -1.329243,4.814898 -0.654534,3.401495 -2.452151,8.057213 -1.797617,4.655718 1.418204,4.397682 -0.564588,9.038657 -1.982791,4.640974 -3.037429,7.602453 -5.643192,11.804761 z"
       inkscape:transform-center-x="-0.30063674"
       inkscape:transform-center-y="-0.23604494"
       transform="matrix(1,0,0,0.74465729,58.121044,38.025129)" /><path
       sodipodi:type="star"
       style="fill:#943a3d;fill-opacity:1;stroke-width:1.32292;stroke-linecap:round;stroke-linejoin:round"
       id="path3"
       inkscape:flatsided="false"
       sodipodi:sides="30"
       sodipodi:cx="6.5870519"
       sodipodi:cy="6.0704203"
       sodipodi:r1="44.615078"
       sodipodi:r2="45.065735"
       sodipodi:arg1="0.34803643"
       sodipodi:arg2="0.45275618"
       inkscape:rounded="0.5"
       inkscape:randomized="0.026"
       d="m 47.919288,20.620062 c -0.872412,2.186956 1.0595,3.275785 -0.01881,5.395706 -1.078305,2.11992 -2.492605,2.729948 -3.659923,4.78005 -1.167317,2.050102 -1.752718,1.661044 -3.182851,3.543254 -1.430133,1.882211 -0.824661,0.725651 -2.391141,2.489182 -1.566481,1.763531 -0.461966,1.687432 -2.224457,3.263504 -1.762492,1.576072 -3.398102,1.925289 -5.340641,3.221061 -1.942538,1.295772 -1.116099,0.559076 -3.201313,1.716463 -2.085213,1.157386 -1.443249,1.410786 -3.579469,2.337081 -2.136221,0.926295 -3.189766,2.333688 -5.443324,2.935606 -2.253559,0.601918 -1.421743,-0.737208 -3.758996,-0.250612 -2.337253,0.486596 -3.837152,1.550229 -6.1561289,1.805371 -2.3189772,0.255143 -2.3072977,-1.699967 -4.6579446,-1.79353 -2.3506466,-0.09356 -0.7050241,0.263107 -3.0421714,-0.157003 -2.3371475,-0.420109 -3.0263835,0.07442 -5.2831981,-0.5353 -2.2568145,-0.609717 -1.772704,-1.108741 -4.0175171,-1.921166 -2.2448129,-0.812424 -3.1497479,0.360213 -5.2218929,-0.702143 -2.072145,-1.062356 -2.306086,-1.013835 -4.283786,-2.301717 -1.977701,-1.287882 -1.563285,-2.081458 -3.382742,-3.600078 -1.819457,-1.51862 -1.548668,-1.588764 -3.310059,-3.167438 -1.761391,-1.578674 -1.110025,-1.619763 -2.695083,-3.363283 -1.585058,-1.74352 -1.952701,-1.633209 -3.276935,-3.593849 -1.324234,-1.960639 -1.685621,-0.685291 -2.865433,-2.72891 -1.179812,-2.043619 -0.266657,-2.676546 -1.079276,-4.859168 -0.812619,-2.182623 -2.349416,-1.785145 -3.001525,-4.041578 -0.652109,-2.256432 -1.438317,-1.882843 -1.756844,-4.231956 -0.318528,-2.349114 0.642039,-4.235345 0.434618,-6.5972755 -0.207422,-2.3619304 0.872664,-2.3363397 0.911232,-4.6972711 0.03857,-2.3609315 -0.303782,-2.2868443 0.06802,-4.6183461 0.371804,-2.3315016 0.40768,-2.5681812 0.930173,-4.8539964 0.522494,-2.2858153 -0.533941,-2.0675152 0.360928,-4.2750979 0.894869,-2.207582 0.586949,-0.195036 1.549846,-2.369441 0.962897,-2.174404 3.279098,-2.323155 4.510928,-4.30774 1.23183,-1.984584 -0.656893,-2.826282 0.800805,-4.698411 1.457699,-1.872128 3.038001,-0.823146 4.73456,-2.489181 1.696559,-1.666036 0.382912,-2.034685 2.222045,-3.465948 1.839133,-1.431263 1.530426,-2.226412 3.475679,-3.601308 1.945252,-1.374897 3.033289,-1.48543 5.107276,-2.581508 2.073987,-1.096078 1.400564,-1.481162 3.57947,-2.337081 2.1789058,-0.85592 1.8751047,0.257007 4.1138998,-0.424777 2.2387953,-0.681783 3.2141817,-1.152726 5.52583668,-1.654648 2.31165472,-0.501921 2.54355372,-0.29848 4.86770652,-0.539833 2.3241531,-0.241353 2.2812776,-0.640915 4.6579446,-0.549888 2.3766664,0.09103 0.8557106,0.848705 3.1685034,1.238638 2.312793,0.389933 3.68291,0.887098 5.969282,1.373712 2.286371,0.486613 1.799404,-1.196323 4.017517,-0.422253 2.218113,0.774071 0.890473,1.530893 3.040985,2.477018 2.150511,0.946125 3.783608,1.497014 5.814789,2.725088 2.03118,1.228073 2.330126,0.762407 4.156567,2.281024 1.826441,1.518617 1.517151,0.603759 3.186138,2.288246 1.668988,1.684488 1.388743,3.756772 2.947748,5.526554 1.559004,1.769782 1.797492,1.509518 3.189192,3.407896 1.391701,1.898378 -0.111888,1.206685 0.959432,3.33448 1.07132,2.127794 2.0269,2.411614 2.820355,4.619699 0.793456,2.2080854 0.175109,0.7787513 0.784477,3.0392692 0.609367,2.2605178 1.43439,2.3242978 1.792985,4.6657207 0.358594,2.34142314 -0.761742,3.58943572 -0.556127,5.9205273 0.205615,2.3310914 1.668504,1.3329285 1.558556,3.6949628 -0.109949,2.3620346 0.053,3.061688 -0.196804,5.418211 -0.249809,2.356522 -0.199168,3.044144 -0.842393,5.299424 -0.643225,2.255279 -1.958304,0.747032 -2.830716,2.933987 z"
       inkscape:transform-center-x="0.013328223"
       inkscape:transform-center-y="-0.3115669"
       transform="matrix(1.4503922,0,0,0.95988774,40.774813,36.348374)" /><path
       sodipodi:type="star"
       style="fill:#823238;fill-opacity:1;stroke-width:1.32292;stroke-linecap:round;stroke-linejoin:round"
       id="path2"
       inkscape:flatsided="false"
       sodipodi:sides="30"
       sodipodi:cx="9.557683"
       sodipodi:cy="22.085999"
       sodipodi:r1="31.364799"
       sodipodi:r2="31.681616"
       sodipodi:arg1="-0.048940481"
       sodipodi:arg2="0.055779274"
       inkscape:rounded="0.5"
       inkscape:randomized="0.026"
       d="m 40.333186,20.983408 c 0.02807,1.643271 1.418634,0.961429 1.376121,2.597191 -0.04251,1.635762 -1.000898,2.581005 -1.326932,4.213589 -0.326035,1.632583 -0.02561,0.697317 -0.462797,2.283055 -0.437192,1.585738 -0.979385,1.26235 -1.609513,2.777845 -0.630128,1.515495 0.161791,1.625667 -0.598041,3.110264 -0.759832,1.484596 -1.71843,2.396934 -2.612352,3.800295 -0.893922,1.40336 0.799783,1.160237 -0.279943,2.423368 -1.079726,1.263131 -1.298934,0.337545 -2.472626,1.497142 -1.173693,1.159597 -2.031098,2.068362 -3.323938,3.092526 -1.292839,1.024164 -1.683606,0.641834 -3.068123,1.527148 -1.384517,0.885314 -0.138406,2.0711 -1.631686,2.802116 -1.49328,0.731016 -1.72811,-0.192543 -3.270088,0.370917 -1.541978,0.56346 -2.313034,1.555728 -3.935485,1.940707 -1.622451,0.384979 -0.35429,-1.327499 -1.97847,-1.102428 -1.62418,0.22507 -1.959895,0.949288 -3.60009,0.964725 C 9.8990287,53.297305 8.8792387,53.000878 7.2181164,52.913429 5.5569942,52.82598 6.329623,53.821292 4.6676203,53.596703 3.0056177,53.372114 3.5799245,53.182035 1.9644333,52.753369 0.34894217,52.324703 -0.86234484,52.367385 -2.4112644,51.832677 c -1.5489195,-0.534708 -0.075308,-0.4339 -1.5469722,-1.218969 -1.471664,-0.78507 -1.6694889,-1.475558 -3.0983144,-2.345239 -1.4288256,-0.869682 -1.4571799,-0.323006 -2.7329606,-1.380503 -1.2757804,-1.057496 -1.4034174,-1.881858 -2.5669424,-3.061889 -1.163525,-1.180031 -2.119053,-0.840331 -3.193431,-2.125492 -1.074378,-1.285162 -0.198297,-0.401951 -1.112118,-1.770358 -0.913821,-1.368407 -0.887883,-1.939674 -1.618274,-3.448428 -0.73039,-1.508753 -0.800625,-1.421083 -1.364833,-2.994604 -0.564209,-1.573521 -0.511839,-0.950267 -0.95214,-2.569142 -0.4403,-1.618876 -1.679935,-2.55634 -1.868746,-4.192992 -0.188812,-1.636651 1.470205,-0.638079 1.405236,-2.306332 -0.06497,-1.668254 -1.35771,-1.988294 -1.289004,-3.626556 0.06871,-1.638262 1.06026,-2.580937 1.326933,-4.213589 0.266672,-1.632652 -4.18e-4,-0.784846 0.401113,-2.413782 0.40153,-1.628936 1.081363,-2.596818 1.672892,-4.152243 0.591529,-1.5554239 -0.215982,-0.167389 0.596345,-1.6051389 0.812328,-1.4377499 0.730434,-2.2829714 1.617767,-3.6710104 0.887333,-1.3880389 -0.08498,-0.6726666 0.939891,-1.9606026 1.024867,-1.287936 1.672319,-1.0462771 2.805568,-2.23151215 1.133249,-1.18523506 2.079048,-1.31739729 3.4127499,-2.33212645 1.3337023,-1.0147291 1.5890086,-1.9866227 2.9521821,-2.9172205 1.3631734,-0.9305978 0.1323126,-0.3020143 1.6333813,-1.0123519 1.5010687,-0.7103376 1.63471,-0.6666158 3.1795802,-1.273636 1.54487027,-0.6070202 1.43539616,-0.5826284 3.0297125,-1.051023 1.5943163,-0.4683947 2.3200449,-0.8978721 3.9605506,-1.1370661 1.6405057,-0.2391939 1.9461591,-0.85934 3.6000898,-0.964725 1.6539306,-0.105385 0.1114775,1.1247084 1.7678906,1.2581226 1.656413,0.1334141 2.568239,-0.6205582 4.199662,-0.3585411 1.631423,0.262017 1.674464,1.4276562 3.2726,1.8684115 1.598137,0.4407554 2.109413,-0.4513848 3.635722,0.1733276 1.526309,0.6247125 0.121508,1.1315477 1.634089,1.8370489 1.512582,0.7055011 1.642405,0.6223062 3.009502,1.5848395 1.367097,0.9625332 1.51777,0.105173 2.848902,1.1231306 1.331133,1.0179577 1.093133,0.7932947 2.232306,2.00649544 1.139172,1.21320076 2.230395,1.89650566 3.285634,3.17053156 1.05524,1.2740258 1.136272,1.0067348 2.00916,2.4171428 0.872887,1.410408 -0.667325,0.6924979 0.05959,2.196557 0.726913,1.5040592 1.715144,2.2013347 2.270606,3.7523646 0.555462,1.551029 0.450212,0.85351 0.890455,2.438416 0.440244,1.584905 0.684409,2.964774 0.937541,4.595322 0.253132,1.630548 -0.527528,1.420821 -0.499464,3.064093 z"
       inkscape:transform-center-x="-0.24652724"
       inkscape:transform-center-y="0.14465199"
       transform="matrix(1.591442,0,0,0.95910924,37.584096,22.601484)" /><path
       sodipodi:type="star"
       style="display:inline;fill:#76272b;fill-opacity:1;stroke-width:1.32292;stroke-linecap:round;stroke-linejoin:round"
       id="path1"
       inkscape:flatsided="false"
       sodipodi:sides="30"
       sodipodi:cx="30.222942"
       sodipodi:cy="35.647572"
       sodipodi:r1="22.050173"
       sodipodi:r2="22.272902"
       sodipodi:arg1="0.2520109"
       sodipodi:arg2="0.35673066"
       inkscape:rounded="0.5"
       inkscape:randomized="0.026"
       d="m 51.062143,41.490416 c -0.283352,1.128759 0.200634,1.219796 -0.195648,2.309474 -0.396282,1.089678 -0.490002,1.182732 -1.049948,2.217524 -0.559946,1.034792 -0.06611,0.460914 -0.681622,1.450217 -0.61551,0.989303 -0.826995,1.072768 -1.579448,1.973807 -0.752453,0.901039 -0.367768,0.66384 -1.153903,1.526013 -0.786135,0.862173 -1.533997,0.939573 -2.435616,1.673705 -0.90162,0.734132 -0.688645,1.39434 -1.682189,2.008922 -0.993544,0.614581 -0.455544,-0.373685 -1.494739,0.130162 -1.039195,0.503846 -0.84365,0.902437 -1.927925,1.28814 -1.084275,0.385703 -1.0997,0.260008 -2.210758,0.583527 -1.111057,0.323519 -1.902436,0.696846 -3.041666,0.899644 -1.13923,0.202797 -1.005388,0.232395 -2.160714,0.293899 -1.155326,0.0615 -1.425631,-0.187846 -2.604571,-0.219528 -1.178941,-0.03168 -0.578062,0.522782 -1.736313,0.390735 -1.15825,-0.132046 -1.543458,-1.053553 -2.667685,-1.361464 -1.124226,-0.307912 -0.579125,0.107045 -1.650737,-0.315362 -1.071611,-0.422406 -0.984718,-0.627607 -2.012264,-1.152534 -1.027545,-0.524928 -1.567348,0.150411 -2.574837,-0.449076 -1.007488,-0.599487 -1.101281,-0.356629 -1.995032,-1.11554 -0.893752,-0.758912 -0.115349,-1.321246 -0.971775,-2.1245 -0.856426,-0.803253 -1.043105,-0.559159 -1.812721,-1.449035 -0.769617,-0.889877 -0.596674,-1.313295 -1.202076,-2.311952 -0.605403,-0.998657 -1.358852,-0.643148 -1.92295,-1.669744 -0.5640971,-1.026596 0.414152,-0.872064 -0.0031,-1.946599 C 9.8765834,43.046317 8.6398766,42.353606 8.3223064,41.242537 8.0047363,40.131469 8.6345864,39.894343 8.4692333,38.748934 8.3038802,37.603526 8.1944312,38.4119 8.0767022,37.241041 c -0.117729,-1.170858 0.051546,-1.080948 0.1405486,-2.2328 0.089003,-1.151853 -0.3403876,-1.792637 -0.129545,-2.938259 0.2108426,-1.145622 0.7645438,-0.980621 1.0227604,-2.105608 0.2582167,-1.124987 -0.2462412,-0.496128 0.1344024,-1.585807 0.3806437,-1.089678 0.5741369,-1.899779 1.1111934,-2.941191 0.537057,-1.041412 0.02681,-0.357823 0.681641,-1.321976 0.654829,-0.964153 1.105126,-0.876771 1.795614,-1.802756 0.690488,-0.925984 0.965729,-1.232249 1.791874,-2.051427 0.826146,-0.819178 0.722807,-0.637717 1.624825,-1.355679 0.902019,-0.717963 0.648018,-0.765304 1.619752,-1.385309 0.971734,-0.620005 1.69352,-1.207163 2.715386,-1.783725 1.021865,-0.576562 0.811659,0.181535 1.885733,-0.250039 1.074074,-0.431574 1.071857,-0.504434 2.209547,-0.811822 1.13769,-0.307388 0.78473,-1.11561 1.947124,-1.294962 1.162393,-0.179352 1.10837,0.336763 2.269886,0.308807 1.161515,-0.02796 1.45592,-0.898961 2.60459,-0.810423 1.14867,0.08854 0.484665,1.018042 1.625948,1.222887 1.141282,0.204844 1.478645,-0.628016 2.605247,-0.331305 1.126602,0.296712 0.630059,0.435192 1.714348,0.821754 1.084289,0.386562 2.058425,0.111685 3.106844,0.646142 1.04842,0.534458 0.400944,1.564836 1.397556,2.194543 0.996611,0.629707 1.794322,0.146204 2.69423,0.89641 0.899907,0.750205 -0.27809,0.484 0.570272,1.303792 0.848362,0.819792 0.998343,1.310929 1.750302,2.200889 0.751959,0.889959 1.516343,0.920623 2.144063,1.884419 0.627721,0.963796 0.244025,0.500117 0.76474,1.541504 0.520716,1.041387 0.65345,1.615834 1.098908,2.698452 0.445458,1.082618 0.607469,0.07571 0.877003,1.196564 0.269534,1.120856 -0.332113,1.357509 -0.146927,2.493603 0.185186,1.136095 0.210554,1.455733 0.309811,2.618728 0.09926,1.162995 0.630789,0.621345 0.621142,1.774779 -0.0096,1.153434 0.259469,2.282658 0.06709,3.43363 -0.19238,1.150973 -1.357115,0.886802 -1.640467,2.01556 z"
       transform="matrix(1.4965993,0,0,0.77478379,10.381826,15.94847)" /><g
       id="g2"
       inkscape:label="compass"
       style="stroke:#62252a;stroke-opacity:1"
       transform="translate(9.235441e-5,-8.8402749e-5)"><path
         id="rect2"
         style="fill:#fdb88c;stroke:#62252a;stroke-width:0.79375;stroke-linecap:round;stroke-linejoin:round;stroke-dasharray:none;stroke-opacity:1"
         d="M 16.627453,35.856307 68.013434,67.979596 Z"
         sodipodi:nodetypes="ccc" /><path
         id="path7"
         style="fill:#fdb88c;stroke:#62252a;stroke-width:0.79375;stroke-linecap:round;stroke-linejoin:round;stroke-dasharray:none;stroke-opacity:1"
         d="M 59.268124,34.888141 16.977501,68.108236 Z"
         sodipodi:nodetypes="ccc" /><path
         id="path8"
         style="fill:#fdb88c;stroke:#62252a;stroke-width:0.79375;stroke-linecap:round;stroke-linejoin:round;stroke-dasharray:none;stroke-opacity:1"
         d="m 16.627453,35.856307 1.567976,3.126778 z"
         sodipodi:nodetypes="ccc" /><path
         id="path9"
         style="fill:#fdb88c;stroke:#62252a;stroke-width:0.79375;stroke-linecap:round;stroke-linejoin:round;stroke-dasharray:none;stroke-opacity:1"
         d="m 16.627453,35.856307 3.691362,-0.537775 z"
         sodipodi:nodetypes="ccc" /><path
         id="path10"
         style="fill:#fdb88c;stroke:#62252a;stroke-width:0.79375;stroke-linecap:round;stroke-linejoin:round;stroke-dasharray:none;stroke-opacity:1"
         d="M 16.878606,34.417885 13.126702,32.167702 Z"
         sodipodi:nodetypes="ccc" /><path
         id="path11"
         style="fill:#fdb88c;stroke:#62252a;stroke-width:0.79375;stroke-linecap:round;stroke-linejoin:round;stroke-dasharray:none;stroke-opacity:1"
         d="m 16.878606,34.417885 -6.331932,0.307013 z"
         sodipodi:nodetypes="ccc" /><path
         id="path12"
         style="fill:#fdb88c;stroke:#62252a;stroke-width:0.79375;stroke-linecap:round;stroke-linejoin:round;stroke-dasharray:none;stroke-opacity:1"
         d="M 14.618228,37.066409 10.546674,34.724898 Z"
         sodipodi:nodetypes="ccc" /></g><g
       id="g474"
       inkscape:label="trunk"><path
         id="rect4"
         style="fill:#cd8f2c;stroke-width:1.32292;stroke-linecap:round;stroke-linejoin:round"
         d="m 54.475974,-3.1441093 c -1.262563,-7.9369057 8.959541,-7.7414487 16.990426,0.554461 8.030885,8.2959095 -2.67402,42.1539603 -1.194154,48.3098013 1.479867,6.155842 -20.638293,1.171993 -23.32174,1.07179 -2.683448,-0.100203 0.70191,-0.926982 4.955292,-5.801885 4.253382,-4.874903 3.83274,-36.1972622 2.570176,-44.1341673 z"
         sodipodi:nodetypes="zzzzzz" /><path
         id="rect474"
         style="fill:#a2652b;stroke-width:1.32292;stroke-linecap:round;stroke-linejoin:round"
         d="m 60.946045,-1.2651553 h 4.429429 l -1.582578,44.9201363 -6.210332,0.821956 c 0,0 1.961379,-1.965124 -0.360196,-2.939091 -2.321575,-0.973967 -4.681843,1.382761 -4.681843,1.382761 l -1.954976,-0.407799 c 0,0 6.088766,-4.12023 7.617948,-9.410184 1.529182,-5.289953 2.742548,-34.3677793 2.742548,-34.3677793 z"
         sodipodi:nodetypes="cccczcczc" /><path
         id="rect475"
         style="fill:#78421e;stroke-width:1.38995;stroke-linecap:round;stroke-linejoin:round"
         d="m 62.756946,-0.27867107 5.799354,-0.04566 -0.379639,43.79665907 -4.840406,0.502307 C 64.034583,32.725829 63.217669,11.086036 62.756946,-0.27867107 Z"
         sodipodi:nodetypes="ccccc" /></g><g
       id="g5"
       inkscape:label="ground leaves"><circle
         style="fill:#76272b;fill-opacity:1;stroke-width:1.32292;stroke-linecap:round;stroke-linejoin:round"
         id="use59"
         cx="15.019526"
         cy="66.959251"
         r="1.6210793"
         transform="rotate(-33.347149)" /><circle
         style="fill:#76272b;fill-opacity:1;stroke-width:1.32292;stroke-linecap:round;stroke-linejoin:round"
         id="use60"
         cx="63.688347"
         cy="32.314301"
         r="1.6210793"
         transform="rotate(14.610309)" /><circle
         style="fill:#76272b;fill-opacity:1;stroke-width:1.32292;stroke-linecap:round;stroke-linejoin:round"
         id="use61"
         cx="47.90448"
         cy="52.795341"
         r="1.6210793"
         transform="rotate(-8.2296549)" /><circle
         style="fill:#76272b;fill-opacity:1;stroke-width:1.32292;stroke-linecap:round;stroke-linejoin:round"
         id="use62"
         cx="70.629768"
         cy="19.132719"
         r="1.6210793"
         transform="rotate(23.753755)" /><circle
         style="fill:#76272b;fill-opacity:1;stroke-width:1.32292;stroke-linecap:round;stroke-linejoin:round"
         id="use63"
         cx="69.130119"
         cy="29.547693"
         r="1.6210793"
         transform="rotate(16.494921)" /><circle
         style="fill:#76272b;fill-opacity:1;stroke-width:1.32292;stroke-linecap:round;stroke-linejoin:round"
         id="use64"
         cx="47.725903"
         cy="59.86821"
         r="1.6210793"
         transform="rotate(-12.801505)" /><circle
         style="fill:#76272b;fill-opacity:1;stroke-width:1.32292;stroke-linecap:round;stroke-linejoin:round"
         id="use65"
         cx="54.982056"
         cy="50.529125"
         r="1.6210793"
         transform="rotate(-4.802229)" /><circle
         style="fill:#76272b;fill-opacity:1;stroke-width:1.32292;stroke-linecap:round;stroke-linejoin:round"
         id="use66"
         cx="62.698315"
         cy="44.058846"
         r="1.6210793"
         transform="rotate(2.611562)" /><circle
         style="fill:#76272b;fill-opacity:1;stroke-width:1.32292;stroke-linecap:round;stroke-linejoin:round"
         id="use67"
         cx="44.61729"
         cy="62.577339"
         r="1.6210793"
         transform="rotate(-16.410042)" /><circle
         style="fill:#76272b;fill-opacity:1;stroke-width:1.32292;stroke-linecap:round;stroke-linejoin:round"
         id="use68"
         cx="74.623573"
         cy="14.159913"
         r="1.6210793"
         transform="rotate(26.058237)" /><circle
         style="fill:#76272b;fill-opacity:1;stroke-width:1.32292;stroke-linecap:round;stroke-linejoin:round"
         id="use69"
         cx="73.423279"
         cy="34.449875"
         r="1.6210793"
         transform="rotate(10.556939)" /><circle
         style="fill:#76272b;fill-opacity:1;stroke-width:1.32292;stroke-linecap:round;stroke-linejoin:round"
         id="use70"
         cx="47.916763"
         cy="64.780579"
         r="1.6210793"
         transform="rotate(-18.619575)" /><circle
         style="fill:#76272b;fill-opacity:1;stroke-width:1.32292;stroke-linecap:round;stroke-linejoin:round"
         id="use71"
         cx="77.977463"
         cy="34.519634"
         r="1.6210793"
         transform="rotate(11.295843)" /><circle
         style="fill:#76272b;fill-opacity:1;stroke-width:1.32292;stroke-linecap:round;stroke-linejoin:round"
         id="use72"
         cx="64.446304"
         cy="52.586956"
         r="1.6210793"
         transform="rotate(-5.0980465)" /><circle
         style="fill:#76272b;fill-opacity:1;stroke-width:1.32292;stroke-linecap:round;stroke-linejoin:round"
         id="use73"
         cx="75.103676"
         cy="39.552116"
         r="1.6210793"
         transform="rotate(5.6618805)" /><circle
         style="fill:#76272b;fill-opacity:1;stroke-width:1.32292;stroke-linecap:round;stroke-linejoin:round"
         id="use74"
         cx="50.992931"
         cy="66.629059"
         r="1.6210793"
         transform="rotate(-18.981037)" /><circle
         style="fill:#76272b;fill-opacity:1;stroke-width:1.32292;stroke-linecap:round;stroke-linejoin:round"
         id="use75"
         cx="59.492683"
         cy="49.58289"
         r="1.6210793"
         transform="rotate(-3.915275)" /><circle
         style="fill:#76272b;fill-opacity:1;stroke-width:1.32292;stroke-linecap:round;stroke-linejoin:round"
         id="use76"
         cx="24.086485"
         cy="75.293633"
         r="1.6210793"
         transform="rotate(-33.971902)" /><circle
         style="fill:#76272b;fill-opacity:1;stroke-width:1.32292;stroke-linecap:round;stroke-linejoin:round"
         id="use77"
         cx="47.641533"
         cy="58.677608"
         r="1.6210793"
         transform="rotate(-13.944923)" /><circle
         style="fill:#76272b;fill-opacity:1;stroke-width:1.32292;stroke-linecap:round;stroke-linejoin:round"
         id="use78"
         cx="51.08667"
         cy="54.457844"
         r="1.6210793"
         transform="rotate(-7.8797857)" /><circle
         style="fill:#76272b;fill-opacity:1;stroke-width:1.32292;stroke-linecap:round;stroke-linejoin:round"
         id="use79"
         cx="62.526356"
         cy="37.367111"
         r="1.6210793"
         transform="rotate(6.5224313)" /><circle
         style="fill:#76272b;fill-opacity:1;stroke-width:1.32292;stroke-linecap:round;stroke-linejoin:round"
         id="use80"
         cx="54.036823"
         cy="48.694141"
         r="1.6210793"
         transform="rotate(-1.4535761)" /><circle
         style="fill:#76272b;fill-opacity:1;stroke-width:1.32292;stroke-linecap:round;stroke-linejoin:round"
         id="use81"
         cx="15.96648"
         cy="64.980614"
         r="1.6210793"
         transform="rotate(-32.885506)" /><circle
         style="fill:#76272b;fill-opacity:1;stroke-width:1.32292;stroke-linecap:round;stroke-linejoin:round"
         id="use82"
         cx="58.408195"
         cy="39.714249"
         r="1.6210793"
         transform="rotate(7.6350298)" /><circle
         style="fill:#76272b;fill-opacity:1;stroke-width:1.32292;stroke-linecap:round;stroke-linejoin:round"
         id="use83"
         cx="38.458931"
         cy="56.66515"
         r="1.6210793"
         transform="rotate(-14.947945)" /><circle
         style="fill:#76272b;fill-opacity:1;stroke-width:1.32292;stroke-linecap:round;stroke-linejoin:round"
         id="use84"
         cx="53.009422"
         cy="42.429375"
         r="1.6210793"
         transform="rotate(3.2729399)" /><circle
         style="fill:#76272b;fill-opacity:1;stroke-width:1.32292;stroke-linecap:round;stroke-linejoin:round"
         id="use88"
         cx="66.712311"
         cy="22.552401"
         r="1.6210793"
         transform="rotate(21.927402)" /><circle
         style="fill:#76272b;fill-opacity:1;stroke-width:1.32292;stroke-linecap:round;stroke-linejoin:round"
         id="use89"
         cx="28.083839"
         cy="64.922516"
         r="1.6210793"
         transform="rotate(-27.127289)" /><circle
         style="fill:#76272b;fill-opacity:1;stroke-width:1.32292;stroke-linecap:round;stroke-linejoin:round"
         id="use90"
         cx="41.315273"
         cy="58.467701"
         r="1.6210793"
         transform="rotate(-16.580292)" /><circle
         style="fill:#76272b;fill-opacity:1;stroke-width:1.32292;stroke-linecap:round;stroke-linejoin:round"
         id="use91"
         cx="46.351036"
         cy="52.099174"
         r="1.6210793"
         transform="rotate(-6.9717333)" /><circle
         style="fill:#76272b;fill-opacity:1;stroke-width:1.32292;stroke-linecap:round;stroke-linejoin:round"
         id="use92"
         cx="17.182514"
         cy="66.956711"
         r="1.6210793"
         transform="rotate(-35.493361)" /><circle
         style="fill:#76272b;fill-opacity:1;stroke-width:1.32292;stroke-linecap:round;stroke-linejoin:round"
         id="use96"
         cx="16.066338"
         cy="64.591446"
         r="1.6210793"
         transform="rotate(-31.267449)" /><circle
         style="fill:#76272b;fill-opacity:1;stroke-width:1.32292;stroke-linecap:round;stroke-linejoin:round"
         id="use98"
         cx="65.831581"
         cy="13.001611"
         r="1.6210793"
         transform="rotate(31.267983)" /><circle
         style="fill:#76272b;fill-opacity:1;stroke-width:1.32292;stroke-linecap:round;stroke-linejoin:round"
         id="use103"
         cx="62.234406"
         cy="27.007057"
         r="1.6210793"
         transform="rotate(20.859995)" /><circle
         style="fill:#76272b;fill-opacity:1;stroke-width:1.32292;stroke-linecap:round;stroke-linejoin:round"
         id="use104"
         cx="54.778439"
         cy="43.201782"
         r="1.6210793"
         transform="rotate(4.2684849)" /><circle
         style="fill:#76272b;fill-opacity:1;stroke-width:1.32292;stroke-linecap:round;stroke-linejoin:round"
         id="use105"
         cx="21.512056"
         cy="67.437866"
         r="1.6210793"
         transform="rotate(-30.523038)" /><circle
         style="fill:#76272b;fill-opacity:1;stroke-width:1.32292;stroke-linecap:round;stroke-linejoin:round"
         id="use106"
         cx="57.229862"
         cy="52.96228"
         r="1.6210793"
         transform="rotate(-5.3813694)" /><circle
         style="fill:#76272b;fill-opacity:1;stroke-width:1.32292;stroke-linecap:round;stroke-linejoin:round"
         id="use107"
         cx="30.502039"
         cy="73.378952"
         r="1.6210793"
         transform="rotate(-30.872316)" /><circle
         style="fill:#76272b;fill-opacity:1;stroke-width:1.32292;stroke-linecap:round;stroke-linejoin:round"
         id="use108"
         cx="72.466248"
         cy="38.844688"
         r="1.6210793"
         transform="rotate(8.1153674)" /><circle
         style="fill:#76272b;fill-opacity:1;stroke-width:1.32292;stroke-linecap:round;stroke-linejoin:round"
         id="use109"
         cx="37.492958"
         cy="75.150238"
         r="1.6210793"
         transform="rotate(-26.895435)" /><circle
         style="fill:#76272b;fill-opacity:1;stroke-width:1.32292;stroke-linecap:round;stroke-linejoin:round"
         id="use110"
         cx="60.09481"
         cy="54.398155"
         r="1.6210793"
         transform="rotate(-6.3045414)" /><circle
         style="fill:#76272b;fill-opacity:1;stroke-width:1.32292;stroke-linecap:round;stroke-linejoin:round"
         id="use112"
         cx="38.163376"
         cy="55.54517"
         r="1.6210793"
         transform="rotate(-14.759015)" /><circle
         style="fill:#76272b;fill-opacity:1;stroke-width:1.32292;stroke-linecap:round;stroke-linejoin:round"
         id="use115"
         cx="63.39325"
         cy="23.481918"
         r="1.6210793"
         transform="rotate(19.532)" /><circle
         style="fill:#76272b;fill-opacity:1;stroke-width:1.32292;stroke-linecap:round;stroke-linejoin:round"
         id="use116"
         cx="66.724503"
         cy="7.7633629"
         r="1.6210793"
         transform="rotate(34.98705)" /><circle
         style="fill:#76272b;fill-opacity:1;stroke-width:1.32292;stroke-linecap:round;stroke-linejoin:round"
         id="use118"
         cx="50.38324"
         cy="49.513271"
         r="1.6210793"
         transform="rotate(-4.7926753)" /><circle
         style="fill:#76272b;fill-opacity:1;stroke-width:1.32292;stroke-linecap:round;stroke-linejoin:round"
         id="use119"
         cx="24.364332"
         cy="65.199532"
         r="1.6210793"
         transform="rotate(-30.647886)" /><circle
         style="fill:#76272b;fill-opacity:1;stroke-width:1.32292;stroke-linecap:round;stroke-linejoin:round"
         id="use120"
         cx="68.972626"
         cy="42.082108"
         r="1.6210793"
         transform="rotate(2.9965508)" /><circle
         style="fill:#76272b;fill-opacity:1;stroke-width:1.32292;stroke-linecap:round;stroke-linejoin:round"
         id="use121"
         cx="46.587772"
         cy="65.797218"
         r="1.6210793"
         transform="rotate(-20.42639)" /><circle
         style="fill:#76272b;fill-opacity:1;stroke-width:1.32292;stroke-linecap:round;stroke-linejoin:round"
         id="use122"
         cx="49.630627"
         cy="61.987816"
         r="1.6210793"
         transform="rotate(-15.345153)" /><circle
         style="fill:#76272b;fill-opacity:1;stroke-width:1.32292;stroke-linecap:round;stroke-linejoin:round"
         id="use123"
         cx="28.140049"
         cy="75.863045"
         r="1.6210793"
         transform="rotate(-33.441118)" /><circle
         style="fill:#76272b;fill-opacity:1;stroke-width:1.32292;stroke-linecap:round;stroke-linejoin:round"
         id="use124"
         cx="73.60556"
         cy="34.514549"
         r="1.6210793"
         transform="rotate(10.564134)" /><circle
         style="fill:#76272b;fill-opacity:1;stroke-width:1.32292;stroke-linecap:round;stroke-linejoin:round"
         id="use125"
         cx="74.45153"
         cy="35.74596"
         r="1.6210793"
         transform="rotate(9.3495242)" /><circle
         style="fill:#76272b;fill-opacity:1;stroke-width:1.32292;stroke-linecap:round;stroke-linejoin:round"
         id="use126"
         cx="59.415745"
         cy="56.438324"
         r="1.6210793"
         transform="rotate(-10.231429)" /><circle
         style="fill:#76272b;fill-opacity:1;stroke-width:1.32292;stroke-linecap:round;stroke-linejoin:round"
         id="use127"
         cx="76.31974"
         cy="32.256374"
         r="1.6210793"
         transform="rotate(10.341186)" /><circle
         style="fill:#76272b;fill-opacity:1;stroke-width:1.32292;stroke-linecap:round;stroke-linejoin:round"
         id="use128"
         cx="81.914589"
         cy="14.232778"
         r="1.6210793"
         transform="rotate(23.293491)" /><circle
         style="fill:#76272b;fill-opacity:1;stroke-width:1.32292;stroke-linecap:round;stroke-linejoin:round"
         id="use129"
         cx="81.758484"
         cy="6.1158481"
         r="1.6210793"
         transform="rotate(29.402744)" /><circle
         style="fill:#76272b;fill-opacity:1;stroke-width:1.32292;stroke-linecap:round;stroke-linejoin:round"
         id="use130"
         cx="72.093452"
         cy="19.229017"
         r="1.6210793"
         transform="rotate(21.722997)" /><circle
         style="fill:#76272b;fill-opacity:1;stroke-width:1.32292;stroke-linecap:round;stroke-linejoin:round"
         id="use131"
         cx="39.571308"
         cy="63.01273"
         r="1.6210793"
         transform="rotate(-21.821641)" /><circle
         style="fill:#76272b;fill-opacity:1;stroke-width:1.32292;stroke-linecap:round;stroke-linejoin:round"
         id="use132"
         cx="24.562241"
         cy="73.501938"
         r="1.6210793"
         transform="rotate(-34.249456)" /><circle
         style="fill:#76272b;fill-opacity:1;stroke-width:1.32292;stroke-linecap:round;stroke-linejoin:round"
         id="use133"
         cx="72.933235"
         cy="23.341425"
         r="1.6210793"
         transform="rotate(17.46148)" /><circle
         style="fill:#76272b;fill-opacity:1;stroke-width:1.32292;stroke-linecap:round;stroke-linejoin:round"
         id="use134"
         cx="48.437401"
         cy="60.825695"
         r="1.6210793"
         transform="rotate(-17.150112)" /><circle
         style="fill:#76272b;fill-opacity:1;stroke-width:1.32292;stroke-linecap:round;stroke-linejoin:round"
         id="use135"
         cx="70.223412"
         cy="38.564579"
         r="1.6210793"
         transform="rotate(4.790679)" /><circle
         style="fill:#76272b;fill-opacity:1;stroke-width:1.32292;stroke-linecap:round;stroke-linejoin:round"
         id="use136"
         cx="82.504517"
         cy="3.2928772"
         r="1.6210793"
         transform="rotate(29.103788)" /><circle
         style="fill:#76272b;fill-opacity:1;stroke-width:1.32292;stroke-linecap:round;stroke-linejoin:round"
         id="use137"
         cx="78.228607"
         cy="25.000208"
         r="1.6210793"
         transform="rotate(15.290258)" /></g></g><metadata
     id="metadata1"><rdf:RDF><cc:Work
         rdf:about=""><cc:license
           rdf:resource="http://creativecommons.org/licenses/by-nc/4.0/" /></cc:Work><cc:License
         rdf:about="http://creativecommons.org/licenses/by-nc/4.0/"><cc:permits
           rdf:resource="http://creativecommons.org/ns#Reproduction" /><cc:permits
           rdf:resource="http://creativecommons.org/ns#Distribution" /><cc:requires
           rdf:resource="http://creativecommons.org/ns#Notice" /><cc:requires
           rdf:resource="http://creativecommons.org/ns#Attribution" /><cc:prohibits
           rdf:resource="http://creativecommons.org/ns#CommercialUse" /><cc:permits
           rdf:resource="http://creativecommons.org/ns#DerivativeWorks" /></cc:License></rdf:RDF></metadata></svg>
