<?xml version="1.0" encoding="UTF-8" standalone="no"?>
<!-- Created with Inkscape (http://www.inkscape.org/) -->

<svg
   width="256"
   height="256"
   viewBox="0 0 67.733331 67.733333"
   version="1.1"
   id="svg1"
   inkscape:version="1.3 (0e150ed6c4, 2023-07-21)"
   sodipodi:docname="2.svg"
   xml:space="preserve"
   xmlns:inkscape="http://www.inkscape.org/namespaces/inkscape"
   xmlns:sodipodi="http://sodipodi.sourceforge.net/DTD/sodipodi-0.dtd"
   xmlns="http://www.w3.org/2000/svg"
   xmlns:svg="http://www.w3.org/2000/svg"
   xmlns:rdf="http://www.w3.org/1999/02/22-rdf-syntax-ns#"
   xmlns:cc="http://creativecommons.org/ns#"><sodipodi:namedview
     id="namedview1"
     pagecolor="#ffffff"
     bordercolor="#666666"
     borderopacity="1.0"
     inkscape:showpageshadow="2"
     inkscape:pageopacity="0.0"
     inkscape:pagecheckerboard="0"
     inkscape:deskcolor="#d1d1d1"
     inkscape:document-units="px"
     inkscape:zoom="23.17643"
     inkscape:cx="233.44837"
     inkscape:cy="159.27819"
     inkscape:window-width="1920"
     inkscape:window-height="1002"
     inkscape:window-x="1920"
     inkscape:window-y="1080"
     inkscape:window-maximized="1"
     inkscape:current-layer="g5"
     showgrid="false" /><defs
     id="defs1"><inkscape:path-effect
       effect="perspective-envelope"
       up_left_point="39.879629,54.545897"
       up_right_point="46.539887,52.034366"
       down_left_point="39.833967,57.651065"
       down_right_point="46.517056,54.979709"
       id="path-effect482"
       is_visible="true"
       lpeversion="1"
       deform_type="perspective"
       horizontal_mirror="false"
       vertical_mirror="false"
       overflow_perspective="false" /><inkscape:path-effect
       effect="envelope"
       id="path-effect481"
       is_visible="true"
       lpeversion="1"
       yy="true"
       xx="true"
       bendpath1="m 38.760857,52.194191 h 7.733366"
       bendpath2="m 46.494223,52.194191 v 2.968175"
       bendpath3="m 38.760857,55.162366 h 7.733366"
       bendpath4="m 38.760857,52.194191 v 2.968175" /><mask
       maskUnits="userSpaceOnUse"
       id="mask6"><path
         id="path6"
         style="display:inline;fill:#ffffff;stroke-width:1.15568;stroke-linecap:square;stroke-miterlimit:1.5;paint-order:fill markers stroke"
         inkscape:label="eye white right"
         d="m 36.46105,34.770922 c -0.462998,0.06312 -0.79927,0.391093 -0.752596,0.804782 0.04666,0.413688 0.300686,0.553637 0.839059,0.527729 0.538368,-0.02592 0.991681,-0.51382 0.973946,-0.816185 -0.01772,-0.302379 -0.597413,-0.579435 -1.060409,-0.516326 z"
         sodipodi:nodetypes="zzzzz" /></mask><mask
       maskUnits="userSpaceOnUse"
       id="mask5"><path
         id="path5-7"
         style="display:inline;fill:#ffffff;stroke-width:1.10381;stroke-linecap:square;stroke-miterlimit:1.5;paint-order:fill markers stroke"
         inkscape:label="eye white left"
         d="m 36.508123,34.724338 c 0.643486,-0.05309 0.889505,0.318799 0.897943,0.651333 0.0085,0.332549 -0.335804,0.643639 -0.812355,0.658536 -0.476549,0.0149 -0.925943,-0.35338 -0.928027,-0.620848 -0.0021,-0.267445 0.300006,-0.643305 0.84244,-0.689081 0.542412,-0.04578 -0.643492,0.05316 -2e-6,6.7e-5 z"
         sodipodi:nodetypes="zzzzzz" /></mask></defs><g
     inkscape:label="Layer 1"
     inkscape:groupmode="layer"
     id="layer1"><path
       sodipodi:type="star"
       style="fill:#a8473f;fill-opacity:1;stroke-width:1.32292;stroke-linecap:round;stroke-linejoin:round"
       id="path4"
       inkscape:flatsided="false"
       sodipodi:sides="30"
       sodipodi:cx="-7.8542433"
       sodipodi:cy="5.8450184"
       sodipodi:r1="95.419617"
       sodipodi:r2="95.419617"
       sodipodi:arg1="0.54764196"
       sodipodi:arg2="0.65236172"
       inkscape:rounded="0.5"
       inkscape:randomized="0.026"
       d="m 75.118904,57.199077 c -2.605764,4.202309 -3.994971,4.973949 -6.937136,8.937397 -2.942166,3.963448 -2.777924,1.572721 -6.257677,5.220979 -3.479753,3.648258 -2.60204,1.481062 -6.339816,4.857953 -3.737775,3.37689 -6.9861,4.324534 -11.032106,7.227032 -4.046006,2.902499 -2.300093,2.007511 -6.743035,4.21305 -4.442942,2.205539 -5.228529,4.765997 -9.836803,6.585366 -4.608274,1.819369 -5.85485,1.034534 -10.627273,2.284212 -4.772423,1.249677 -4.36628,3.848934 -9.213005,4.791014 -4.8467251,0.94207 -4.832487,1.60959 -9.7747057,2.02395 -4.9422182,0.41436 -2.6172677,-1.68298 -7.6554923,-1.92666 -5.038225,-0.24368 -6.586434,-1.564016 -11.566673,-2.169915 -4.980237,-0.605898 -2.726092,-1.370789 -7.628782,-2.572608 -4.90269,-1.20182 -7.50121,1.166712 -12.121383,-0.594438 -4.620172,-1.761149 -3.89061,-1.302672 -8.503082,-3.345359 -4.612472,-2.042687 -6.608736,-0.775246 -10.793789,-3.395374 -4.185052,-2.620127 -3.399394,-2.632637 -7.428302,-5.662961 -4.028907,-3.030324 -0.846434,-6.164582 -4.542276,-9.540315 -3.695842,-3.375733 -5.985812,-3.9844 -9.07635,-7.842246 -3.090539,-3.857846 -0.83332,-3.104657 -3.648017,-7.174205 -2.814696,-4.069548 -6.775526,-1.501112 -9.027155,-5.97288 -2.251628,-4.471769 1.328881,-7.837986 -0.593878,-12.389511 -1.922759,-4.551524 -3.164565,-0.80124 -4.67141,-5.502161 -1.506848,-4.700922 -0.828508,-5.928823 -1.555018,-10.874041 -0.72652,-4.945217 -2.0729,-6.162541 -2.43288,-11.121788 -0.35998,-4.9592464 0.59844,-4.3877541 0.64366,-9.3492199 0.0452,-4.9614654 -3.2292,-7.7395611 -2.55843,-12.67697 0.67077,-4.9374091 3.0692,-4.2389981 4.03699,-9.1485571 0.967792,-4.909558 0.74341,-0.848541 2.370365,-5.541256 1.626952,-4.692716 0.676738,-5.421874 2.880004,-9.97383 2.203266,-4.551955 3.294778,-6.617461 5.829053,-10.861639 2.534275,-4.244178 1.699653,-5.804124 4.785056,-9.720506 3.085402,-3.916383 2.598683,-1.258812 5.9084,-4.995215 3.309717,-3.736405 2.796823,-6.884108 6.689092,-10.045537 3.892268,-3.161429 3.871339,-1.423861 7.954798,-4.321692 4.08346,-2.897832 7.052887,-3.605793 11.437447,-5.953847 4.38456,-2.348053 3.339192,-2.487423 7.95229,-4.528886 4.613099,-2.041462 6.078544,-1.554628 10.812895,-2.989278 4.734351,-1.434651 6.266641,1.884491 11.179384,1.10959 4.912744,-0.774902 4.353428,-4.539906 9.26116,-5.050559 4.9077309,-0.510652 2.944871,3.086798 7.9228208,3.118062 4.97795012,0.03126 4.7035061,0.527411 9.5791019,1.325541 4.8755953,0.798129 8.0580423,-1.90716 12.8580113,-0.648415 4.799969,1.258744 4.504986,1.096204 9.20757,2.880287 4.702584,1.784083 3.931044,1.911641 8.503162,3.894756 4.572118,1.983115 4.453333,3.51339 8.745781,6.071343 4.292448,2.557953 3.464386,2.57798 7.428302,5.662962 3.963916,3.084981 2.84046,1.048418 6.508496,4.418482 3.668036,3.370064 3.493845,2.631723 6.842722,6.261462 3.348878,3.62974 2.801605,4.224116 5.695865,8.361263 2.89426,4.137146 4.664905,4.186778 6.979147,8.648849 2.314242,4.462073 2.814764,7.512987 4.815397,12.050435 2.000632,4.537447 -1.427433,4.911495 0.182562,9.611658 1.609996,4.700163 3.191772,4.870329 4.056139,9.7831966 0.864366,4.9128671 0.250063,2.6506181 0.548283,7.667051 0.29822,5.0164335 -0.688841,3.0999515 -0.905959,8.0370667 -0.217118,4.9371147 3.502185,7.1235677 2.73902,12.0926567 -0.763165,4.969089 -2.893368,5.038726 -4.22261,9.853624 -1.329243,4.814898 -0.654534,3.401495 -2.452151,8.057213 -1.797617,4.655718 1.418204,4.397682 -0.564588,9.038657 -1.982791,4.640974 -3.037429,7.602453 -5.643192,11.804761 z"
       inkscape:transform-center-x="-0.30063674"
       inkscape:transform-center-y="-0.23604494"
       transform="matrix(1,0,0,0.74465729,58.121044,38.025129)" /><path
       sodipodi:type="star"
       style="fill:#943a3d;fill-opacity:1;stroke-width:1.32292;stroke-linecap:round;stroke-linejoin:round"
       id="path3"
       inkscape:flatsided="false"
       sodipodi:sides="30"
       sodipodi:cx="6.5870519"
       sodipodi:cy="6.0704203"
       sodipodi:r1="44.840405"
       sodipodi:r2="45.065735"
       sodipodi:arg1="0.34803643"
       sodipodi:arg2="0.45275618"
       inkscape:rounded="0.5"
       inkscape:randomized="0.026"
       d="m 48.371972,21.201818 c -0.779706,2.246403 0.60582,2.695988 -0.471489,4.81395 -1.077309,2.117961 -2.492973,1.781162 -3.79078,3.717554 -1.297807,1.936391 -1.623182,2.725279 -3.051994,4.60575 -1.428812,1.880472 -1.612237,0.443195 -3.193628,2.189679 -1.58139,1.746484 0.338893,1.988391 -1.42197,3.563007 -1.760864,1.574616 -2.19157,2.906943 -4.077045,4.279583 -1.885474,1.372639 -2.381622,-0.498376 -4.464909,0.657941 -2.083286,1.156317 -2.366766,2.302662 -4.519108,3.21387 -2.152342,0.911209 -2.25221,1.457455 -4.503685,2.058817 -2.251476,0.601362 -3.00827,0.20094 -5.318145,0.667402 -2.309874,0.466462 -2.280146,0.632451 -4.5969799,0.887357 C 6.6454045,52.111635 7.9654415,50.630302 5.6290099,50.498183 3.2925785,50.366065 3.597111,50.325917 1.2621231,49.906195 c -2.3349881,-0.419721 -2.4045907,0.9968 -4.7065026,0.421025 -2.3019117,-0.575776 -2.3514736,-2.065817 -4.5942126,-2.877491 -2.2427389,-0.811674 -2.8916519,0.289894 -5.0098139,-0.724851 -2.118162,-1.014745 -2.519992,-0.992317 -4.495865,-2.279009 -1.975874,-1.286692 -2.130352,-1.812701 -3.954721,-3.322254 -1.82437,-1.509553 -0.978316,-1.868046 -2.73808,-3.445262 -1.759764,-1.577215 -0.869196,-1.233024 -2.361123,-3.084056 -1.491926,-1.851031 -2.287884,-1.914248 -3.610895,-3.873076 -1.323011,-1.958827 -2.619573,-1.489874 -3.753279,-3.574846 -1.133705,-2.084973 0.620439,-1.832626 -0.19143,-4.013232 -0.811868,-2.180607 -2.389465,-2.765191 -3.034723,-5.002297 -0.645258,-2.237106 -1.405413,-0.924295 -1.723646,-3.271237 -0.318234,-2.346943 1.715487,-4.078172 1.600187,-6.4167223 -0.115299,-2.3385505 -0.292869,-2.5190743 -0.254337,-4.8778243 0.03853,-2.3587502 -1.171457,-1.5449276 -0.855115,-3.89474299 0.316342,-2.34981521 1.3313,-3.29389631 1.85331,-5.57759951 0.522011,-2.2837034 0.228039,-1.0914612 0.963278,-3.3318412 0.735239,-2.2403797 -0.01451,-1.1403017 0.947496,-3.3126977 0.962007,-2.172395 1.036361,-3.594988 2.298367,-5.588661 1.262005,-1.993674 1.557015,-1.547091 3.013366,-3.41749 1.456353,-1.870398 2.590424,-1.59641 4.248624,-3.267559 1.6582,-1.671149 0.870547,-1.257629 2.707981,-2.68757 1.837434,-1.42994 2.649117,-1.193087 4.555463,-2.575887 1.906346,-1.382799 1.955421,-2.511864 4.027492,-3.606929 2.072071,-1.095065 1.056897,-1.31867 3.228274,-2.150777 2.1713779,-0.832107 2.2283692,0.07007 4.4650958,-0.611081 2.2367267,-0.681154 2.5181163,-1.105969 4.8678991,-1.491026 2.3497825,-0.385056 3.2036387,-0.462325 5.5256441,-0.703455 2.3220057,-0.24113 0.9882371,-1.285811 3.3308173,-1.187317 2.34258,0.09849 2.1849748,1.486494 4.4956307,1.876067 2.310656,0.389573 3.101734,0.01375 5.392624,0.676862 2.290889,0.663108 2.378111,-0.498758 4.594175,0.274597 2.216064,0.773356 3.01464,1.734926 5.174735,2.702169 2.160096,0.967244 1.651735,1.272998 3.681039,2.499937 2.029303,1.226939 0.553819,0.730477 2.38754,2.205644 1.83372,1.475166 3.28772,0.680695 4.955165,2.363626 1.667446,1.682931 1.021606,2.336675 2.487456,4.165692 1.465849,1.829016 2.25907,2.872134 3.649484,4.768758 1.390415,1.896624 0.730433,2.096466 1.847278,4.180416 1.116845,2.083951 1.139787,1.567718 1.932509,3.773763 0.792722,2.2060452 1.05093,1.6461998 1.746301,3.9244158 0.695371,2.2782157 0.472898,1.4413145 0.831161,3.7805741 0.358263,2.33925979 0.516197,3.37691017 0.621722,5.7399741 0.105525,2.3630638 0.490554,1.5156641 0.380707,3.875516 -0.109847,2.3598522 -0.267702,3.645435 -0.562089,5.960145 -0.294387,2.31471 0.165522,2.504294 -0.477108,4.75749 -0.642631,2.253195 -1.598326,1.26934 -2.378032,3.515743 z"
       inkscape:transform-center-x="0.013328223"
       inkscape:transform-center-y="-0.3115669"
       transform="matrix(1.4503922,0,0,0.95988774,40.774813,36.348374)" /><path
       sodipodi:type="star"
       style="fill:#823238;fill-opacity:1;stroke-width:1.32292;stroke-linecap:round;stroke-linejoin:round"
       id="path2"
       inkscape:flatsided="false"
       sodipodi:sides="30"
       sodipodi:cx="9.557683"
       sodipodi:cy="22.085999"
       sodipodi:r1="31.523209"
       sodipodi:r2="31.681616"
       sodipodi:arg1="-0.048940481"
       sodipodi:arg2="0.055779274"
       inkscape:rounded="0.5"
       inkscape:randomized="0.026"
       d="m 41.104032,19.842634 c 0.02326,1.660731 0.647749,2.103714 0.605275,3.737965 -0.04247,1.634251 -0.528338,1.56775 -0.734605,3.209615 -0.206266,1.641865 -0.618336,1.702756 -1.055124,3.287029 -0.436788,1.584273 -0.289823,2.064711 -0.920175,3.609573 -0.630352,1.544861 -0.528249,0.795311 -1.287379,2.278536 -0.75913,1.483225 -0.275531,1.396979 -1.146785,2.825932 -0.871254,1.428953 -0.666782,2.135767 -1.74551,3.397731 -1.078728,1.261964 -1.716606,1.354407 -2.894032,2.542439 -1.177426,1.188032 -1.610886,1.024011 -2.902532,2.047229 -1.291645,1.023218 -1.374832,0.510863 -2.795377,1.393966 -1.420545,0.883103 -0.412532,2.204957 -1.904432,2.935298 -1.4919,0.73034 -1.906872,0.58082 -3.479362,1.144951 -1.572491,0.564131 -2.105259,0.782049 -3.726211,1.166673 -1.620952,0.384623 -0.331174,-0.306334 -1.944288,-0.0025 -1.613114,0.303787 -1.995592,-0.150578 -3.634272,-0.135156 C 9.9005441,53.29729 9.71211,54.392879 8.0585818,54.254167 6.4050535,54.115455 6.3280874,53.821084 4.6676203,53.596703 3.0071533,53.372322 3.4495929,52.61332 1.8734307,52.148441 c -1.57616217,-0.46488 -2.73720666,0.21845 -4.2846951,-0.315764 -1.5474884,-0.534214 -1.4646828,-0.44645 -2.9508702,-1.151551 -1.4861874,-0.7051 -0.266911,-1.543779 -1.6944164,-2.412657 -1.4275054,-0.868878 -2.270687,-0.330823 -3.534589,-1.432352 -1.263902,-1.101528 -0.602864,-1.831099 -1.765314,-3.01004 -1.16245,-1.178941 -1.224671,-1.476105 -2.291652,-2.760058 -1.06698,-1.283953 -1.10092,0.231351 -2.013897,-1.135792 -0.912977,-1.367143 -1.807362,-1.729486 -2.509786,-3.232113 -0.702425,-1.502627 0.09037,-1.638852 -0.473321,-3.210919 -0.563688,-1.572067 -0.736294,-1.981425 -1.185783,-3.588253 -0.449489,-1.606827 -1.446466,-1.538741 -1.635103,-3.173881 -0.188637,-1.635139 0.668525,-1.29292 0.632695,-2.955323 -0.03583,-1.662403 -0.585105,-1.340817 -0.516463,-2.977565 0.06864,-1.636749 0.519587,-1.434053 0.7363,-3.067296 0.216714,-1.633242 0.590586,-1.932644 0.991746,-3.560075 0.401159,-1.627431 0.391924,-1.738949 0.981884,-3.296433 0.589961,-1.5574834 0.475776,-1.0245274 1.287353,-2.4609489 0.811578,-1.4364215 0.892321,-2.984385 1.799644,-4.3440916 0.907323,-1.3597065 -0.265906,-7.754e-4 0.758014,-1.2875214 1.02392,-1.286746 2.192411,-1.308616 3.315786,-2.51640943 1.123376,-1.20779347 1.570062,-1.03343757 2.9025319,-2.04722917 1.3324701,-1.0137916 1.1758299,-2.5251879 2.5906496,-3.3620249 1.4148196,-0.8368369 0.495232,0.1421338 1.9949138,-0.5675475 1.4996817,-0.7096813 1.9260677,-0.5896314 3.4793625,-1.1449513 1.5532948,-0.55532 1.13708693,-0.7117459 2.7299302,-1.1797077 1.5928432,-0.4679619 2.2999083,-0.2561723 3.9280645,-0.4471832 1.6281562,-0.1910109 1.9801734,-1.5493199 3.6325759,-1.6546079 1.6524026,-0.105288 0.273491,1.4295439 1.9237056,1.5778642 1.650215,0.1483202 2.413931,-0.9400577 4.043847,-0.6782827 1.629916,0.2617749 1.771472,0.4334689 3.363603,0.8258957 1.592131,0.3924268 2.019821,0.5917082 3.544719,1.2158434 1.524899,0.6241353 1.540863,1.1636635 3.039683,1.9119502 1.498819,0.7482867 0.238074,0.5482943 1.603908,1.5099382 1.365834,0.9616439 2.396586,0.097615 3.650531,1.1749796 1.253945,1.0773644 0.292557,0.7425666 1.430677,1.95464644 1.13812,1.21207982 1.856417,1.76566946 2.946206,3.03166286 1.089789,1.2659934 1.476507,1.1469067 2.348588,2.5560115 0.87208,1.4091049 1.041896,0.6377262 1.769757,2.1199223 0.72786,1.4821961 0.0055,2.2794025 0.560438,3.8289993 0.554948,1.549596 0.787348,1.355415 1.212964,2.935307 0.425617,1.579892 0.362134,2.46939 0.615032,4.098431 0.252898,1.629041 0.248118,0.262589 0.271382,1.923319 z"
       inkscape:transform-center-x="-0.24652724"
       inkscape:transform-center-y="0.14465199"
       transform="matrix(1.591442,0,0,0.95910924,37.584096,22.601484)" /><path
       sodipodi:type="star"
       style="display:inline;fill:#76272b;fill-opacity:1;stroke-width:1.32292;stroke-linecap:round;stroke-linejoin:round"
       id="path1"
       inkscape:flatsided="false"
       sodipodi:sides="30"
       sodipodi:cx="30.222942"
       sodipodi:cy="35.647572"
       sodipodi:r1="22.161537"
       sodipodi:r2="22.272902"
       sodipodi:arg1="0.2520109"
       sodipodi:arg2="0.35673066"
       inkscape:rounded="0.5"
       inkscape:randomized="0.026"
       d="m 52.163341,41.268699 c -0.265419,1.135136 -0.90093,1.44252 -1.296846,2.531191 -0.395916,1.088671 -0.503894,0.202453 -0.978535,1.251437 -0.474641,1.048983 -0.138095,1.427915 -0.753035,2.416304 -0.614941,0.988389 -0.513213,1.237332 -1.236044,2.155518 -0.722831,0.918186 -0.711898,0.482926 -1.497307,1.344302 -0.785409,0.861376 -0.694616,0.76289 -1.614901,1.469755 -0.920286,0.706866 -1.510278,1.598858 -2.502904,2.212872 -0.992626,0.614013 -0.918978,-0.247682 -1.941909,0.308412 -1.022931,0.556095 -0.397482,0.724543 -1.480755,1.10989 -1.083273,0.385347 -1.325594,0.459139 -2.435848,0.806626 -1.110254,0.347487 -1.678399,0.473935 -2.816576,0.676545 -1.138177,0.20261 -0.499584,0.348302 -1.654411,0.437658 -1.154827,0.08936 -1.933023,-0.331634 -3.110874,-0.363287 -1.177852,-0.03165 -0.554214,0.327687 -1.718504,0.14804 -1.16429,-0.179647 -1.562305,-0.811142 -2.685494,-1.118769 -1.123188,-0.307627 -0.44123,0.347207 -1.536896,-0.04576 -1.095665,-0.392967 -1.099508,-0.897694 -2.126105,-1.422136 -1.026596,-0.524443 -1.69349,-0.04296 -2.696303,-0.649293 -1.002812,-0.60633 -0.980641,-0.157113 -1.873566,-0.915323 -0.892926,-0.75821 -0.378185,-1.40879 -1.20231,-2.214261 -0.824126,-0.805471 -0.813281,-0.47022 -1.582186,-1.359274 -0.768906,-0.889055 -0.683859,-0.9645 -1.288617,-1.955814 C 11.528656,47.102019 10.860583,47.093097 10.297006,46.06745 9.7334301,45.041802 10.459457,44.386887 10.031923,43.301127 9.6043901,42.215366 8.6395832,42.352579 8.3223064,41.242537 8.0050297,40.132496 9.1564034,40.369103 8.9205503,39.222486 8.6846971,38.075868 8.1943224,38.410818 8.0767022,37.241041 7.959082,36.071264 8.4854419,35.802958 8.5429551,34.629773 8.6004682,33.456588 7.877058,33.214546 8.0877058,32.069982 8.2983536,30.925419 8.8201028,30.892358 9.1062133,29.751568 9.3923238,28.610777 8.8645766,29.467239 9.2448686,28.378567 9.6251606,27.289895 9.2983451,27.214596 9.8256557,26.184333 10.352966,25.15407 10.383479,25.078662 11.037703,24.1154 c 0.654224,-0.963263 0.753987,-1.615421 1.515839,-2.508026 0.761853,-0.892604 1.246267,-0.527736 2.071649,-1.346157 0.825383,-0.818421 0.962141,-1.471364 1.8386,-2.249072 0.876459,-0.777708 0.43514,0.127516 1.405977,-0.491916 0.970836,-0.619432 1.007405,-1.518753 2.004346,-2.090216 0.996942,-0.571463 1.523691,0.487627 2.596773,0.05645 1.073081,-0.431175 0.154429,-0.468072 1.277657,-0.806627 1.123228,-0.338554 1.717694,-1.120971 2.879014,-1.300157 1.161319,-0.179186 0.662019,-0.268893 1.826039,-0.330325 1.164019,-0.06143 1.900828,-0.259747 3.048437,-0.171291 1.147608,0.08846 0.384543,0.67565 1.545683,0.802763 1.16114,0.127114 1.559951,-0.207618 2.685512,0.08882 1.125561,0.296437 1.60785,0.695224 2.695068,1.075711 1.087219,0.380487 1.078674,-0.141778 2.126124,0.392185 1.047451,0.533964 0.57167,1.176579 1.581459,1.771147 1.009788,0.594568 1.61125,0.570294 2.510327,1.319806 0.899076,0.749511 -5.86e-4,0.695014 0.800826,1.521794 0.801412,0.82678 0.768484,1.09375 1.519748,1.982887 0.751264,0.889137 1.079214,1.080427 1.709192,2.061004 0.629978,0.980576 0.679377,0.324494 1.199611,1.364919 0.520234,1.040425 0.965353,0.6826 1.423292,1.736373 0.45794,1.053773 0.283334,1.038822 0.552619,2.158643 0.269285,1.119821 0.367615,1.918311 0.558755,3.078189 0.191139,1.159878 -0.495036,0.872221 -0.395871,2.034142 0.09916,1.16192 0.888643,1.48358 0.816831,2.650474 -0.07181,1.166893 0.0636,1.408026 -0.1286,2.557935 -0.192202,1.149909 -0.273849,0.658706 -0.539269,1.793843 z"
       transform="matrix(1.4965993,0,0,0.77478379,10.381826,15.94847)" /><g
       id="g2"
       inkscape:label="compass"
       style="stroke:#62252a;stroke-opacity:1"
       transform="translate(9.235441e-5,-8.8402749e-5)"><path
         id="rect2"
         style="fill:#fdb88c;stroke:#62252a;stroke-width:0.79375;stroke-linecap:round;stroke-linejoin:round;stroke-dasharray:none;stroke-opacity:1"
         d="M 16.627453,35.856307 68.013434,67.979596 Z"
         sodipodi:nodetypes="ccc" /><path
         id="path7"
         style="fill:#fdb88c;stroke:#62252a;stroke-width:0.79375;stroke-linecap:round;stroke-linejoin:round;stroke-dasharray:none;stroke-opacity:1"
         d="M 59.268124,34.888141 16.977501,68.108236 Z"
         sodipodi:nodetypes="ccc" /><path
         id="path8"
         style="fill:#fdb88c;stroke:#62252a;stroke-width:0.79375;stroke-linecap:round;stroke-linejoin:round;stroke-dasharray:none;stroke-opacity:1"
         d="m 16.627453,35.856307 1.567976,3.126778 z"
         sodipodi:nodetypes="ccc" /><path
         id="path9"
         style="fill:#fdb88c;stroke:#62252a;stroke-width:0.79375;stroke-linecap:round;stroke-linejoin:round;stroke-dasharray:none;stroke-opacity:1"
         d="m 16.627453,35.856307 3.691362,-0.537775 z"
         sodipodi:nodetypes="ccc" /><path
         id="path10"
         style="fill:#fdb88c;stroke:#62252a;stroke-width:0.79375;stroke-linecap:round;stroke-linejoin:round;stroke-dasharray:none;stroke-opacity:1"
         d="M 16.878606,34.417885 13.126702,32.167702 Z"
         sodipodi:nodetypes="ccc" /><path
         id="path11"
         style="fill:#fdb88c;stroke:#62252a;stroke-width:0.79375;stroke-linecap:round;stroke-linejoin:round;stroke-dasharray:none;stroke-opacity:1"
         d="m 16.878606,34.417885 -6.331932,0.307013 z"
         sodipodi:nodetypes="ccc" /><path
         id="path12"
         style="fill:#fdb88c;stroke:#62252a;stroke-width:0.79375;stroke-linecap:round;stroke-linejoin:round;stroke-dasharray:none;stroke-opacity:1"
         d="M 14.618228,37.066409 10.546674,34.724898 Z"
         sodipodi:nodetypes="ccc" /></g><g
       id="g474"
       inkscape:label="trunk"><path
         id="rect4"
         style="fill:#cd8f2c;stroke-width:1.32292;stroke-linecap:round;stroke-linejoin:round"
         d="m 54.475974,-3.1441093 c -1.262563,-7.9369057 8.959541,-7.7414487 16.990426,0.554461 8.030885,8.2959095 -2.67402,42.1539603 -1.194154,48.3098013 1.479867,6.155842 -20.638293,1.171993 -23.32174,1.07179 -2.683448,-0.100203 0.70191,-0.926982 4.955292,-5.801885 4.253382,-4.874903 3.83274,-36.1972622 2.570176,-44.1341673 z"
         sodipodi:nodetypes="zzzzzz" /><path
         id="rect474"
         style="fill:#a2652b;stroke-width:1.32292;stroke-linecap:round;stroke-linejoin:round"
         d="m 60.946045,-1.2651553 h 4.429429 l -1.582578,44.9201363 -6.210332,0.821956 c 0,0 1.961379,-1.965124 -0.360196,-2.939091 -2.321575,-0.973967 -4.681843,1.382761 -4.681843,1.382761 l -1.954976,-0.407799 c 0,0 6.088766,-4.12023 7.617948,-9.410184 1.529182,-5.289953 2.742548,-34.3677793 2.742548,-34.3677793 z"
         sodipodi:nodetypes="cccczcczc" /><path
         id="rect475"
         style="fill:#78421e;stroke-width:1.38995;stroke-linecap:round;stroke-linejoin:round"
         d="m 62.756946,-0.27867107 5.799354,-0.04566 -0.379639,43.79665907 -4.840406,0.502307 C 64.034583,32.725829 63.217669,11.086036 62.756946,-0.27867107 Z"
         sodipodi:nodetypes="ccccc" /></g><g
       id="g5"
       inkscape:label="ground leaves"><circle
         style="fill:#76272b;fill-opacity:1;stroke-width:1.32292;stroke-linecap:round;stroke-linejoin:round"
         id="use59"
         cx="15.019526"
         cy="66.959251"
         r="1.6210793"
         transform="rotate(-33.347149)" /><circle
         style="fill:#76272b;fill-opacity:1;stroke-width:1.32292;stroke-linecap:round;stroke-linejoin:round"
         id="use60"
         cx="63.688347"
         cy="32.314301"
         r="1.6210793"
         transform="rotate(14.610309)" /><circle
         style="fill:#76272b;fill-opacity:1;stroke-width:1.32292;stroke-linecap:round;stroke-linejoin:round"
         id="use61"
         cx="47.90448"
         cy="52.795341"
         r="1.6210793"
         transform="rotate(-8.2296549)" /><circle
         style="fill:#76272b;fill-opacity:1;stroke-width:1.32292;stroke-linecap:round;stroke-linejoin:round"
         id="use62"
         cx="70.629768"
         cy="19.132719"
         r="1.6210793"
         transform="rotate(23.753755)" /><circle
         style="fill:#76272b;fill-opacity:1;stroke-width:1.32292;stroke-linecap:round;stroke-linejoin:round"
         id="use63"
         cx="69.130119"
         cy="29.547693"
         r="1.6210793"
         transform="rotate(16.494921)" /><circle
         style="fill:#76272b;fill-opacity:1;stroke-width:1.32292;stroke-linecap:round;stroke-linejoin:round"
         id="use64"
         cx="47.725903"
         cy="59.86821"
         r="1.6210793"
         transform="rotate(-12.801505)" /><circle
         style="fill:#76272b;fill-opacity:1;stroke-width:1.32292;stroke-linecap:round;stroke-linejoin:round"
         id="use65"
         cx="54.982056"
         cy="50.529125"
         r="1.6210793"
         transform="rotate(-4.802229)" /><circle
         style="fill:#76272b;fill-opacity:1;stroke-width:1.32292;stroke-linecap:round;stroke-linejoin:round"
         id="use66"
         cx="62.698315"
         cy="44.058846"
         r="1.6210793"
         transform="rotate(2.611562)" /><circle
         style="fill:#76272b;fill-opacity:1;stroke-width:1.32292;stroke-linecap:round;stroke-linejoin:round"
         id="use67"
         cx="44.61729"
         cy="62.577339"
         r="1.6210793"
         transform="rotate(-16.410042)" /><circle
         style="fill:#76272b;fill-opacity:1;stroke-width:1.32292;stroke-linecap:round;stroke-linejoin:round"
         id="use68"
         cx="74.623573"
         cy="14.159913"
         r="1.6210793"
         transform="rotate(26.058237)" /><circle
         style="fill:#76272b;fill-opacity:1;stroke-width:1.32292;stroke-linecap:round;stroke-linejoin:round"
         id="use69"
         cx="73.423279"
         cy="34.449875"
         r="1.6210793"
         transform="rotate(10.556939)" /><circle
         style="fill:#76272b;fill-opacity:1;stroke-width:1.32292;stroke-linecap:round;stroke-linejoin:round"
         id="use70"
         cx="47.916763"
         cy="64.780579"
         r="1.6210793"
         transform="rotate(-18.619575)" /><circle
         style="fill:#76272b;fill-opacity:1;stroke-width:1.32292;stroke-linecap:round;stroke-linejoin:round"
         id="use71"
         cx="77.977463"
         cy="34.519634"
         r="1.6210793"
         transform="rotate(11.295843)" /><circle
         style="fill:#76272b;fill-opacity:1;stroke-width:1.32292;stroke-linecap:round;stroke-linejoin:round"
         id="use72"
         cx="64.446304"
         cy="52.586956"
         r="1.6210793"
         transform="rotate(-5.0980465)" /><circle
         style="fill:#76272b;fill-opacity:1;stroke-width:1.32292;stroke-linecap:round;stroke-linejoin:round"
         id="use73"
         cx="75.103676"
         cy="39.552116"
         r="1.6210793"
         transform="rotate(5.6618805)" /><circle
         style="fill:#76272b;fill-opacity:1;stroke-width:1.32292;stroke-linecap:round;stroke-linejoin:round"
         id="use74"
         cx="50.992931"
         cy="66.629059"
         r="1.6210793"
         transform="rotate(-18.981037)" /><circle
         style="fill:#76272b;fill-opacity:1;stroke-width:1.32292;stroke-linecap:round;stroke-linejoin:round"
         id="use75"
         cx="59.492683"
         cy="49.58289"
         r="1.6210793"
         transform="rotate(-3.915275)" /><circle
         style="fill:#76272b;fill-opacity:1;stroke-width:1.32292;stroke-linecap:round;stroke-linejoin:round"
         id="use76"
         cx="24.086485"
         cy="75.293633"
         r="1.6210793"
         transform="rotate(-33.971902)" /><circle
         style="fill:#76272b;fill-opacity:1;stroke-width:1.32292;stroke-linecap:round;stroke-linejoin:round"
         id="use77"
         cx="47.641533"
         cy="58.677608"
         r="1.6210793"
         transform="rotate(-13.944923)" /><circle
         style="fill:#76272b;fill-opacity:1;stroke-width:1.32292;stroke-linecap:round;stroke-linejoin:round"
         id="use78"
         cx="51.08667"
         cy="54.457844"
         r="1.6210793"
         transform="rotate(-7.8797857)" /><circle
         style="fill:#76272b;fill-opacity:1;stroke-width:1.32292;stroke-linecap:round;stroke-linejoin:round"
         id="use79"
         cx="63.611618"
         cy="37.763027"
         r="1.6210793"
         transform="rotate(6.5224313)" /><circle
         style="fill:#76272b;fill-opacity:1;stroke-width:1.32292;stroke-linecap:round;stroke-linejoin:round"
         id="use80"
         cx="54.036823"
         cy="48.694141"
         r="1.6210793"
         transform="rotate(-1.4535761)" /><circle
         style="fill:#76272b;fill-opacity:1;stroke-width:1.32292;stroke-linecap:round;stroke-linejoin:round"
         id="use81"
         cx="15.96648"
         cy="64.980614"
         r="1.6210793"
         transform="rotate(-32.885506)" /><circle
         style="fill:#76272b;fill-opacity:1;stroke-width:1.32292;stroke-linecap:round;stroke-linejoin:round"
         id="use82"
         cx="58.408195"
         cy="39.714249"
         r="1.6210793"
         transform="rotate(7.6350298)" /><circle
         style="fill:#76272b;fill-opacity:1;stroke-width:1.32292;stroke-linecap:round;stroke-linejoin:round"
         id="use83"
         cx="38.458931"
         cy="56.66515"
         r="1.6210793"
         transform="rotate(-14.947945)" /><circle
         style="fill:#76272b;fill-opacity:1;stroke-width:1.32292;stroke-linecap:round;stroke-linejoin:round"
         id="use84"
         cx="53.009422"
         cy="42.429375"
         r="1.6210793"
         transform="rotate(3.2729399)" /><circle
         style="fill:#76272b;fill-opacity:1;stroke-width:1.32292;stroke-linecap:round;stroke-linejoin:round"
         id="use88"
         cx="66.712311"
         cy="22.552401"
         r="1.6210793"
         transform="rotate(21.927402)" /><circle
         style="fill:#76272b;fill-opacity:1;stroke-width:1.32292;stroke-linecap:round;stroke-linejoin:round"
         id="use89"
         cx="28.083839"
         cy="64.922516"
         r="1.6210793"
         transform="rotate(-27.127289)" /><circle
         style="fill:#76272b;fill-opacity:1;stroke-width:1.32292;stroke-linecap:round;stroke-linejoin:round"
         id="use90"
         cx="41.46637"
         cy="58.968414"
         r="1.6210793"
         transform="rotate(-16.580292)" /><circle
         style="fill:#76272b;fill-opacity:1;stroke-width:1.32292;stroke-linecap:round;stroke-linejoin:round"
         id="use91"
         cx="46.351036"
         cy="52.099174"
         r="1.6210793"
         transform="rotate(-6.9717333)" /><circle
         style="fill:#76272b;fill-opacity:1;stroke-width:1.32292;stroke-linecap:round;stroke-linejoin:round"
         id="use92"
         cx="17.182514"
         cy="66.956711"
         r="1.6210793"
         transform="rotate(-35.493361)" /><circle
         style="fill:#76272b;fill-opacity:1;stroke-width:1.32292;stroke-linecap:round;stroke-linejoin:round"
         id="use96"
         cx="16.066338"
         cy="64.591446"
         r="1.6210793"
         transform="rotate(-31.267449)" /><circle
         style="fill:#76272b;fill-opacity:1;stroke-width:1.32292;stroke-linecap:round;stroke-linejoin:round"
         id="use98"
         cx="65.831581"
         cy="13.001611"
         r="1.6210793"
         transform="rotate(31.267983)" /><circle
         style="fill:#76272b;fill-opacity:1;stroke-width:1.32292;stroke-linecap:round;stroke-linejoin:round"
         id="use103"
         cx="62.234406"
         cy="27.007057"
         r="1.6210793"
         transform="rotate(20.859995)" /><circle
         style="fill:#76272b;fill-opacity:1;stroke-width:1.32292;stroke-linecap:round;stroke-linejoin:round"
         id="use104"
         cx="54.778439"
         cy="43.201782"
         r="1.6210793"
         transform="rotate(4.2684849)" /><circle
         style="fill:#76272b;fill-opacity:1;stroke-width:1.32292;stroke-linecap:round;stroke-linejoin:round"
         id="use105"
         cx="21.512056"
         cy="67.437866"
         r="1.6210793"
         transform="rotate(-30.523038)" /><circle
         style="fill:#76272b;fill-opacity:1;stroke-width:1.32292;stroke-linecap:round;stroke-linejoin:round"
         id="use106"
         cx="57.229862"
         cy="52.96228"
         r="1.6210793"
         transform="rotate(-5.3813694)" /><circle
         style="fill:#76272b;fill-opacity:1;stroke-width:1.32292;stroke-linecap:round;stroke-linejoin:round"
         id="use107"
         cx="30.502039"
         cy="73.378952"
         r="1.6210793"
         transform="rotate(-30.872316)" /><circle
         style="fill:#76272b;fill-opacity:1;stroke-width:1.32292;stroke-linecap:round;stroke-linejoin:round"
         id="use108"
         cx="72.466248"
         cy="38.844688"
         r="1.6210793"
         transform="rotate(8.1153674)" /><circle
         style="fill:#76272b;fill-opacity:1;stroke-width:1.32292;stroke-linecap:round;stroke-linejoin:round"
         id="use109"
         cx="37.492958"
         cy="75.150238"
         r="1.6210793"
         transform="rotate(-26.895435)" /><circle
         style="fill:#76272b;fill-opacity:1;stroke-width:1.32292;stroke-linecap:round;stroke-linejoin:round"
         id="use110"
         cx="60.09481"
         cy="54.398155"
         r="1.6210793"
         transform="rotate(-6.3045414)" /><circle
         style="fill:#76272b;fill-opacity:1;stroke-width:1.32292;stroke-linecap:round;stroke-linejoin:round"
         id="use112"
         cx="38.163376"
         cy="55.54517"
         r="1.6210793"
         transform="rotate(-14.759015)" /><circle
         style="fill:#76272b;fill-opacity:1;stroke-width:1.32292;stroke-linecap:round;stroke-linejoin:round"
         id="use115"
         cx="63.366844"
         cy="23.508921"
         r="1.6210793"
         transform="rotate(19.532)" /><circle
         style="fill:#76272b;fill-opacity:1;stroke-width:1.32292;stroke-linecap:round;stroke-linejoin:round"
         id="use116"
         cx="66.724503"
         cy="7.7633629"
         r="1.6210793"
         transform="rotate(34.98705)" /><circle
         style="fill:#76272b;fill-opacity:1;stroke-width:1.32292;stroke-linecap:round;stroke-linejoin:round"
         id="use118"
         cx="50.38324"
         cy="49.513271"
         r="1.6210793"
         transform="rotate(-4.7926753)" /><circle
         style="fill:#76272b;fill-opacity:1;stroke-width:1.32292;stroke-linecap:round;stroke-linejoin:round"
         id="use119"
         cx="24.343382"
         cy="65.507484"
         r="1.6210793"
         transform="rotate(-30.647886)" /><circle
         style="fill:#76272b;fill-opacity:1;stroke-width:1.32292;stroke-linecap:round;stroke-linejoin:round"
         id="use120"
         cx="68.972626"
         cy="42.082108"
         r="1.6210793"
         transform="rotate(2.9965508)" /><circle
         style="fill:#76272b;fill-opacity:1;stroke-width:1.32292;stroke-linecap:round;stroke-linejoin:round"
         id="use121"
         cx="46.587772"
         cy="65.797218"
         r="1.6210793"
         transform="rotate(-20.42639)" /><circle
         style="fill:#76272b;fill-opacity:1;stroke-width:1.32292;stroke-linecap:round;stroke-linejoin:round"
         id="use122"
         cx="49.630627"
         cy="61.987816"
         r="1.6210793"
         transform="rotate(-15.345153)" /><circle
         style="fill:#76272b;fill-opacity:1;stroke-width:1.32292;stroke-linecap:round;stroke-linejoin:round"
         id="use123"
         cx="28.140049"
         cy="75.863045"
         r="1.6210793"
         transform="rotate(-33.441118)" /><circle
         style="fill:#76272b;fill-opacity:1;stroke-width:1.32292;stroke-linecap:round;stroke-linejoin:round"
         id="use124"
         cx="73.60556"
         cy="34.514549"
         r="1.6210793"
         transform="rotate(10.564134)" /><circle
         style="fill:#76272b;fill-opacity:1;stroke-width:1.32292;stroke-linecap:round;stroke-linejoin:round"
         id="use125"
         cx="74.45153"
         cy="35.74596"
         r="1.6210793"
         transform="rotate(9.3495242)" /><circle
         style="fill:#76272b;fill-opacity:1;stroke-width:1.32292;stroke-linecap:round;stroke-linejoin:round"
         id="use126"
         cx="59.415745"
         cy="56.438324"
         r="1.6210793"
         transform="rotate(-10.231429)" /><circle
         style="fill:#76272b;fill-opacity:1;stroke-width:1.32292;stroke-linecap:round;stroke-linejoin:round"
         id="use127"
         cx="76.31974"
         cy="32.256374"
         r="1.6210793"
         transform="rotate(10.341186)" /><circle
         style="fill:#76272b;fill-opacity:1;stroke-width:1.32292;stroke-linecap:round;stroke-linejoin:round"
         id="use128"
         cx="81.914589"
         cy="14.232778"
         r="1.6210793"
         transform="rotate(23.293491)" /><circle
         style="fill:#76272b;fill-opacity:1;stroke-width:1.32292;stroke-linecap:round;stroke-linejoin:round"
         id="use129"
         cx="81.758484"
         cy="6.1158481"
         r="1.6210793"
         transform="rotate(29.402744)" /><circle
         style="fill:#76272b;fill-opacity:1;stroke-width:1.32292;stroke-linecap:round;stroke-linejoin:round"
         id="use130"
         cx="71.94397"
         cy="20.025898"
         r="1.6210793"
         transform="rotate(21.722997)" /><circle
         style="fill:#76272b;fill-opacity:1;stroke-width:1.32292;stroke-linecap:round;stroke-linejoin:round"
         id="use131"
         cx="39.844963"
         cy="64.432579"
         r="1.6210793"
         transform="rotate(-21.821641)" /><circle
         style="fill:#76272b;fill-opacity:1;stroke-width:1.32292;stroke-linecap:round;stroke-linejoin:round"
         id="use132"
         cx="24.562241"
         cy="73.501938"
         r="1.6210793"
         transform="rotate(-34.249456)" /><circle
         style="fill:#76272b;fill-opacity:1;stroke-width:1.32292;stroke-linecap:round;stroke-linejoin:round"
         id="use133"
         cx="73.291206"
         cy="24.396826"
         r="1.6210793"
         transform="rotate(17.46148)" /><circle
         style="fill:#76272b;fill-opacity:1;stroke-width:1.32292;stroke-linecap:round;stroke-linejoin:round"
         id="use134"
         cx="48.38689"
         cy="61.636314"
         r="1.6210793"
         transform="rotate(-17.150112)" /><circle
         style="fill:#76272b;fill-opacity:1;stroke-width:1.32292;stroke-linecap:round;stroke-linejoin:round"
         id="use135"
         cx="70.382545"
         cy="39.088387"
         r="1.6210793"
         transform="rotate(4.790679)" /><circle
         style="fill:#76272b;fill-opacity:1;stroke-width:1.32292;stroke-linecap:round;stroke-linejoin:round"
         id="use136"
         cx="82.504517"
         cy="3.2928772"
         r="1.6210793"
         transform="rotate(29.103788)" /><circle
         style="fill:#76272b;fill-opacity:1;stroke-width:1.32292;stroke-linecap:round;stroke-linejoin:round"
         id="use137"
         cx="78.228607"
         cy="25.000208"
         r="1.6210793"
         transform="rotate(15.290258)" /></g></g><metadata
     id="metadata1"><rdf:RDF><cc:Work
         rdf:about=""><cc:license
           rdf:resource="http://creativecommons.org/licenses/by-nc/4.0/" /></cc:Work><cc:License
         rdf:about="http://creativecommons.org/licenses/by-nc/4.0/"><cc:permits
           rdf:resource="http://creativecommons.org/ns#Reproduction" /><cc:permits
           rdf:resource="http://creativecommons.org/ns#Distribution" /><cc:requires
           rdf:resource="http://creativecommons.org/ns#Notice" /><cc:requires
           rdf:resource="http://creativecommons.org/ns#Attribution" /><cc:prohibits
           rdf:resource="http://creativecommons.org/ns#CommercialUse" /><cc:permits
           rdf:resource="http://creativecommons.org/ns#DerivativeWorks" /></cc:License></rdf:RDF></metadata></svg>
