<?xml version="1.0" encoding="UTF-8" standalone="no"?>
<!-- Created with Inkscape (http://www.inkscape.org/) -->

<svg
   width="256"
   height="256"
   viewBox="0 0 67.733331 67.733333"
   version="1.1"
   id="svg1"
   inkscape:version="1.3 (0e150ed6c4, 2023-07-21)"
   sodipodi:docname="3.svg"
   xml:space="preserve"
   xmlns:inkscape="http://www.inkscape.org/namespaces/inkscape"
   xmlns:sodipodi="http://sodipodi.sourceforge.net/DTD/sodipodi-0.dtd"
   xmlns="http://www.w3.org/2000/svg"
   xmlns:svg="http://www.w3.org/2000/svg"
   xmlns:rdf="http://www.w3.org/1999/02/22-rdf-syntax-ns#"
   xmlns:cc="http://creativecommons.org/ns#"><sodipodi:namedview
     id="namedview1"
     pagecolor="#ffffff"
     bordercolor="#666666"
     borderopacity="1.0"
     inkscape:showpageshadow="2"
     inkscape:pageopacity="0.0"
     inkscape:pagecheckerboard="0"
     inkscape:deskcolor="#d1d1d1"
     inkscape:document-units="px"
     inkscape:zoom="11.588215"
     inkscape:cx="232.43441"
     inkscape:cy="162.53581"
     inkscape:window-width="1920"
     inkscape:window-height="1002"
     inkscape:window-x="1920"
     inkscape:window-y="1080"
     inkscape:window-maximized="1"
     inkscape:current-layer="g5"
     showgrid="false" /><defs
     id="defs1"><inkscape:path-effect
       effect="perspective-envelope"
       up_left_point="39.879629,54.545897"
       up_right_point="46.539887,52.034366"
       down_left_point="39.833967,57.651065"
       down_right_point="46.517056,54.979709"
       id="path-effect482"
       is_visible="true"
       lpeversion="1"
       deform_type="perspective"
       horizontal_mirror="false"
       vertical_mirror="false"
       overflow_perspective="false" /><inkscape:path-effect
       effect="envelope"
       id="path-effect481"
       is_visible="true"
       lpeversion="1"
       yy="true"
       xx="true"
       bendpath1="m 38.760857,52.194191 h 7.733366"
       bendpath2="m 46.494223,52.194191 v 2.968175"
       bendpath3="m 38.760857,55.162366 h 7.733366"
       bendpath4="m 38.760857,52.194191 v 2.968175" /><mask
       maskUnits="userSpaceOnUse"
       id="mask6"><path
         id="path6"
         style="display:inline;fill:#ffffff;stroke-width:1.15568;stroke-linecap:square;stroke-miterlimit:1.5;paint-order:fill markers stroke"
         inkscape:label="eye white right"
         d="m 36.46105,34.770922 c -0.462998,0.06312 -0.79927,0.391093 -0.752596,0.804782 0.04666,0.413688 0.300686,0.553637 0.839059,0.527729 0.538368,-0.02592 0.991681,-0.51382 0.973946,-0.816185 -0.01772,-0.302379 -0.597413,-0.579435 -1.060409,-0.516326 z"
         sodipodi:nodetypes="zzzzz" /></mask><mask
       maskUnits="userSpaceOnUse"
       id="mask5"><path
         id="path5-7"
         style="display:inline;fill:#ffffff;stroke-width:1.10381;stroke-linecap:square;stroke-miterlimit:1.5;paint-order:fill markers stroke"
         inkscape:label="eye white left"
         d="m 36.508123,34.724338 c 0.643486,-0.05309 0.889505,0.318799 0.897943,0.651333 0.0085,0.332549 -0.335804,0.643639 -0.812355,0.658536 -0.476549,0.0149 -0.925943,-0.35338 -0.928027,-0.620848 -0.0021,-0.267445 0.300006,-0.643305 0.84244,-0.689081 0.542412,-0.04578 -0.643492,0.05316 -2e-6,6.7e-5 z"
         sodipodi:nodetypes="zzzzzz" /></mask></defs><g
     inkscape:label="Layer 1"
     inkscape:groupmode="layer"
     id="layer1"><path
       sodipodi:type="star"
       style="fill:#a8473f;fill-opacity:1;stroke-width:1.32292;stroke-linecap:round;stroke-linejoin:round"
       id="path4"
       inkscape:flatsided="false"
       sodipodi:sides="30"
       sodipodi:cx="-7.8542433"
       sodipodi:cy="5.8450184"
       sodipodi:r1="95.419617"
       sodipodi:r2="95.419617"
       sodipodi:arg1="0.54764196"
       sodipodi:arg2="0.65236172"
       inkscape:rounded="0.5"
       inkscape:randomized="0.026"
       d="m 75.118904,57.199077 c -2.605764,4.202309 -3.994971,4.973949 -6.937136,8.937397 -2.942166,3.963448 -2.777924,1.572721 -6.257677,5.220979 -3.479753,3.648258 -2.60204,1.481062 -6.339816,4.857953 -3.737775,3.37689 -6.9861,4.324534 -11.032106,7.227032 -4.046006,2.902499 -2.300093,2.007511 -6.743035,4.21305 -4.442942,2.205539 -5.228529,4.765997 -9.836803,6.585366 -4.608274,1.819369 -5.85485,1.034534 -10.627273,2.284212 -4.772423,1.249677 -4.36628,3.848934 -9.213005,4.791014 -4.8467251,0.94207 -4.832487,1.60959 -9.7747057,2.02395 -4.9422182,0.41436 -2.6172677,-1.68298 -7.6554923,-1.92666 -5.038225,-0.24368 -6.586434,-1.564016 -11.566673,-2.169915 -4.980237,-0.605898 -2.726092,-1.370789 -7.628782,-2.572608 -4.90269,-1.20182 -7.50121,1.166712 -12.121383,-0.594438 -4.620172,-1.761149 -3.89061,-1.302672 -8.503082,-3.345359 -4.612472,-2.042687 -6.608736,-0.775246 -10.793789,-3.395374 -4.185052,-2.620127 -3.399394,-2.632637 -7.428302,-5.662961 -4.028907,-3.030324 -0.846434,-6.164582 -4.542276,-9.540315 -3.695842,-3.375733 -5.985812,-3.9844 -9.07635,-7.842246 -3.090539,-3.857846 -0.83332,-3.104657 -3.648017,-7.174205 -2.814696,-4.069548 -6.775526,-1.501112 -9.027155,-5.97288 -2.251628,-4.471769 1.328881,-7.837986 -0.593878,-12.389511 -1.922759,-4.551524 -3.164565,-0.80124 -4.67141,-5.502161 -1.506848,-4.700922 -0.828508,-5.928823 -1.555018,-10.874041 -0.72652,-4.945217 -2.0729,-6.162541 -2.43288,-11.121788 -0.35998,-4.9592464 0.59844,-4.3877541 0.64366,-9.3492199 0.0452,-4.9614654 -3.2292,-7.7395611 -2.55843,-12.67697 0.67077,-4.9374091 3.0692,-4.2389981 4.03699,-9.1485571 0.967792,-4.909558 0.74341,-0.848541 2.370365,-5.541256 1.626952,-4.692716 0.676738,-5.421874 2.880004,-9.97383 2.203266,-4.551955 3.294778,-6.617461 5.829053,-10.861639 2.534275,-4.244178 1.699653,-5.804124 4.785056,-9.720506 3.085402,-3.916383 2.598683,-1.258812 5.9084,-4.995215 3.309717,-3.736405 2.796823,-6.884108 6.689092,-10.045537 3.892268,-3.161429 3.871339,-1.423861 7.954798,-4.321692 4.08346,-2.897832 7.052887,-3.605793 11.437447,-5.953847 4.38456,-2.348053 3.339192,-2.487423 7.95229,-4.528886 4.613099,-2.041462 6.078544,-1.554628 10.812895,-2.989278 4.734351,-1.434651 6.266641,1.884491 11.179384,1.10959 4.912744,-0.774902 4.353428,-4.539906 9.26116,-5.050559 4.9077309,-0.510652 2.944871,3.086798 7.9228208,3.118062 4.97795012,0.03126 4.7035061,0.527411 9.5791019,1.325541 4.8755953,0.798129 8.0580423,-1.90716 12.8580113,-0.648415 4.799969,1.258744 4.504986,1.096204 9.20757,2.880287 4.702584,1.784083 3.931044,1.911641 8.503162,3.894756 4.572118,1.983115 4.453333,3.51339 8.745781,6.071343 4.292448,2.557953 3.464386,2.57798 7.428302,5.662962 3.963916,3.084981 2.84046,1.048418 6.508496,4.418482 3.668036,3.370064 3.493845,2.631723 6.842722,6.261462 3.348878,3.62974 2.801605,4.224116 5.695865,8.361263 2.89426,4.137146 4.664905,4.186778 6.979147,8.648849 2.314242,4.462073 2.814764,7.512987 4.815397,12.050435 2.000632,4.537447 -1.427433,4.911495 0.182562,9.611658 1.609996,4.700163 3.191772,4.870329 4.056139,9.7831966 0.864366,4.9128671 0.250063,2.6506181 0.548283,7.667051 0.29822,5.0164335 -0.688841,3.0999515 -0.905959,8.0370667 -0.217118,4.9371147 3.502185,7.1235677 2.73902,12.0926567 -0.763165,4.969089 -2.893368,5.038726 -4.22261,9.853624 -1.329243,4.814898 -0.654534,3.401495 -2.452151,8.057213 -1.797617,4.655718 1.418204,4.397682 -0.564588,9.038657 -1.982791,4.640974 -3.037429,7.602453 -5.643192,11.804761 z"
       inkscape:transform-center-x="-0.30063674"
       inkscape:transform-center-y="-0.23604494"
       transform="matrix(1,0,0,0.74465729,58.121044,38.025129)" /><path
       sodipodi:type="star"
       style="fill:#943a3d;fill-opacity:1;stroke-width:1.32292;stroke-linecap:round;stroke-linejoin:round"
       id="path3"
       inkscape:flatsided="false"
       sodipodi:sides="30"
       sodipodi:cx="6.5870519"
       sodipodi:cy="6.0704203"
       sodipodi:r1="44.389748"
       sodipodi:r2="45.065735"
       sodipodi:arg1="0.34803643"
       sodipodi:arg2="0.45275618"
       inkscape:rounded="0.5"
       inkscape:randomized="0.026"
       d="m 47.592933,21.119941 c -0.748799,2.266568 1.389308,2.769118 0.30755,4.895827 -1.081758,2.126708 -2.13437,2.033834 -3.402812,4.061813 -1.268442,2.027978 -2.005249,2.373254 -3.439962,4.261491 -1.434713,1.888238 -1.20535,0.207358 -2.874668,1.913246 -1.669318,1.705887 0.0272,2.258321 -1.74093,3.83944 -1.768136,1.581119 -2.298043,0.558657 -4.260859,1.903061 -1.962815,1.344404 -2.189204,1.87337 -4.281095,3.034463 -2.09189,1.161093 -2.563513,0.438586 -4.732961,1.337172 -2.169447,0.898586 -2.029058,3.33167 -4.289832,3.935515 -2.260775,0.603845 -1.128821,-0.181201 -3.490645,0.153939 -2.361824,0.33514 -4.098077,1.144861 -6.4244799,1.40082 -2.3264031,0.25596 -1.1535708,-1.149776 -3.5129096,-1.146883 -2.3593385,0.0029 -1.842575,-0.382195 -4.1872064,-0.80365 -2.3446316,-0.421455 -3.5317369,-1.169491 -5.8623046,-1.694072 -2.3305675,-0.524581 -1.1864091,0.05263 -3.4384106,-0.762394 -2.2520019,-0.815026 -2.2505739,-0.272504 -4.3765259,-1.295402 -2.125951,-1.022897 -3.14512,-0.416452 -5.129153,-1.708458 -1.984034,-1.292006 -0.760257,-0.943052 -2.681979,-2.334352 -1.921722,-1.391299 -2.24379,-2.849434 -4.010822,-4.433164 -1.767031,-1.583729 -0.558464,-2.218026 -2.100452,-3.97756 -1.541987,-1.759533 -2.543091,-1.012654 -3.871566,-2.979572 -1.328475,-1.966917 -0.911166,-2.093062 -1.979958,-4.169362 -1.068793,-2.076301 -1.149529,-1.229104 -1.964751,-3.418716 -0.815221,-2.189613 -1.317001,-3.276448 -2.039697,-5.49985 -0.722695,-2.223403 -2.399125,-0.417049 -2.718672,-2.773684 -0.319548,-2.356636 0.502547,-2.911337 0.324086,-5.2528171 -0.178461,-2.3414796 0.983073,-3.6732379 1.021764,-6.0417295 0.03869,-2.3684918 -0.662344,-0.2373812 -0.42118,-2.61218475 0.241165,-2.37480335 0.895209,-4.56702285 1.419375,-6.86015775 0.524167,-2.293135 -0.15444,-0.2217195 0.687284,-2.4315579 0.841723,-2.209838 0.257509,-2.031613 1.22349,-4.212981 0.96598,-2.181367 3.219479,-3.07551 4.380111,-5.11076 1.160632,-2.03525 -0.530744,-2.017267 0.931622,-3.895391 1.462367,-1.878123 2.237091,-1.074749 3.929702,-2.731651 1.692611,-1.656903 1.181881,-1.787632 3.026903,-3.223478 1.845023,-1.435846 2.901402,-2.463944 4.865609,-3.804566 1.964207,-1.340622 1.636718,-1.278663 3.717346,-2.37825 2.080628,-1.099588 2.572897,-0.447352 4.732961,-1.337172 2.1600637,-0.88982 0.7144446,-0.740719 2.9604088,-1.424686 2.2459644,-0.683967 2.9206809,-1.594189 5.25748526,-2.059198 2.33680414,-0.46501 2.80446264,0.106843 5.13605794,-0.135283 2.3315956,-0.242126 1.1651206,1.286768 3.5129473,1.406358 2.3478267,0.119589 1.9933018,-1.10879 4.3135007,-0.717608 2.320199,0.391182 2.040119,0.73938 4.331302,1.270701 2.291182,0.531321 3.430281,-1.095791 5.655497,-0.319242 2.225216,0.77655 2.371569,2.305495 4.541447,3.27272 2.169878,0.967225 2.276642,0.69738 4.314327,1.929386 2.037684,1.232006 1.632502,0.244265 3.458291,1.736691 1.825789,1.492425 2.210083,1.142698 3.884414,2.832579 1.674332,1.689882 1.68605,3.207031 3.153036,5.040654 1.466986,1.833622 1.587747,1.989339 2.983904,3.893796 1.396158,1.904457 1.206063,1.359013 2.288632,3.490854 1.082569,2.131839 0.695159,2.248169 1.491155,4.463325 0.795996,2.2151562 0.07494,2.4246505 0.751313,4.6814439 0.676372,2.2567932 1.466406,0.6746253 1.826149,3.023546 0.359742,2.34892091 0.628947,2.23722959 0.735733,4.5798234 0.106786,2.3425936 0.376996,2.6660686 0.266696,5.0356667 -0.110301,2.3695983 -0.62577,2.3703254 -0.996024,4.677587 -0.370255,2.307261 0.602111,3.777546 -0.04317,6.040048 -0.645285,2.262501 -2.408272,1.167297 -3.157071,3.433866 z"
       inkscape:transform-center-x="0.013328223"
       inkscape:transform-center-y="-0.3115669"
       transform="matrix(1.4503922,0,0,0.95988774,40.774813,36.348374)" /><path
       sodipodi:type="star"
       style="fill:#823238;fill-opacity:1;stroke-width:1.32292;stroke-linecap:round;stroke-linejoin:round"
       id="path2"
       inkscape:flatsided="false"
       sodipodi:sides="30"
       sodipodi:cx="9.557683"
       sodipodi:cy="22.085999"
       sodipodi:r1="31.206392"
       sodipodi:r2="31.681616"
       sodipodi:arg1="-0.048940481"
       sodipodi:arg2="0.055779274"
       inkscape:rounded="0.5"
       inkscape:randomized="0.026"
       d="m 40.303988,21.184008 c 0.129208,1.677771 1.447968,0.755591 1.405319,2.396591 -0.04265,1.641 -0.96295,2.646271 -1.177613,4.277389 -0.214664,1.631119 -0.173524,0.628439 -0.612116,2.219255 -0.438592,1.590816 -0.823173,0.964118 -1.393104,2.521465 -0.56993,1.557347 -0.05218,1.877293 -0.81445,3.366644 -0.762266,1.48935 -1.648989,2.04074 -2.606403,3.39618 -0.957413,1.355439 0.797291,1.560307 -0.285892,2.827483 -1.083183,1.267176 -2.440682,1.672288 -3.60985,2.85969 -1.169169,1.187403 -0.889734,0.702534 -2.186714,1.729978 -1.296979,1.027443 -1.150055,1.060922 -2.523856,2.022518 -1.3738,0.961596 -0.677891,1.573389 -2.175953,2.306746 -1.498062,0.733357 -1.505711,-0.850182 -3.060787,-0.220703 -1.555076,0.629479 -2.51714,2.146115 -4.144786,2.532327 -1.627647,0.386212 -0.934994,-0.172378 -2.575029,0.03616 -1.640034,0.208536 -1.358084,-0.189347 -3.003531,-0.173861 -1.6454465,0.01549 -2.503117,0.05426 -4.1652915,-0.0487 -1.6621744,-0.10296 -1.0389865,0.588838 -2.7063112,0.36353 -1.6673246,-0.225308 -1.0970309,-0.551668 -2.7026665,-0.95871 -1.60563566,-0.407042 -2.82233872,-0.268896 -4.3762182,-0.805316 -1.5538794,-0.53642 -0.369941,-1.132764 -1.8793052,-1.864373 -1.5093643,-0.731608 -1.3325805,-0.827369 -2.7659814,-1.699835 -1.4334009,-0.872467 -1.4183654,-0.926439 -2.6729783,-2.035923 -1.2546127,-1.109485 -1.4596737,-1.222659 -2.6269247,-2.406469 -1.167251,-1.18381 -1.477589,-0.907326 -2.538249,-2.211232 -1.06066,-1.303905 -0.850553,-0.311829 -1.7673,-1.684618 -0.916748,-1.372789 -0.816125,-2.008069 -1.55722,-3.484968 -0.741096,-1.4769 -0.859872,-1.379504 -1.425887,-2.958064 -0.566016,-1.57856 -0.996477,-1.513553 -1.371331,-3.144348 -0.374853,-1.630794 -1.260139,-1.975893 -1.449555,-3.617786 -0.189417,-1.641892 1.536805,-0.825918 1.434434,-2.506933 -0.10237,-1.681015 -1.387128,-1.782447 -1.318202,-3.425955 0.06893,-1.643508 0.938044,-2.653644 1.177614,-4.27739 0.239569,-1.623746 0.147615,-0.715829 0.550432,-2.349981 0.402816,-1.634152 0.79782,-1.444071 1.36767,-3.008818 0.56985,-1.5647468 0.08664,-1.30621 0.901567,-2.7485639 0.814929,-1.4423539 1.56172,-2.777531 2.517591,-4.1565794 0.95587,-1.3790484 -0.988081,-0.1829734 0.04007,-1.4750336 1.028149,-1.2920602 2.818802,-2.2011243 3.942819,-3.41164731 1.124017,-1.21052299 0.937526,-0.13401279 2.2754989,-1.15199129 1.3379731,-1.0179785 0.8734044,-1.6728106 2.319102,-2.5255459 1.4456977,-0.8527353 0.760586,-0.6914143 2.2664614,-1.4040265 1.5058754,-0.7126122 1.4987232,-0.9738689 3.0590914,-1.5690608 1.56036827,-0.5951918 1.55077967,-0.2857037 3.1502013,-0.7555982 1.5994216,-0.4698945 1.4371238,-0.37406 3.088986,-0.6125339 1.6518622,-0.2384739 2.8124276,-1.3835352 4.4716544,-1.4892572 1.6592266,-0.105723 0.9445557,0.9018421 2.6083556,0.9514141 1.663801,0.049572 1.72255,-0.3146887 3.359197,-0.051833 1.636647,0.2628561 1.752894,0.906893 3.360919,1.279156 1.608025,0.372263 2.016207,0.1358703 3.547403,0.7625831 1.531196,0.6267129 0.404555,0.918392 1.87761,1.7220527 1.473054,0.8036607 1.394506,0.7342202 2.765981,1.6998357 1.371475,0.9656154 1.505023,0.9350133 2.788947,1.9609643 1.283924,1.02595106 1.14944,-0.048424 2.292261,1.16866174 1.14282,1.21708565 1.508958,2.67371146 2.539944,4.00099566 1.030987,1.3272841 1.879167,0.1717543 2.75485,1.5866787 0.875682,1.4149244 0.169493,1.6935706 0.904334,3.1732707 0.734841,1.4797 0.86862,1.2196544 1.425861,2.7756509 0.55724,1.555996 0.85511,1.737954 1.311369,3.338353 0.456258,1.6004 0.262685,2.059616 0.516627,3.695385 0.253943,1.635769 -0.65787,1.586922 -0.528662,3.264693 z"
       inkscape:transform-center-x="-0.24652724"
       inkscape:transform-center-y="0.14465199"
       transform="matrix(1.591442,0,0,0.95910924,37.584096,22.601484)" /><path
       sodipodi:type="star"
       style="display:inline;fill:#76272b;fill-opacity:1;stroke-width:1.32292;stroke-linecap:round;stroke-linejoin:round"
       id="path1"
       inkscape:flatsided="false"
       sodipodi:sides="30"
       sodipodi:cx="30.222942"
       sodipodi:cy="35.647572"
       sodipodi:r1="21.938808"
       sodipodi:r2="22.272902"
       sodipodi:arg1="0.2520109"
       sodipodi:arg2="0.35673066"
       inkscape:rounded="0.5"
       inkscape:randomized="0.026"
       d="m 51.704158,41.685803 c -0.277549,1.122392 -0.440112,1.02092 -0.837663,2.114087 -0.397551,1.093167 -0.573531,0.986881 -1.121361,2.025421 -0.547831,1.03854 0.0073,0.649849 -0.610209,1.64232 -0.617481,0.992471 -0.52932,0.39585 -1.286054,1.294868 -0.756734,0.899017 -0.658645,1.340018 -1.447297,2.204952 -0.788653,0.864933 -1.305157,1.234107 -2.221841,1.938503 -0.916684,0.704396 -0.899239,1.127574 -1.895964,1.744124 -0.996726,0.616549 -1.227033,0.130475 -2.267005,0.675578 -1.039973,0.545102 -0.06791,0.355785 -1.155659,0.742724 -1.087747,0.386938 -1.502444,-0.116205 -2.621217,0.18424 -1.118773,0.300446 -1.488329,1.095484 -2.631207,1.298931 -1.142878,0.203446 -0.268614,-0.250641 -1.446352,-0.216992 -1.177737,0.03365 -2.136217,0.323147 -3.318933,0.291363 -1.182716,-0.03178 -1.141511,0.09482 -2.275552,-0.120278 -1.134042,-0.2151 -1.000619,-0.541554 -2.128446,-0.850451 -1.127826,-0.308898 -0.223441,0.109066 -1.306757,-0.337646 -1.083317,-0.446713 -1.325408,-0.603642 -2.356244,-1.13025 C 19.745561,54.660688 19.34077,54.358183 18.324199,53.75206 17.307628,53.145937 17.103141,54.384022 16.206528,53.622681 15.309915,52.861339 15.120484,52.514333 14.308289,51.687997 13.496094,50.861661 14.194112,50.941872 13.422032,50.049146 12.649951,49.15642 12.458105,48.855658 11.785084,47.913779 11.112063,46.971899 10.86291,47.097333 10.297006,46.06745 9.7311026,45.037567 9.8989953,45.37825 9.4612375,44.288777 9.0234797,43.199304 8.6408936,42.357164 8.3223064,41.242537 8.0037194,40.127911 8.3078347,39.978933 8.0791802,38.838148 c -0.2286545,-1.140786 0.115628,-0.422499 -0.00248,-1.597107 -0.1181059,-1.174608 0.312939,-1.229265 0.3362565,-2.387056 0.023317,-1.157791 -0.5367706,-1.634712 -0.3252529,-2.784003 0.2115177,-1.14929 0.1408816,-0.55281 0.4443746,-1.666363 0.3034931,-1.113553 0.3309257,-0.931884 0.7127882,-2.025052 0.3818626,-1.093168 0.6299064,-1.704653 1.1826064,-2.749088 0.552701,-1.044434 -0.0467,-0.546839 0.610228,-1.514079 0.656926,-0.967241 0.811628,-1.348308 1.502221,-2.282007 0.690592,-0.9337 1.256476,-0.750375 2.085267,-1.572176 0.828791,-0.821801 1.157168,-0.381284 2.049003,-1.115941 0.891834,-0.734657 0.220728,-1.003057 1.195574,-1.625047 0.974846,-0.62199 1.184625,-0.504082 2.204586,-1.081916 1.019961,-0.577834 1.31902,-0.518892 2.396533,-0.951848 1.077513,-0.432956 0.276634,-0.421001 1.399415,-0.690633 1.122782,-0.269631 1.591139,-1.236225 2.757256,-1.416151 1.166116,-0.179926 0.520907,-0.08695 1.680435,-0.171046 1.159528,-0.0841 2.041692,-0.419392 3.194041,-0.33057 1.152348,0.08882 0.491456,0.984554 1.643775,1.108432 1.15232,0.123878 1.457211,-0.514511 2.58742,-0.21685 1.13021,0.297662 1.366649,1.103395 2.464949,1.495837 1.098301,0.392442 1.304467,-0.56411 2.356243,-0.02794 1.051777,0.53617 0.280847,1.395655 1.274916,2.022513 0.99407,0.626858 1.91408,0.315832 2.81687,1.06844 0.902789,0.752607 0.622676,0.293706 1.497909,1.08579 0.875233,0.792084 0.0683,1.526082 0.822665,2.418891 0.754367,0.892809 1.411469,1.25467 2.057522,2.240557 0.646053,0.985888 0.328898,0.140644 0.851281,1.185366 0.522383,1.044722 -0.137754,1.368983 0.314375,2.439636 0.45213,1.070653 1.391139,0.330935 1.661536,1.45538 0.270397,1.124446 0.02808,1.871351 0.222862,3.019852 0.194778,1.148502 -0.159553,0.92576 -0.05998,2.092479 0.09957,1.166719 -0.138481,1.379132 -0.211345,2.554502 -0.07286,1.175371 1.092572,1.499249 0.899576,2.653907 -0.192996,1.154658 -0.720903,1.088556 -0.998452,2.210947 z"
       transform="matrix(1.4965993,0,0,0.77478379,10.381826,15.94847)" /><g
       id="g2"
       inkscape:label="compass"
       style="stroke:#62252a;stroke-opacity:1"
       transform="translate(9.235441e-5,-8.8402749e-5)"><path
         id="rect2"
         style="fill:#fdb88c;stroke:#62252a;stroke-width:0.79375;stroke-linecap:round;stroke-linejoin:round;stroke-dasharray:none;stroke-opacity:1"
         d="M 16.627453,35.856307 68.013434,67.979596 Z"
         sodipodi:nodetypes="ccc" /><path
         id="path7"
         style="fill:#fdb88c;stroke:#62252a;stroke-width:0.79375;stroke-linecap:round;stroke-linejoin:round;stroke-dasharray:none;stroke-opacity:1"
         d="M 59.268124,34.888141 16.977501,68.108236 Z"
         sodipodi:nodetypes="ccc" /><path
         id="path8"
         style="fill:#fdb88c;stroke:#62252a;stroke-width:0.79375;stroke-linecap:round;stroke-linejoin:round;stroke-dasharray:none;stroke-opacity:1"
         d="m 16.627453,35.856307 1.567976,3.126778 z"
         sodipodi:nodetypes="ccc" /><path
         id="path9"
         style="fill:#fdb88c;stroke:#62252a;stroke-width:0.79375;stroke-linecap:round;stroke-linejoin:round;stroke-dasharray:none;stroke-opacity:1"
         d="m 16.627453,35.856307 3.691362,-0.537775 z"
         sodipodi:nodetypes="ccc" /><path
         id="path10"
         style="fill:#fdb88c;stroke:#62252a;stroke-width:0.79375;stroke-linecap:round;stroke-linejoin:round;stroke-dasharray:none;stroke-opacity:1"
         d="M 16.878606,34.417885 13.126702,32.167702 Z"
         sodipodi:nodetypes="ccc" /><path
         id="path11"
         style="fill:#fdb88c;stroke:#62252a;stroke-width:0.79375;stroke-linecap:round;stroke-linejoin:round;stroke-dasharray:none;stroke-opacity:1"
         d="m 16.878606,34.417885 -6.331932,0.307013 z"
         sodipodi:nodetypes="ccc" /><path
         id="path12"
         style="fill:#fdb88c;stroke:#62252a;stroke-width:0.79375;stroke-linecap:round;stroke-linejoin:round;stroke-dasharray:none;stroke-opacity:1"
         d="M 14.618228,37.066409 10.546674,34.724898 Z"
         sodipodi:nodetypes="ccc" /></g><g
       id="g474"
       inkscape:label="trunk"><path
         id="rect4"
         style="fill:#cd8f2c;stroke-width:1.32292;stroke-linecap:round;stroke-linejoin:round"
         d="m 54.475974,-3.1441093 c -1.262563,-7.9369057 8.959541,-7.7414487 16.990426,0.554461 8.030885,8.2959095 -2.67402,42.1539603 -1.194154,48.3098013 1.479867,6.155842 -20.638293,1.171993 -23.32174,1.07179 -2.683448,-0.100203 0.70191,-0.926982 4.955292,-5.801885 4.253382,-4.874903 3.83274,-36.1972622 2.570176,-44.1341673 z"
         sodipodi:nodetypes="zzzzzz" /><path
         id="rect474"
         style="fill:#a2652b;stroke-width:1.32292;stroke-linecap:round;stroke-linejoin:round"
         d="m 60.946045,-1.2651553 h 4.429429 l -1.582578,44.9201363 -6.210332,0.821956 c 0,0 1.961379,-1.965124 -0.360196,-2.939091 -2.321575,-0.973967 -4.681843,1.382761 -4.681843,1.382761 l -1.954976,-0.407799 c 0,0 6.088766,-4.12023 7.617948,-9.410184 1.529182,-5.289953 2.742548,-34.3677793 2.742548,-34.3677793 z"
         sodipodi:nodetypes="cccczcczc" /><path
         id="rect475"
         style="fill:#78421e;stroke-width:1.38995;stroke-linecap:round;stroke-linejoin:round"
         d="m 62.756946,-0.27867107 5.799354,-0.04566 -0.379639,43.79665907 -4.840406,0.502307 C 64.034583,32.725829 63.217669,11.086036 62.756946,-0.27867107 Z"
         sodipodi:nodetypes="ccccc" /></g><g
       id="g5"
       inkscape:label="ground leaves"><circle
         style="fill:#76272b;fill-opacity:1;stroke-width:1.32292;stroke-linecap:round;stroke-linejoin:round"
         id="use59"
         cx="15.019526"
         cy="66.959251"
         r="1.6210793"
         transform="rotate(-33.347149)" /><circle
         style="fill:#76272b;fill-opacity:1;stroke-width:1.32292;stroke-linecap:round;stroke-linejoin:round"
         id="use60"
         cx="63.688347"
         cy="32.314301"
         r="1.6210793"
         transform="rotate(14.610309)" /><circle
         style="fill:#76272b;fill-opacity:1;stroke-width:1.32292;stroke-linecap:round;stroke-linejoin:round"
         id="use61"
         cx="47.90448"
         cy="52.795341"
         r="1.6210793"
         transform="rotate(-8.2296549)" /><circle
         style="fill:#76272b;fill-opacity:1;stroke-width:1.32292;stroke-linecap:round;stroke-linejoin:round"
         id="use62"
         cx="70.629768"
         cy="19.132719"
         r="1.6210793"
         transform="rotate(23.753755)" /><circle
         style="fill:#76272b;fill-opacity:1;stroke-width:1.32292;stroke-linecap:round;stroke-linejoin:round"
         id="use63"
         cx="69.130119"
         cy="29.547693"
         r="1.6210793"
         transform="rotate(16.494921)" /><circle
         style="fill:#76272b;fill-opacity:1;stroke-width:1.32292;stroke-linecap:round;stroke-linejoin:round"
         id="use64"
         cx="47.725903"
         cy="59.86821"
         r="1.6210793"
         transform="rotate(-12.801505)" /><circle
         style="fill:#76272b;fill-opacity:1;stroke-width:1.32292;stroke-linecap:round;stroke-linejoin:round"
         id="use65"
         cx="54.982056"
         cy="50.529125"
         r="1.6210793"
         transform="rotate(-4.802229)" /><circle
         style="fill:#76272b;fill-opacity:1;stroke-width:1.32292;stroke-linecap:round;stroke-linejoin:round"
         id="use66"
         cx="62.698315"
         cy="44.058846"
         r="1.6210793"
         transform="rotate(2.611562)" /><circle
         style="fill:#76272b;fill-opacity:1;stroke-width:1.32292;stroke-linecap:round;stroke-linejoin:round"
         id="use67"
         cx="44.61729"
         cy="62.577339"
         r="1.6210793"
         transform="rotate(-16.410042)" /><circle
         style="fill:#76272b;fill-opacity:1;stroke-width:1.32292;stroke-linecap:round;stroke-linejoin:round"
         id="use68"
         cx="74.623573"
         cy="14.159913"
         r="1.6210793"
         transform="rotate(26.058237)" /><circle
         style="fill:#76272b;fill-opacity:1;stroke-width:1.32292;stroke-linecap:round;stroke-linejoin:round"
         id="use69"
         cx="73.423279"
         cy="34.449875"
         r="1.6210793"
         transform="rotate(10.556939)" /><circle
         style="fill:#76272b;fill-opacity:1;stroke-width:1.32292;stroke-linecap:round;stroke-linejoin:round"
         id="use70"
         cx="47.916763"
         cy="64.780579"
         r="1.6210793"
         transform="rotate(-18.619575)" /><circle
         style="fill:#76272b;fill-opacity:1;stroke-width:1.32292;stroke-linecap:round;stroke-linejoin:round"
         id="use71"
         cx="77.977463"
         cy="34.519634"
         r="1.6210793"
         transform="rotate(11.295843)" /><circle
         style="fill:#76272b;fill-opacity:1;stroke-width:1.32292;stroke-linecap:round;stroke-linejoin:round"
         id="use72"
         cx="64.446304"
         cy="52.586956"
         r="1.6210793"
         transform="rotate(-5.0980465)" /><circle
         style="fill:#76272b;fill-opacity:1;stroke-width:1.32292;stroke-linecap:round;stroke-linejoin:round"
         id="use73"
         cx="75.103676"
         cy="39.552116"
         r="1.6210793"
         transform="rotate(5.6618805)" /><circle
         style="fill:#76272b;fill-opacity:1;stroke-width:1.32292;stroke-linecap:round;stroke-linejoin:round"
         id="use74"
         cx="50.992931"
         cy="66.629059"
         r="1.6210793"
         transform="rotate(-18.981037)" /><circle
         style="fill:#76272b;fill-opacity:1;stroke-width:1.32292;stroke-linecap:round;stroke-linejoin:round"
         id="use75"
         cx="59.492683"
         cy="49.58289"
         r="1.6210793"
         transform="rotate(-3.915275)" /><circle
         style="fill:#76272b;fill-opacity:1;stroke-width:1.32292;stroke-linecap:round;stroke-linejoin:round"
         id="use76"
         cx="24.086485"
         cy="75.293633"
         r="1.6210793"
         transform="rotate(-33.971902)" /><circle
         style="fill:#76272b;fill-opacity:1;stroke-width:1.32292;stroke-linecap:round;stroke-linejoin:round"
         id="use77"
         cx="47.641533"
         cy="58.677608"
         r="1.6210793"
         transform="rotate(-13.944923)" /><circle
         style="fill:#76272b;fill-opacity:1;stroke-width:1.32292;stroke-linecap:round;stroke-linejoin:round"
         id="use78"
         cx="51.08667"
         cy="54.457844"
         r="1.6210793"
         transform="rotate(-7.8797857)" /><circle
         style="fill:#76272b;fill-opacity:1;stroke-width:1.32292;stroke-linecap:round;stroke-linejoin:round"
         id="use79"
         cx="63.611618"
         cy="37.763027"
         r="1.6210793"
         transform="rotate(6.5224313)" /><circle
         style="fill:#76272b;fill-opacity:1;stroke-width:1.32292;stroke-linecap:round;stroke-linejoin:round"
         id="use80"
         cx="54.036823"
         cy="48.694141"
         r="1.6210793"
         transform="rotate(-1.4535761)" /><circle
         style="fill:#76272b;fill-opacity:1;stroke-width:1.32292;stroke-linecap:round;stroke-linejoin:round"
         id="use81"
         cx="15.96648"
         cy="64.980614"
         r="1.6210793"
         transform="rotate(-32.885506)" /><circle
         style="fill:#76272b;fill-opacity:1;stroke-width:1.32292;stroke-linecap:round;stroke-linejoin:round"
         id="use82"
         cx="58.408195"
         cy="39.714249"
         r="1.6210793"
         transform="rotate(7.6350298)" /><circle
         style="fill:#76272b;fill-opacity:1;stroke-width:1.32292;stroke-linecap:round;stroke-linejoin:round"
         id="use83"
         cx="38.458931"
         cy="56.66515"
         r="1.6210793"
         transform="rotate(-14.947945)" /><circle
         style="fill:#76272b;fill-opacity:1;stroke-width:1.32292;stroke-linecap:round;stroke-linejoin:round"
         id="use84"
         cx="53.009422"
         cy="42.429375"
         r="1.6210793"
         transform="rotate(3.2729399)" /><circle
         style="fill:#76272b;fill-opacity:1;stroke-width:1.32292;stroke-linecap:round;stroke-linejoin:round"
         id="use88"
         cx="66.712311"
         cy="22.552401"
         r="1.6210793"
         transform="rotate(21.927402)" /><circle
         style="fill:#76272b;fill-opacity:1;stroke-width:1.32292;stroke-linecap:round;stroke-linejoin:round"
         id="use89"
         cx="28.083839"
         cy="64.922516"
         r="1.6210793"
         transform="rotate(-27.127289)" /><circle
         style="fill:#76272b;fill-opacity:1;stroke-width:1.32292;stroke-linecap:round;stroke-linejoin:round"
         id="use90"
         cx="41.4692"
         cy="58.742298"
         r="1.6210793"
         transform="rotate(-16.580292)" /><circle
         style="fill:#76272b;fill-opacity:1;stroke-width:1.32292;stroke-linecap:round;stroke-linejoin:round"
         id="use91"
         cx="46.351036"
         cy="52.099174"
         r="1.6210793"
         transform="rotate(-6.9717333)" /><circle
         style="fill:#76272b;fill-opacity:1;stroke-width:1.32292;stroke-linecap:round;stroke-linejoin:round"
         id="use92"
         cx="17.182514"
         cy="66.956711"
         r="1.6210793"
         transform="rotate(-35.493361)" /><circle
         style="fill:#76272b;fill-opacity:1;stroke-width:1.32292;stroke-linecap:round;stroke-linejoin:round"
         id="use96"
         cx="16.066338"
         cy="64.591446"
         r="1.6210793"
         transform="rotate(-31.267449)" /><circle
         style="fill:#76272b;fill-opacity:1;stroke-width:1.32292;stroke-linecap:round;stroke-linejoin:round"
         id="use98"
         cx="65.831581"
         cy="13.001611"
         r="1.6210793"
         transform="rotate(31.267983)" /><circle
         style="fill:#76272b;fill-opacity:1;stroke-width:1.32292;stroke-linecap:round;stroke-linejoin:round"
         id="use103"
         cx="62.234406"
         cy="27.007057"
         r="1.6210793"
         transform="rotate(20.859995)" /><circle
         style="fill:#76272b;fill-opacity:1;stroke-width:1.32292;stroke-linecap:round;stroke-linejoin:round"
         id="use104"
         cx="54.778439"
         cy="43.201782"
         r="1.6210793"
         transform="rotate(4.2684849)" /><circle
         style="fill:#76272b;fill-opacity:1;stroke-width:1.32292;stroke-linecap:round;stroke-linejoin:round"
         id="use105"
         cx="21.512056"
         cy="67.437866"
         r="1.6210793"
         transform="rotate(-30.523038)" /><circle
         style="fill:#76272b;fill-opacity:1;stroke-width:1.32292;stroke-linecap:round;stroke-linejoin:round"
         id="use106"
         cx="57.229862"
         cy="52.96228"
         r="1.6210793"
         transform="rotate(-5.3813694)" /><circle
         style="fill:#76272b;fill-opacity:1;stroke-width:1.32292;stroke-linecap:round;stroke-linejoin:round"
         id="use107"
         cx="30.502039"
         cy="73.378952"
         r="1.6210793"
         transform="rotate(-30.872316)" /><circle
         style="fill:#76272b;fill-opacity:1;stroke-width:1.32292;stroke-linecap:round;stroke-linejoin:round"
         id="use108"
         cx="72.466248"
         cy="38.844688"
         r="1.6210793"
         transform="rotate(8.1153674)" /><circle
         style="fill:#76272b;fill-opacity:1;stroke-width:1.32292;stroke-linecap:round;stroke-linejoin:round"
         id="use109"
         cx="37.492958"
         cy="75.150238"
         r="1.6210793"
         transform="rotate(-26.895435)" /><circle
         style="fill:#76272b;fill-opacity:1;stroke-width:1.32292;stroke-linecap:round;stroke-linejoin:round"
         id="use110"
         cx="60.09481"
         cy="54.398155"
         r="1.6210793"
         transform="rotate(-6.3045414)" /><circle
         style="fill:#76272b;fill-opacity:1;stroke-width:1.32292;stroke-linecap:round;stroke-linejoin:round"
         id="use112"
         cx="38.163376"
         cy="55.54517"
         r="1.6210793"
         transform="rotate(-14.759015)" /><circle
         style="fill:#76272b;fill-opacity:1;stroke-width:1.32292;stroke-linecap:round;stroke-linejoin:round"
         id="use115"
         cx="63.621349"
         cy="23.001122"
         r="1.6210793"
         transform="rotate(19.532)" /><circle
         style="fill:#76272b;fill-opacity:1;stroke-width:1.32292;stroke-linecap:round;stroke-linejoin:round"
         id="use116"
         cx="66.724503"
         cy="7.7633629"
         r="1.6210793"
         transform="rotate(34.98705)" /><circle
         style="fill:#76272b;fill-opacity:1;stroke-width:1.32292;stroke-linecap:round;stroke-linejoin:round"
         id="use118"
         cx="48.217701"
         cy="47.322735"
         r="1.6210793"
         transform="rotate(-4.7926753)" /><circle
         style="fill:#76272b;fill-opacity:1;stroke-width:1.32292;stroke-linecap:round;stroke-linejoin:round"
         id="use119"
         cx="24.434843"
         cy="65.530022"
         r="1.6210793"
         transform="rotate(-30.647886)" /><circle
         style="fill:#76272b;fill-opacity:1;stroke-width:1.32292;stroke-linecap:round;stroke-linejoin:round"
         id="use120"
         cx="68.972626"
         cy="42.082108"
         r="1.6210793"
         transform="rotate(2.9965508)" /><circle
         style="fill:#76272b;fill-opacity:1;stroke-width:1.32292;stroke-linecap:round;stroke-linejoin:round"
         id="use121"
         cx="46.587772"
         cy="65.797218"
         r="1.6210793"
         transform="rotate(-20.42639)" /><circle
         style="fill:#76272b;fill-opacity:1;stroke-width:1.32292;stroke-linecap:round;stroke-linejoin:round"
         id="use122"
         cx="49.630627"
         cy="61.987816"
         r="1.6210793"
         transform="rotate(-15.345153)" /><circle
         style="fill:#76272b;fill-opacity:1;stroke-width:1.32292;stroke-linecap:round;stroke-linejoin:round"
         id="use123"
         cx="28.140049"
         cy="75.863045"
         r="1.6210793"
         transform="rotate(-33.441118)" /><circle
         style="fill:#76272b;fill-opacity:1;stroke-width:1.32292;stroke-linecap:round;stroke-linejoin:round"
         id="use124"
         cx="73.60556"
         cy="34.514549"
         r="1.6210793"
         transform="rotate(10.564134)" /><circle
         style="fill:#76272b;fill-opacity:1;stroke-width:1.32292;stroke-linecap:round;stroke-linejoin:round"
         id="use125"
         cx="74.45153"
         cy="35.74596"
         r="1.6210793"
         transform="rotate(9.3495242)" /><circle
         style="fill:#76272b;fill-opacity:1;stroke-width:1.32292;stroke-linecap:round;stroke-linejoin:round"
         id="use126"
         cx="59.415745"
         cy="56.438324"
         r="1.6210793"
         transform="rotate(-10.231429)" /><circle
         style="fill:#76272b;fill-opacity:1;stroke-width:1.32292;stroke-linecap:round;stroke-linejoin:round"
         id="use127"
         cx="76.31974"
         cy="32.256374"
         r="1.6210793"
         transform="rotate(10.341186)" /><circle
         style="fill:#76272b;fill-opacity:1;stroke-width:1.32292;stroke-linecap:round;stroke-linejoin:round"
         id="use128"
         cx="81.914589"
         cy="14.232778"
         r="1.6210793"
         transform="rotate(23.293491)" /><circle
         style="fill:#76272b;fill-opacity:1;stroke-width:1.32292;stroke-linecap:round;stroke-linejoin:round"
         id="use129"
         cx="81.758484"
         cy="6.1158481"
         r="1.6210793"
         transform="rotate(29.402744)" /><circle
         style="fill:#76272b;fill-opacity:1;stroke-width:1.32292;stroke-linecap:round;stroke-linejoin:round"
         id="use130"
         cx="72.37011"
         cy="19.219275"
         r="1.6210793"
         transform="rotate(21.722997)" /><circle
         style="fill:#76272b;fill-opacity:1;stroke-width:1.32292;stroke-linecap:round;stroke-linejoin:round"
         id="use131"
         cx="37.262218"
         cy="62.768047"
         r="1.6210793"
         transform="rotate(-21.821641)" /><circle
         style="fill:#76272b;fill-opacity:1;stroke-width:1.32292;stroke-linecap:round;stroke-linejoin:round"
         id="use132"
         cx="24.562241"
         cy="73.501938"
         r="1.6210793"
         transform="rotate(-34.249456)" /><circle
         style="fill:#76272b;fill-opacity:1;stroke-width:1.32292;stroke-linecap:round;stroke-linejoin:round"
         id="use133"
         cx="72.884056"
         cy="23.517138"
         r="1.6210793"
         transform="rotate(17.46148)" /><circle
         style="fill:#76272b;fill-opacity:1;stroke-width:1.32292;stroke-linecap:round;stroke-linejoin:round"
         id="use134"
         cx="48.546741"
         cy="61.337326"
         r="1.6210793"
         transform="rotate(-17.150112)" /><circle
         style="fill:#76272b;fill-opacity:1;stroke-width:1.32292;stroke-linecap:round;stroke-linejoin:round"
         id="use135"
         cx="70.165497"
         cy="38.572327"
         r="1.6210793"
         transform="rotate(4.790679)" /><circle
         style="fill:#76272b;fill-opacity:1;stroke-width:1.32292;stroke-linecap:round;stroke-linejoin:round"
         id="use136"
         cx="82.504517"
         cy="3.2928772"
         r="1.6210793"
         transform="rotate(29.103788)" /><circle
         style="fill:#76272b;fill-opacity:1;stroke-width:1.32292;stroke-linecap:round;stroke-linejoin:round"
         id="use137"
         cx="78.228607"
         cy="25.000208"
         r="1.6210793"
         transform="rotate(15.290258)" /></g></g><metadata
     id="metadata1"><rdf:RDF><cc:Work
         rdf:about=""><cc:license
           rdf:resource="http://creativecommons.org/licenses/by-nc/4.0/" /></cc:Work><cc:License
         rdf:about="http://creativecommons.org/licenses/by-nc/4.0/"><cc:permits
           rdf:resource="http://creativecommons.org/ns#Reproduction" /><cc:permits
           rdf:resource="http://creativecommons.org/ns#Distribution" /><cc:requires
           rdf:resource="http://creativecommons.org/ns#Notice" /><cc:requires
           rdf:resource="http://creativecommons.org/ns#Attribution" /><cc:prohibits
           rdf:resource="http://creativecommons.org/ns#CommercialUse" /><cc:permits
           rdf:resource="http://creativecommons.org/ns#DerivativeWorks" /></cc:License></rdf:RDF></metadata></svg>
